font_1.ufo
<glyph name="parenright" format="1">
  <advance width="314"/>
  <unicode hex="0029"/>
  <outline>
    <contour>
      <point x="78" y="-295" type="curve"/>
      <point x="216" y="-88"/>
      <point x="279" y="81"/>
      <point x="279" y="329" type="curve"/>
      <point x="279" y="572"/>
      <point x="223" y="736"/>
      <point x="80" y="934" type="curve"/>
      <point x="-2" y="856"/>
      <point x="80" y="934"/>
      <point x="-2" y="856" type="curve"/>
      <point x="118" y="685"/>
      <point x="142" y="532"/>
      <point x="142" y="324" type="curve"/>
      <point x="142" y="112"/>
      <point x="110" y="-43"/>
      <point x="-5" y="-224" type="curve"/>
      <point x="78" y="-295"/>
      <point x="-5" y="-224"/>
    </contour>
  </outline>
</glyph>
<glyph name="asterisk" format="1">
  <advance width="516"/>
  <unicode hex="002A"/>
  <outline>
    <contour>
      <point x="299" y="531" type="line"/>
      <point x="306" y="746" type="line"/>
      <point x="210" y="746" type="line"/>
      <point x="217" y="531" type="line"/>
    </contour>
    <contour>
      <point x="271" y="491" type="line"/>
      <point x="477" y="559" type="line"/>
      <point x="443" y="649" type="line"/>
      <point x="244" y="569" type="line"/>
    </contour>
    <contour>
      <point x="227" y="504" type="line"/>
      <point x="360" y="334" type="line"/>
      <point x="434" y="396" type="line"/>
      <point x="290" y="556" type="line"/>
    </contour>
    <contour>
      <point x="227" y="557" type="line"/>
      <point x="84" y="396" type="line"/>
      <point x="156" y="335" type="line"/>
      <point x="290" y="505" type="line"/>
    </contour>
    <contour>
      <point x="273" y="569" type="line"/>
      <point x="73" y="649" type="line"/>
      <point x="39" y="558" type="line"/>
      <point x="245" y="491" type="line"/>
    </contour>
  </outline>
</glyph>
<glyph name="colon" format="1">
  <advance width="262"/>
  <unicode hex="003A"/>
  <outline>
    <contour>
      <point x="201" y="359" type="curve"/>
      <point x="201" y="406"/>
      <point x="172" y="430"/>
      <point x="129" y="430" type="curve"/>
      <point x="87" y="430"/>
      <point x="59" y="404"/>
      <point x="59" y="359" type="curve"/>
      <point x="201" y="359"/>
      <point x="59" y="359"/>
      <point x="201" y="359" type="curve"/>
      <point x="201" y="310"/>
      <point x="173" y="288"/>
      <point x="130" y="288" type="curve"/>
      <point x="87" y="288"/>
      <point x="59" y="312"/>
      <point x="59" y="359" type="curve"/>
      <point x="201" y="359"/>
      <point x="59" y="359"/>
    </contour>
    <contour>
      <point x="201" y="66" type="curve"/>
      <point x="201" y="114"/>
      <point x="172" y="138"/>
      <point x="130" y="138" type="curve"/>
      <point x="87" y="138"/>
      <point x="60" y="112"/>
      <point x="60" y="66" type="curve"/>
      <point x="201" y="66"/>
      <point x="60" y="66"/>
      <point x="201" y="66" type="curve"/>
      <point x="201" y="18"/>
      <point x="173" y="-4"/>
      <point x="130" y="-4" type="curve"/>
      <point x="87" y="-4"/>
      <point x="60" y="20"/>
      <point x="60" y="66" type="curve"/>
      <point x="201" y="66"/>
      <point x="60" y="66"/>
    </contour>
  </outline>
</glyph>
<glyph name="less" format="1">
  <advance width="501"/>
  <unicode hex="003C"/>
  <outline>
    <contour>
      <point x="438" y="631" type="curve"/>
      <point x="303" y="541"/>
      <point x="168" y="451"/>
      <point x="33" y="361" type="curve"/>
      <point x="33" y="239"/>
      <point x="33" y="361"/>
      <point x="33" y="239" type="curve"/>
      <point x="168" y="329"/>
      <point x="303" y="419"/>
      <point x="438" y="509" type="curve"/>
      <point x="438" y="631"/>
      <point x="438" y="509"/>
    </contour>
    <contour>
      <point x="446" y="97" type="curve"/>
      <point x="307" y="185"/>
      <point x="169" y="273"/>
      <point x="33" y="361" type="curve"/>
      <point x="33" y="239"/>
      <point x="33" y="361"/>
      <point x="33" y="239" type="curve"/>
      <point x="169" y="151"/>
      <point x="307" y="63"/>
      <point x="446" y="-25" type="curve"/>
      <point x="446" y="97"/>
      <point x="446" y="-25"/>
    </contour>
  </outline>
</glyph>
<glyph name="equal" format="1">
  <advance width="548"/>
  <unicode hex="003D"/>
  <outline>
    <contour>
      <point x="64" y="159" type="curve"/>
      <point x="204" y="159"/>
      <point x="344" y="159"/>
      <point x="483" y="159" type="curve"/>
      <point x="483" y="276"/>
      <point x="483" y="159"/>
      <point x="483" y="276" type="curve"/>
      <point x="344" y="276"/>
      <point x="204" y="276"/>
      <point x="64" y="276" type="curve"/>
      <point x="64" y="159"/>
      <point x="64" y="276"/>
    </contour>
    <contour>
      <point x="64" y="381" type="curve"/>
      <point x="204" y="381"/>
      <point x="344" y="381"/>
      <point x="483" y="381" type="curve"/>
      <point x="483" y="498"/>
      <point x="483" y="381"/>
      <point x="483" y="498" type="curve"/>
      <point x="344" y="498"/>
      <point x="204" y="498"/>
      <point x="64" y="498" type="curve"/>
      <point x="64" y="381"/>
      <point x="64" y="498"/>
    </contour>
  </outline>
</glyph>
<glyph name="D" format="1">
  <advance width="646"/>
  <unicode hex="0044"/>
  <outline>
    <contour>
      <point x="292" y="780" type="move" name="top"/>
    </contour>
    <contour>
      <point x="194" y="109" type="curve"/>
      <point x="61" y="109"/>
      <point x="194" y="109"/>
      <point x="61" y="109" type="curve"/>
      <point x="61" y="0"/>
      <point x="61" y="109"/>
      <point x="61" y="0" type="curve"/>
      <point x="105" y="0"/>
      <point x="150" y="0"/>
      <point x="194" y="0" type="curve"/>
      <point x="194" y="109"/>
      <point x="194" y="0"/>
    </contour>
    <contour>
      <point x="194" y="722" type="curve"/>
      <point x="150" y="722"/>
      <point x="105" y="722"/>
      <point x="61" y="722" type="curve"/>
      <point x="61" y="613"/>
      <point x="61" y="722"/>
      <point x="61" y="613" type="curve"/>
      <point x="194" y="613"/>
      <point x="61" y="613"/>
      <point x="194" y="613" type="curve"/>
      <point x="194" y="722"/>
      <point x="194" y="613"/>
    </contour>
    <contour>
      <point x="122" y="722" type="curve"/>
      <point x="122" y="481"/>
      <point x="122" y="241"/>
      <point x="122" y="0" type="curve"/>
      <point x="263" y="0"/>
      <point x="122" y="0"/>
      <point x="263" y="0" type="curve"/>
      <point x="263" y="241"/>
      <point x="263" y="481"/>
      <point x="263" y="722" type="curve"/>
      <point x="122" y="722"/>
      <point x="263" y="722"/>
    </contour>
    <contour>
      <point x="194" y="0" type="curve"/>
      <point x="236" y="0"/>
      <point x="279" y="0"/>
      <point x="322" y="0" type="curve"/>
      <point x="519" y="0"/>
      <point x="600" y="140"/>
      <point x="600" y="354" type="curve"/>
      <point x="600" y="575"/>
      <point x="523" y="722"/>
      <point x="321" y="722" type="curve"/>
      <point x="279" y="722"/>
      <point x="236" y="722"/>
      <point x="194" y="722" type="curve"/>
      <point x="194" y="613"/>
      <point x="194" y="722"/>
      <point x="194" y="613" type="curve"/>
      <point x="235" y="613"/>
      <point x="274" y="613"/>
      <point x="315" y="613" type="curve"/>
      <point x="441" y="613"/>
      <point x="459" y="499"/>
      <point x="459" y="352" type="curve"/>
      <point x="459" y="217"/>
      <point x="447" y="109"/>
      <point x="335" y="109" type="curve"/>
      <point x="288" y="109"/>
      <point x="241" y="109"/>
      <point x="194" y="109" type="curve"/>
      <point x="194" y="0"/>
      <point x="194" y="109"/>
    </contour>
  </outline>
</glyph>
<glyph name="M" format="1">
  <advance width="740"/>
  <unicode hex="004D"/>
  <outline>
    <contour>
      <point x="601" y="0" type="curve"/>
      <point x="641" y="0"/>
      <point x="685" y="0"/>
      <point x="724" y="0" type="curve"/>
      <point x="724" y="109"/>
      <point x="724" y="0"/>
      <point x="724" y="109" type="curve"/>
      <point x="605" y="109"/>
      <point x="719" y="109"/>
      <point x="601" y="109" type="curve"/>
      <point x="601" y="0"/>
      <point x="601" y="109"/>
    </contour>
    <contour>
      <point x="601" y="109" type="curve"/>
      <point x="495" y="109"/>
      <point x="596" y="109"/>
      <point x="491" y="109" type="curve"/>
      <point x="491" y="0"/>
      <point x="491" y="109"/>
      <point x="491" y="0" type="curve"/>
      <point x="527" y="0"/>
      <point x="567" y="0"/>
      <point x="601" y="0" type="curve"/>
      <point x="601" y="109"/>
      <point x="601" y="0"/>
    </contour>
    <contour>
      <point x="140" y="109" type="curve"/>
      <point x="22" y="109"/>
      <point x="135" y="109"/>
      <point x="17" y="109" type="curve"/>
      <point x="17" y="0"/>
      <point x="17" y="109"/>
      <point x="17" y="0" type="curve"/>
      <point x="57" y="0"/>
      <point x="101" y="0"/>
      <point x="140" y="0" type="curve"/>
      <point x="140" y="109"/>
      <point x="140" y="0"/>
    </contour>
    <contour>
      <point x="179" y="722" type="curve"/>
      <point x="141" y="722"/>
      <point x="97" y="722"/>
      <point x="58" y="722" type="curve"/>
      <point x="57" y="613"/>
      <point x="58" y="722"/>
      <point x="57" y="613" type="curve"/>
      <point x="175" y="613"/>
      <point x="61" y="613"/>
      <point x="179" y="613" type="curve"/>
      <point x="179" y="722"/>
      <point x="179" y="613"/>
    </contour>
    <contour>
      <point x="559" y="613" type="curve"/>
      <point x="676" y="613"/>
      <point x="564" y="613"/>
      <point x="681" y="613" type="curve"/>
      <point x="681" y="722"/>
      <point x="681" y="613"/>
      <point x="681" y="722" type="curve"/>
      <point x="642" y="722"/>
      <point x="598" y="722"/>
      <point x="559" y="722" type="curve"/>
      <point x="559" y="613"/>
      <point x="559" y="722"/>
    </contour>
    <contour>
      <point x="140" y="0" type="curve"/>
      <point x="175" y="0"/>
      <point x="144" y="0"/>
      <point x="250" y="0" type="curve"/>
      <point x="250" y="109"/>
      <point x="250" y="0"/>
      <point x="250" y="109" type="curve"/>
      <point x="144" y="109"/>
      <point x="245" y="109"/>
      <point x="140" y="109" type="curve"/>
      <point x="140" y="0"/>
      <point x="140" y="109"/>
    </contour>
    <contour>
      <point x="679" y="0" type="curve"/>
      <point x="665" y="241"/>
      <point x="646" y="481"/>
      <point x="633" y="722" type="curve"/>
      <point x="505" y="722"/>
      <point x="633" y="722"/>
      <point x="505" y="722" type="curve"/>
      <point x="518" y="481"/>
      <point x="526" y="241"/>
      <point x="539" y="0" type="curve"/>
      <point x="679" y="0"/>
      <point x="539" y="0"/>
    </contour>
    <contour>
      <point x="197" y="0" type="curve"/>
      <point x="210" y="241"/>
      <point x="222" y="481"/>
      <point x="235" y="722" type="curve"/>
      <point x="120" y="722"/>
      <point x="235" y="722"/>
      <point x="120" y="722" type="curve"/>
      <point x="107" y="481"/>
      <point x="95" y="241"/>
      <point x="81" y="0" type="curve"/>
      <point x="197" y="0"/>
      <point x="81" y="0"/>
    </contour>
    <contour>
      <point x="424" y="0" type="curve"/>
      <point x="362" y="241"/>
      <point x="299" y="481"/>
      <point x="236" y="722" type="curve"/>
      <point x="122" y="722"/>
      <point x="236" y="722"/>
      <point x="122" y="722" type="curve"/>
      <point x="184" y="481"/>
      <point x="247" y="241"/>
      <point x="309" y="0" type="curve"/>
      <point x="424" y="0"/>
      <point x="309" y="0"/>
    </contour>
    <contour>
      <point x="430" y="0" type="curve"/>
      <point x="492" y="241"/>
      <point x="553" y="481"/>
      <point x="614" y="722" type="curve"/>
      <point x="499" y="722"/>
      <point x="614" y="722"/>
      <point x="499" y="722" type="curve"/>
      <point x="438" y="481"/>
      <point x="376" y="241"/>
      <point x="314" y="0" type="curve"/>
      <point x="430" y="0"/>
      <point x="314" y="0"/>
    </contour>
  </outline>
</glyph>
<glyph name="Q" format="1">
  <advance width="590"/>
  <unicode hex="0051"/>
  <outline>
    <contour>
      <point x="255" y="27" type="curve"/>
      <point x="320" y="-136"/>
      <point x="418" y="-211"/>
      <point x="582" y="-211" type="curve"/>
      <point x="582" y="-96"/>
      <point x="582" y="-211"/>
      <point x="582" y="-96" type="curve"/>
      <point x="473" y="-96"/>
      <point x="420" y="-29"/>
      <point x="376" y="81" type="curve"/>
      <point x="255" y="27"/>
      <point x="376" y="81"/>
    </contour>
    <contour>
      <point x="185" y="360" type="curve"/>
      <point x="185" y="489"/>
      <point x="197" y="606"/>
      <point x="305" y="606" type="curve"/>
      <point x="414" y="606"/>
      <point x="434" y="491"/>
      <point x="434" y="360" type="curve"/>
      <point x="434" y="230"/>
      <point x="423" y="109"/>
      <point x="314" y="109" type="curve"/>
      <point x="203" y="110"/>
      <point x="185" y="228"/>
      <point x="185" y="360" type="curve"/>
      <point x="44" y="360"/>
      <point x="185" y="360"/>
      <point x="44" y="360" type="curve"/>
      <point x="44" y="156"/>
      <point x="125" y="-5"/>
      <point x="308" y="-5" type="curve"/>
      <point x="494" y="-5"/>
      <point x="575" y="159"/>
      <point x="575" y="366" type="curve"/>
      <point x="575" y="569"/>
      <point x="499" y="732"/>
      <point x="317" y="732" type="curve"/>
      <point x="129" y="732"/>
      <point x="44" y="567"/>
      <point x="44" y="360" type="curve"/>
      <point x="185" y="360"/>
      <point x="44" y="360"/>
    </contour>
  </outline>
</glyph>
<glyph name="V" format="1">
  <advance width="599"/>
  <unicode hex="0056"/>
  <outline>
    <contour>
      <point x="473" y="722" type="curve"/>
      <point x="428" y="722"/>
      <point x="384" y="722"/>
      <point x="339" y="722" type="curve"/>
      <point x="339" y="613"/>
      <point x="339" y="722"/>
      <point x="339" y="613" type="curve"/>
      <point x="473" y="613"/>
      <point x="339" y="613"/>
      <point x="473" y="613" type="curve"/>
      <point x="473" y="722"/>
      <point x="473" y="613"/>
    </contour>
    <contour>
      <point x="117" y="722" type="curve"/>
      <point x="79" y="722"/>
      <point x="42" y="722"/>
      <point x="3" y="722" type="curve"/>
      <point x="3" y="613"/>
      <point x="3" y="722"/>
      <point x="3" y="613" type="curve"/>
      <point x="117" y="613"/>
      <point x="3" y="613"/>
      <point x="117" y="613" type="curve"/>
      <point x="117" y="722"/>
      <point x="117" y="613"/>
    </contour>
    <contour>
      <point x="481" y="613" type="curve"/>
      <point x="594" y="613"/>
      <point x="481" y="613"/>
      <point x="594" y="613" type="curve"/>
      <point x="594" y="722"/>
      <point x="594" y="613"/>
      <point x="594" y="722" type="curve"/>
      <point x="558" y="722"/>
      <point x="519" y="722"/>
      <point x="481" y="722" type="curve"/>
      <point x="481" y="613"/>
      <point x="481" y="722"/>
    </contour>
    <contour>
      <point x="125" y="613" type="curve"/>
      <point x="258" y="613"/>
      <point x="125" y="613"/>
      <point x="258" y="613" type="curve"/>
      <point x="258" y="722"/>
      <point x="258" y="613"/>
      <point x="258" y="722" type="curve"/>
      <point x="214" y="722"/>
      <point x="169" y="722"/>
      <point x="125" y="722" type="curve"/>
      <point x="125" y="613"/>
      <point x="125" y="722"/>
    </contour>
    <contour>
      <point x="417" y="722" type="curve"/>
      <point x="359" y="480"/>
      <point x="304" y="242"/>
      <point x="249" y="0" type="curve"/>
      <point x="393" y="0"/>
      <point x="231" y="0"/>
      <point x="374" y="0" type="curve"/>
      <point x="436" y="241"/>
      <point x="497" y="481"/>
      <point x="559" y="722" type="curve"/>
      <point x="417" y="722"/>
      <point x="559" y="722"/>
    </contour>
    <contour>
      <point x="39" y="722" type="curve"/>
      <point x="101" y="481"/>
      <point x="164" y="241"/>
      <point x="226" y="0" type="curve"/>
      <point x="370" y="0"/>
      <point x="211" y="0"/>
      <point x="355" y="0" type="curve"/>
      <point x="298" y="242"/>
      <point x="242" y="482"/>
      <point x="182" y="722" type="curve"/>
      <point x="39" y="722"/>
      <point x="182" y="722"/>
    </contour>
  </outline>
</glyph>
<glyph name="bracketleft" format="1">
  <advance width="274"/>
  <unicode hex="005B"/>
  <outline>
    <contour>
      <point x="232" y="769" type="curve"/>
      <point x="198" y="769"/>
      <point x="165" y="769"/>
      <point x="131" y="769" type="curve"/>
      <point x="116" y="769"/>
      <point x="79" y="769"/>
      <point x="64" y="769" type="curve"/>
      <point x="64" y="752"/>
      <point x="64" y="732"/>
      <point x="64" y="715" type="curve"/>
      <point x="64" y="456"/>
      <point x="64" y="199"/>
      <point x="64" y="-60" type="curve"/>
      <point x="64" y="-78"/>
      <point x="64" y="-88"/>
      <point x="64" y="-113" type="curve"/>
      <point x="79" y="-113"/>
      <point x="114" y="-113"/>
      <point x="130" y="-113" type="curve"/>
      <point x="164" y="-113"/>
      <point x="198" y="-113"/>
      <point x="232" y="-113" type="curve"/>
      <point x="232" y="8"/>
      <point x="232" y="-113"/>
      <point x="232" y="8" type="curve"/>
      <point x="198" y="8"/>
      <point x="164" y="8"/>
      <point x="130" y="8" type="curve"/>
      <point x="205" y="8"/>
      <point x="130" y="8"/>
      <point x="205" y="8" type="curve"/>
      <point x="205" y="-60"/>
      <point x="205" y="8"/>
      <point x="205" y="-60" type="curve"/>
      <point x="205" y="199"/>
      <point x="205" y="456"/>
      <point x="205" y="715" type="curve"/>
      <point x="205" y="649"/>
      <point x="205" y="715"/>
      <point x="205" y="649" type="curve"/>
      <point x="131" y="649"/>
      <point x="205" y="649"/>
      <point x="131" y="649" type="curve"/>
      <point x="165" y="649"/>
      <point x="198" y="649"/>
      <point x="232" y="649" type="curve"/>
      <point x="232" y="769"/>
      <point x="232" y="649"/>
    </contour>
  </outline>
</glyph>
<glyph name="backslash" format="1">
  <advance width="454"/>
  <unicode hex="005C"/>
  <outline>
    <contour>
      <point x="431" y="-68" type="curve"/>
      <point x="344" y="236"/>
      <point x="256" y="540"/>
      <point x="169" y="844" type="curve"/>
      <point x="23" y="844"/>
      <point x="169" y="844"/>
      <point x="23" y="844" type="curve"/>
      <point x="110" y="540"/>
      <point x="198" y="236"/>
      <point x="285" y="-68" type="curve"/>
      <point x="431" y="-68"/>
      <point x="285" y="-68"/>
    </contour>
  </outline>
</glyph>
<glyph name="underscore" format="1">
  <advance width="455"/>
  <unicode hex="005F"/>
  <outline>
    <contour>
      <point x="0" y="-183" type="curve"/>
      <point x="151" y="-183"/>
      <point x="304" y="-183"/>
      <point x="455" y="-183" type="curve"/>
      <point x="455" y="-73"/>
      <point x="455" y="-183"/>
      <point x="455" y="-73" type="curve"/>
      <point x="304" y="-73"/>
      <point x="151" y="-73"/>
      <point x="0" y="-73" type="curve"/>
      <point x="0" y="-183"/>
      <point x="0" y="-73"/>
    </contour>
  </outline>
</glyph>
<glyph name="i" format="1">
  <advance width="304"/>
  <unicode hex="0069"/>
  <outline>
    <contour>
      <point x="154" y="611" type="move" name="top"/>
    </contour>
    <contour>
      <point x="222" y="3" type="move" name="bottom"/>
    </contour>
    <contour>
      <point x="159" y="109" type="curve"/>
      <point x="31" y="109"/>
      <point x="155" y="109"/>
      <point x="26" y="109" type="curve"/>
      <point x="25" y="0"/>
      <point x="26" y="109"/>
      <point x="25" y="0" type="curve"/>
      <point x="68" y="0"/>
      <point x="116" y="0"/>
      <point x="159" y="0" type="curve"/>
      <point x="159" y="109"/>
      <point x="159" y="0"/>
    </contour>
    <contour>
      <point x="159" y="0" type="curve"/>
      <point x="200" y="0"/>
      <point x="243" y="0"/>
      <point x="285" y="0" type="curve"/>
      <point x="285" y="109"/>
      <point x="285" y="0"/>
      <point x="285" y="109" type="curve"/>
      <point x="162" y="109"/>
      <point x="282" y="109"/>
      <point x="159" y="109" type="curve"/>
      <point x="159" y="0"/>
      <point x="159" y="109"/>
    </contour>
    <contour>
      <point x="159" y="533" type="curve"/>
      <point x="116" y="533"/>
      <point x="68" y="533"/>
      <point x="26" y="533" type="curve"/>
      <point x="25" y="424"/>
      <point x="26" y="533"/>
      <point x="25" y="424" type="curve"/>
      <point x="155" y="424"/>
      <point x="30" y="424"/>
      <point x="159" y="424" type="curve"/>
      <point x="159" y="533"/>
      <point x="159" y="424"/>
    </contour>
    <contour>
      <point x="233" y="0" type="curve"/>
      <point x="233" y="178"/>
      <point x="233" y="355"/>
      <point x="233" y="533" type="curve"/>
      <point x="85" y="533"/>
      <point x="233" y="533"/>
      <point x="85" y="533" type="curve"/>
      <point x="85" y="355"/>
      <point x="85" y="178"/>
      <point x="85" y="0" type="curve"/>
      <point x="233" y="0"/>
      <point x="85" y="0"/>
    </contour>
    <contour>
      <point x="226" y="677" type="curve"/>
      <point x="226" y="724"/>
      <point x="195" y="748"/>
      <point x="154" y="748" type="curve"/>
      <point x="111" y="748"/>
      <point x="84" y="722"/>
      <point x="84" y="677" type="curve"/>
      <point x="226" y="677"/>
      <point x="84" y="677"/>
      <point x="226" y="677" type="curve"/>
      <point x="226" y="628"/>
      <point x="196" y="606"/>
      <point x="154" y="606" type="curve"/>
      <point x="110" y="606"/>
      <point x="84" y="630"/>
      <point x="84" y="677" type="curve"/>
      <point x="226" y="677"/>
      <point x="84" y="677"/>
    </contour>
  </outline>
</glyph>
<glyph name="l" format="1">
  <advance width="294"/>
  <unicode hex="006C"/>
  <outline>
    <contour>
      <point x="150" y="883" type="move" name="top"/>
    </contour>
    <contour>
      <point x="208" y="1" type="move" name="bottom"/>
    </contour>
    <contour>
      <point x="147" y="109" type="curve"/>
      <point x="18" y="109"/>
      <point x="147" y="109"/>
      <point x="18" y="109" type="curve"/>
      <point x="18" y="0"/>
      <point x="18" y="109"/>
      <point x="18" y="0" type="curve"/>
      <point x="61" y="0"/>
      <point x="104" y="0"/>
      <point x="147" y="0" type="curve"/>
      <point x="147" y="110"/>
      <point x="147" y="-1"/>
    </contour>
    <contour>
      <point x="149" y="800" type="curve"/>
      <point x="105" y="800"/>
      <point x="62" y="800"/>
      <point x="20" y="800" type="curve"/>
      <point x="19" y="691"/>
      <point x="20" y="800"/>
      <point x="19" y="691" type="curve"/>
      <point x="149" y="690"/>
      <point x="19" y="691"/>
      <point x="149" y="690" type="curve"/>
      <point x="149" y="799"/>
      <point x="149" y="691"/>
    </contour>
    <contour>
      <point x="147" y="0" type="curve"/>
      <point x="190" y="0"/>
      <point x="233" y="0"/>
      <point x="276" y="0" type="curve"/>
      <point x="276" y="109"/>
      <point x="276" y="0"/>
      <point x="276" y="109" type="curve"/>
      <point x="147" y="109"/>
      <point x="276" y="109"/>
      <point x="147" y="109" type="curve"/>
      <point x="147" y="-1"/>
      <point x="147" y="110"/>
    </contour>
    <contour>
      <point x="217" y="0" type="curve"/>
      <point x="217" y="267"/>
      <point x="217" y="533"/>
      <point x="217" y="800" type="curve"/>
      <point x="76" y="800"/>
      <point x="217" y="800"/>
      <point x="76" y="800" type="curve"/>
      <point x="76" y="533"/>
      <point x="76" y="267"/>
      <point x="76" y="0" type="curve"/>
      <point x="217" y="0"/>
      <point x="76" y="0"/>
    </contour>
  </outline>
</glyph>
<glyph name="p" format="1">
  <advance width="529"/>
  <unicode hex="0070"/>
  <outline>
    <contour>
      <point x="139" y="-190" type="curve"/>
      <point x="10" y="-190"/>
      <point x="134" y="-190"/>
      <point x="6" y="-190" type="curve"/>
      <point x="6" y="-300"/>
      <point x="6" y="-190"/>
      <point x="6" y="-300" type="curve"/>
      <point x="49" y="-300"/>
      <point x="96" y="-300"/>
      <point x="139" y="-300" type="curve"/>
      <point x="139" y="-190"/>
      <point x="139" y="-300"/>
    </contour>
    <contour>
      <point x="139" y="-300" type="curve"/>
      <point x="180" y="-300"/>
      <point x="225" y="-300"/>
      <point x="266" y="-300" type="curve"/>
      <point x="266" y="-190"/>
      <point x="266" y="-300"/>
      <point x="266" y="-190" type="curve"/>
      <point x="143" y="-190"/>
      <point x="261" y="-190"/>
      <point x="139" y="-190" type="curve"/>
      <point x="139" y="-300"/>
      <point x="139" y="-190"/>
    </contour>
    <contour>
      <point x="140" y="533" type="curve"/>
      <point x="97" y="533"/>
      <point x="50" y="533"/>
      <point x="7" y="533" type="curve"/>
      <point x="7" y="424"/>
      <point x="7" y="533"/>
      <point x="7" y="424" type="curve"/>
      <point x="135" y="424"/>
      <point x="11" y="424"/>
      <point x="140" y="424" type="curve"/>
      <point x="140" y="533"/>
      <point x="140" y="424"/>
    </contour>
    <contour>
      <point x="184" y="298" type="curve"/>
      <point x="190" y="355"/>
      <point x="227" y="424"/>
      <point x="270" y="424" type="curve"/>
      <point x="355" y="424"/>
      <point x="354" y="343"/>
      <point x="354" y="261" type="curve"/>
      <point x="355" y="182"/>
      <point x="353" y="104"/>
      <point x="276" y="104" type="curve"/>
      <point x="237" y="104"/>
      <point x="210" y="123"/>
      <point x="188" y="157" type="curve"/>
      <point x="137" y="91"/>
      <point x="194" y="166"/>
      <point x="143" y="100" type="curve"/>
      <point x="188" y="32"/>
      <point x="235" y="-5"/>
      <point x="309" y="-5" type="curve"/>
      <point x="452" y="-5"/>
      <point x="495" y="124"/>
      <point x="495" y="267" type="curve"/>
      <point x="495" y="408"/>
      <point x="453" y="539"/>
      <point x="306" y="539" type="curve"/>
      <point x="234" y="539"/>
      <point x="176" y="461"/>
      <point x="149" y="389" type="curve"/>
      <point x="185" y="289"/>
      <point x="148" y="398"/>
    </contour>
    <contour>
      <point x="210" y="-300" type="curve"/>
      <point x="210" y="-22"/>
      <point x="210" y="255"/>
      <point x="210" y="533" type="curve"/>
      <point x="69" y="533"/>
      <point x="210" y="533"/>
      <point x="69" y="533" type="curve"/>
      <point x="69" y="255"/>
      <point x="69" y="-22"/>
      <point x="69" y="-300" type="curve"/>
      <point x="210" y="-300"/>
      <point x="69" y="-300"/>
    </contour>
  </outline>
</glyph>
<glyph name="t" format="1">
  <advance width="302"/>
  <unicode hex="0074"/>
  <outline>
    <contour>
      <point x="242" y="6" type="move" name="bottom"/>
    </contour>
    <contour>
      <point x="12" y="422" type="curve"/>
      <point x="281" y="422" type="line"/>
      <point x="281" y="532"/>
      <point x="281" y="422"/>
      <point x="281" y="532" type="curve"/>
      <point x="12" y="532" type="line"/>
      <point x="12" y="422"/>
      <point x="12" y="532"/>
    </contour>
    <contour>
      <point x="232" y="124" type="curve"/>
      <point x="223" y="115"/>
      <point x="217" y="109"/>
      <point x="207" y="109" type="curve"/>
      <point x="178" y="109"/>
      <point x="185" y="141"/>
      <point x="185" y="175" type="curve"/>
      <point x="185" y="678" type="line"/>
      <point x="20" y="574"/>
      <point x="209" y="691"/>
      <point x="44" y="587" type="curve"/>
      <point x="44" y="170" type="line"/>
      <point x="44" y="62"/>
      <point x="88" y="-6"/>
      <point x="185" y="-6" type="curve"/>
      <point x="225" y="-6"/>
      <point x="253" y="8"/>
      <point x="292" y="32" type="curve"/>
      <point x="232" y="124"/>
      <point x="292" y="32"/>
    </contour>
  </outline>
</glyph>
<glyph name="v" format="1">
  <advance width="533"/>
  <unicode hex="0076"/>
  <outline>
    <contour>
      <point x="121" y="533" type="curve"/>
      <point x="86" y="533"/>
      <point x="53" y="533"/>
      <point x="19" y="533" type="curve"/>
      <point x="19" y="424"/>
      <point x="19" y="533"/>
      <point x="19" y="424" type="curve"/>
      <point x="121" y="424"/>
      <point x="19" y="424"/>
      <point x="121" y="424" type="curve"/>
      <point x="121" y="533"/>
      <point x="121" y="424"/>
    </contour>
    <contour>
      <point x="121" y="424" type="curve"/>
      <point x="254" y="424"/>
      <point x="121" y="424"/>
      <point x="254" y="424" type="curve"/>
      <point x="254" y="533"/>
      <point x="254" y="424"/>
      <point x="254" y="533" type="curve"/>
      <point x="211" y="533"/>
      <point x="166" y="533"/>
      <point x="121" y="533" type="curve"/>
      <point x="121" y="424"/>
      <point x="121" y="533"/>
    </contour>
    <contour>
      <point x="423" y="533" type="curve"/>
      <point x="379" y="533"/>
      <point x="334" y="533"/>
      <point x="291" y="533" type="curve"/>
      <point x="291" y="424"/>
      <point x="291" y="533"/>
      <point x="291" y="424" type="curve"/>
      <point x="423" y="424"/>
      <point x="291" y="424"/>
      <point x="423" y="424" type="curve"/>
      <point x="423" y="533"/>
      <point x="423" y="424"/>
    </contour>
    <contour>
      <point x="423" y="424" type="curve"/>
      <point x="525" y="424"/>
      <point x="423" y="424"/>
      <point x="525" y="424" type="curve"/>
      <point x="525" y="533"/>
      <point x="525" y="424"/>
      <point x="525" y="533" type="curve"/>
      <point x="491" y="533"/>
      <point x="457" y="533"/>
      <point x="423" y="533" type="curve"/>
      <point x="423" y="424"/>
      <point x="423" y="533"/>
    </contour>
    <contour>
      <point x="46" y="533" type="curve"/>
      <point x="93" y="355"/>
      <point x="139" y="178"/>
      <point x="185" y="0" type="curve"/>
      <point x="314" y="0"/>
      <point x="185" y="0"/>
      <point x="314" y="0" type="curve"/>
      <point x="269" y="177"/>
      <point x="234" y="356"/>
      <point x="189" y="533" type="curve"/>
      <point x="46" y="533"/>
      <point x="189" y="533"/>
    </contour>
    <contour>
      <point x="357" y="533" type="curve"/>
      <point x="222" y="0" type="line"/>
      <point x="352" y="0"/>
      <point x="222" y="0"/>
      <point x="352" y="0" type="curve"/>
      <point x="401" y="178"/>
      <point x="449" y="355"/>
      <point x="498" y="533" type="curve"/>
      <point x="357" y="533"/>
      <point x="498" y="533"/>
    </contour>
  </outline>
</glyph>
<glyph name="w" format="1">
  <advance width="728"/>
  <unicode hex="0077"/>
  <outline>
    <contour>
      <point x="604" y="424" type="curve"/>
      <point x="716" y="424"/>
      <point x="604" y="424"/>
      <point x="716" y="424" type="curve"/>
      <point x="716" y="533"/>
      <point x="716" y="424"/>
      <point x="716" y="533" type="curve"/>
      <point x="679" y="533"/>
      <point x="640" y="533"/>
      <point x="604" y="533" type="curve"/>
      <point x="604" y="424"/>
      <point x="604" y="533"/>
    </contour>
    <contour>
      <point x="604" y="533" type="curve"/>
      <point x="565" y="533"/>
      <point x="524" y="533"/>
      <point x="486" y="533" type="curve"/>
      <point x="486" y="424"/>
      <point x="486" y="533"/>
      <point x="486" y="424" type="curve"/>
      <point x="604" y="424"/>
      <point x="486" y="424"/>
      <point x="604" y="424" type="curve"/>
      <point x="604" y="533"/>
      <point x="604" y="424"/>
    </contour>
    <contour>
      <point x="128" y="533" type="curve"/>
      <point x="91" y="533"/>
      <point x="52" y="533"/>
      <point x="15" y="533" type="curve"/>
      <point x="15" y="424"/>
      <point x="15" y="533"/>
      <point x="15" y="424" type="curve"/>
      <point x="128" y="424"/>
      <point x="15" y="424"/>
      <point x="128" y="424" type="curve"/>
      <point x="128" y="533"/>
      <point x="128" y="424"/>
    </contour>
    <contour>
      <point x="128" y="424" type="curve"/>
      <point x="239" y="424"/>
      <point x="128" y="424"/>
      <point x="239" y="424" type="curve"/>
      <point x="239" y="533"/>
      <point x="239" y="424"/>
      <point x="239" y="533" type="curve"/>
      <point x="202" y="533"/>
      <point x="164" y="533"/>
      <point x="128" y="533" type="curve"/>
      <point x="128" y="424"/>
      <point x="128" y="533"/>
    </contour>
    <contour>
      <point x="291" y="0" type="curve"/>
      <point x="337" y="178"/>
      <point x="382" y="355"/>
      <point x="426" y="533" type="curve"/>
      <point x="309" y="533"/>
      <point x="426" y="533"/>
      <point x="309" y="533" type="curve"/>
      <point x="265" y="355"/>
      <point x="220" y="178"/>
      <point x="176" y="0" type="curve"/>
      <point x="291" y="0"/>
      <point x="176" y="0"/>
    </contour>
    <contour>
      <point x="561" y="533" type="curve"/>
      <point x="519" y="355"/>
      <point x="477" y="178"/>
      <point x="437" y="0" type="curve"/>
      <point x="551" y="0"/>
      <point x="437" y="0"/>
      <point x="551" y="0" type="curve"/>
      <point x="594" y="178"/>
      <point x="636" y="355"/>
      <point x="678" y="533" type="curve"/>
      <point x="561" y="533"/>
      <point x="678" y="533"/>
    </contour>
    <contour>
      <point x="314" y="533" type="curve"/>
      <point x="354" y="355"/>
      <point x="395" y="178"/>
      <point x="436" y="0" type="curve"/>
      <point x="551" y="0"/>
      <point x="436" y="0"/>
      <point x="551" y="0" type="curve"/>
      <point x="511" y="178"/>
      <point x="470" y="355"/>
      <point x="430" y="533" type="curve"/>
      <point x="314" y="533"/>
      <point x="430" y="533"/>
    </contour>
    <contour>
      <point x="54" y="533" type="curve"/>
      <point x="94" y="355"/>
      <point x="135" y="178"/>
      <point x="176" y="0" type="curve"/>
      <point x="290" y="0"/>
      <point x="176" y="0"/>
      <point x="290" y="0" type="curve"/>
      <point x="250" y="178"/>
      <point x="210" y="355"/>
      <point x="170" y="533" type="curve"/>
      <point x="54" y="533"/>
      <point x="170" y="533"/>
    </contour>
  </outline>
</glyph>
<glyph name="braceright" format="1">
  <advance width="231"/>
  <unicode hex="007D"/>
  <outline>
    <contour>
      <point x="44" y="-108" type="curve"/>
      <point x="139" y="-108"/>
      <point x="186" y="-32"/>
      <point x="186" y="72" type="curve"/>
      <point x="186" y="124"/>
      <point x="186" y="177"/>
      <point x="186" y="230" type="curve"/>
      <point x="186" y="255"/>
      <point x="177" y="283"/>
      <point x="198" y="283" type="curve"/>
      <point x="198" y="398"/>
      <point x="198" y="283"/>
      <point x="198" y="398" type="curve"/>
      <point x="104" y="398"/>
      <point x="58" y="320"/>
      <point x="58" y="219" type="curve"/>
      <point x="58" y="168"/>
      <point x="58" y="117"/>
      <point x="58" y="66" type="curve"/>
      <point x="58" y="35"/>
      <point x="70" y="1"/>
      <point x="44" y="1" type="curve"/>
      <point x="44" y="-108"/>
      <point x="44" y="1"/>
    </contour>
    <contour>
      <point x="44" y="680" type="curve"/>
      <point x="71" y="680"/>
      <point x="58" y="646"/>
      <point x="58" y="614" type="curve"/>
      <point x="58" y="564"/>
      <point x="58" y="515"/>
      <point x="58" y="466" type="curve"/>
      <point x="58" y="362"/>
      <point x="103" y="283"/>
      <point x="198" y="283" type="curve"/>
      <point x="198" y="398"/>
      <point x="198" y="283"/>
      <point x="198" y="398" type="curve"/>
      <point x="178" y="398"/>
      <point x="186" y="425"/>
      <point x="186" y="449" type="curve"/>
      <point x="186" y="504"/>
      <point x="186" y="559"/>
      <point x="186" y="614" type="curve"/>
      <point x="186" y="716"/>
      <point x="139" y="790"/>
      <point x="44" y="790" type="curve"/>
      <point x="44" y="680"/>
      <point x="44" y="790"/>
    </contour>
  </outline>
</glyph>
<glyph name="asciitilde" format="1">
  <advance width="549"/>
  <unicode hex="007E"/>
  <outline>
    <contour>
      <point x="387" y="380" type="curve"/>
      <point x="378" y="345"/>
      <point x="364" y="311"/>
      <point x="350" y="311" type="curve"/>
      <point x="337" y="311"/>
      <point x="331" y="317"/>
      <point x="324" y="328" type="curve"/>
      <point x="287" y="370"/>
      <point x="259" y="393"/>
      <point x="203" y="393" type="curve"/>
      <point x="111" y="393"/>
      <point x="71" y="335"/>
      <point x="52" y="241" type="curve"/>
      <point x="98" y="227"/>
      <point x="122" y="218"/>
      <point x="168" y="204" type="curve"/>
      <point x="174" y="240"/>
      <point x="185" y="274"/>
      <point x="202" y="274" type="curve"/>
      <point x="217" y="274"/>
      <point x="224" y="267"/>
      <point x="234" y="256" type="curve"/>
      <point x="271" y="213"/>
      <point x="299" y="193"/>
      <point x="354" y="192" type="curve"/>
      <point x="444" y="192"/>
      <point x="475" y="255"/>
      <point x="498" y="347" type="curve"/>
      <point x="455" y="360"/>
      <point x="430" y="367"/>
    </contour>
  </outline>
</glyph>
<glyph name="cent" format="1">
  <advance width="523"/>
  <unicode hex="00A2"/>
  <outline>
    <contour>
      <point x="350" y="-53" type="curve"/>
      <point x="350" y="-13"/>
      <point x="350" y="27"/>
      <point x="350" y="67" type="curve"/>
      <point x="210" y="67"/>
      <point x="350" y="67"/>
      <point x="210" y="67" type="curve"/>
      <point x="210" y="27"/>
      <point x="210" y="-13"/>
      <point x="210" y="-53" type="curve"/>
      <point x="350" y="-53"/>
      <point x="210" y="-53"/>
    </contour>
    <contour>
      <point x="224" y="778" type="curve"/>
      <point x="224" y="742"/>
      <point x="224" y="706"/>
      <point x="224" y="670" type="curve"/>
      <point x="364" y="670"/>
      <point x="224" y="670"/>
      <point x="364" y="670" type="curve"/>
      <point x="364" y="706"/>
      <point x="364" y="742"/>
      <point x="364" y="778" type="curve"/>
      <point x="224" y="778"/>
      <point x="364" y="778"/>
    </contour>
    <contour>
      <point x="477" y="609" type="curve"/>
      <point x="422" y="667"/>
      <point x="373" y="687"/>
      <point x="302" y="687" type="curve"/>
      <point x="131" y="687"/>
      <point x="42" y="548"/>
      <point x="42" y="363" type="curve"/>
      <point x="42" y="185"/>
      <point x="113" y="45"/>
      <point x="274" y="45" type="curve"/>
      <point x="359" y="45"/>
      <point x="419" y="71"/>
      <point x="472" y="148" type="curve"/>
      <point x="385" y="226"/>
      <point x="472" y="148"/>
      <point x="385" y="226" type="curve"/>
      <point x="357" y="192"/>
      <point x="333" y="160"/>
      <point x="286" y="160" type="curve"/>
      <point x="201" y="160"/>
      <point x="183" y="259"/>
      <point x="183" y="369" type="curve"/>
      <point x="183" y="476"/>
      <point x="211" y="572"/>
      <point x="290" y="572" type="curve"/>
      <point x="335" y="572"/>
      <point x="364" y="553"/>
      <point x="394" y="520" type="curve"/>
      <point x="477" y="609"/>
      <point x="394" y="520"/>
    </contour>
    <contour>
      <point x="366" y="609" type="curve"/>
      <point x="366" y="490"/>
      <point x="366" y="590"/>
      <point x="366" y="472" type="curve"/>
      <point x="477" y="472"/>
      <point x="366" y="472"/>
      <point x="477" y="472" type="curve"/>
      <point x="477" y="590"/>
      <point x="477" y="490"/>
      <point x="477" y="609" type="curve"/>
      <point x="366" y="609"/>
      <point x="477" y="609"/>
    </contour>
  </outline>
</glyph>
<glyph name="copyright" format="1">
  <advance width="611"/>
  <unicode hex="00A9"/>
  <outline>
    <contour>
      <point x="158" y="324" type="curve"/>
      <point x="158" y="447"/>
      <point x="202" y="557"/>
      <point x="309" y="557" type="curve"/>
      <point x="414" y="557"/>
      <point x="457" y="445"/>
      <point x="457" y="322" type="curve"/>
      <point x="457" y="204"/>
      <point x="417" y="93"/>
      <point x="316" y="93" type="curve"/>
      <point x="209" y="93"/>
      <point x="158" y="202"/>
      <point x="158" y="324" type="curve"/>
      <point x="45" y="324"/>
      <point x="161" y="324"/>
      <point x="48" y="324" type="curve"/>
      <point x="48" y="148"/>
      <point x="145" y="6"/>
      <point x="311" y="6" type="curve"/>
      <point x="473" y="6"/>
      <point x="564" y="150"/>
      <point x="564" y="326" type="curve"/>
      <point x="564" y="502"/>
      <point x="471" y="645"/>
      <point x="309" y="645" type="curve"/>
      <point x="144" y="645"/>
      <point x="48" y="502"/>
      <point x="48" y="324" type="curve"/>
      <point x="161" y="324"/>
      <point x="45" y="324"/>
    </contour>
    <contour>
      <point x="331" y="418" type="curve"/>
      <point x="331" y="408"/>
      <point x="331" y="382"/>
      <point x="331" y="367" type="curve"/>
      <point x="433" y="367"/>
      <point x="331" y="367"/>
      <point x="433" y="367" type="curve"/>
      <point x="433" y="398"/>
      <point x="433" y="440"/>
      <point x="433" y="461" type="curve"/>
      <point x="331" y="417"/>
      <point x="433" y="462"/>
    </contour>
    <contour>
      <point x="433" y="461" type="curve"/>
      <point x="402" y="500"/>
      <point x="363" y="513"/>
      <point x="316" y="513" type="curve"/>
      <point x="212" y="513"/>
      <point x="167" y="433"/>
      <point x="167" y="323" type="curve"/>
      <point x="167" y="217"/>
      <point x="205" y="138"/>
      <point x="303" y="138" type="curve"/>
      <point x="355" y="138"/>
      <point x="393" y="148"/>
      <point x="427" y="209" type="curve"/>
      <point x="354" y="256"/>
      <point x="427" y="209"/>
      <point x="354" y="256" type="curve"/>
      <point x="342" y="239"/>
      <point x="331" y="226"/>
      <point x="308" y="226" type="curve"/>
      <point x="267" y="226"/>
      <point x="269" y="276"/>
      <point x="269" y="327" type="curve"/>
      <point x="269" y="378"/>
      <point x="269" y="426"/>
      <point x="311" y="426" type="curve"/>
      <point x="319" y="426"/>
      <point x="326" y="424"/>
      <point x="331" y="418" type="curve"/>
      <point x="433" y="462"/>
      <point x="331" y="417"/>
    </contour>
  </outline>
</glyph>
<glyph name="logicalnot" format="1">
  <advance width="467"/>
  <unicode hex="00AC"/>
  <outline>
    <contour>
      <point x="64" y="256" type="curve"/>
      <point x="406" y="256" type="line"/>
      <point x="406" y="376"/>
      <point x="406" y="256"/>
      <point x="406" y="376" type="curve"/>
      <point x="64" y="376" type="line"/>
      <point x="64" y="256"/>
      <point x="64" y="376"/>
    </contour>
    <contour>
      <point x="406" y="138" type="curve"/>
      <point x="406" y="376" type="line"/>
      <point x="265" y="376"/>
      <point x="405" y="376"/>
      <point x="265" y="376" type="curve"/>
      <point x="265" y="138" type="line"/>
      <point x="405" y="138"/>
      <point x="265" y="138"/>
    </contour>
  </outline>
</glyph>
<glyph name="registered" format="1">
  <advance width="636"/>
  <unicode hex="00AE"/>
  <outline>
    <contour>
      <point x="139" y="322" type="curve"/>
      <point x="139" y="459"/>
      <point x="196" y="564"/>
      <point x="320" y="564" type="curve"/>
      <point x="444" y="564"/>
      <point x="497" y="457"/>
      <point x="497" y="320" type="curve"/>
      <point x="497" y="186"/>
      <point x="446" y="81"/>
      <point x="327" y="81" type="curve"/>
      <point x="201" y="81"/>
      <point x="139" y="185"/>
      <point x="139" y="322" type="curve"/>
      <point x="106" y="322"/>
      <point x="82" y="322"/>
      <point x="48" y="322" type="curve"/>
      <point x="48" y="136"/>
      <point x="145" y="4"/>
      <point x="322" y="4" type="curve"/>
      <point x="497" y="4"/>
      <point x="587" y="138"/>
      <point x="587" y="324" type="curve"/>
      <point x="587" y="509"/>
      <point x="495" y="643"/>
      <point x="320" y="643" type="curve"/>
      <point x="143" y="643"/>
      <point x="48" y="509"/>
      <point x="48" y="322" type="curve"/>
      <point x="82" y="322"/>
      <point x="106" y="322"/>
    </contour>
    <contour>
      <point x="377" y="141" type="curve"/>
      <point x="407" y="141"/>
      <point x="410" y="141"/>
      <point x="440" y="141" type="curve"/>
      <point x="440" y="228"/>
      <point x="440" y="141"/>
      <point x="440" y="228" type="curve"/>
      <point x="436" y="228"/>
      <point x="435" y="228"/>
      <point x="431" y="228" type="curve"/>
      <point x="394" y="272"/>
      <point x="364" y="257"/>
    </contour>
    <contour>
      <point x="324" y="509" type="curve"/>
      <point x="285" y="509"/>
      <point x="244" y="509"/>
      <point x="204" y="509" type="curve"/>
      <point x="204" y="420"/>
      <point x="204" y="509"/>
      <point x="204" y="420" type="curve"/>
      <point x="206" y="420"/>
      <point x="211" y="420"/>
      <point x="213" y="420" type="curve"/>
      <point x="324" y="509"/>
      <point x="213" y="420"/>
    </contour>
    <contour>
      <point x="324" y="228" type="curve"/>
      <point x="285" y="228"/>
      <point x="244" y="228"/>
      <point x="204" y="228" type="curve"/>
      <point x="204" y="141"/>
      <point x="204" y="228"/>
      <point x="204" y="141" type="curve"/>
      <point x="206" y="141"/>
      <point x="211" y="141"/>
      <point x="213" y="141" type="curve"/>
      <point x="324" y="228"/>
      <point x="213" y="141"/>
    </contour>
    <contour>
      <point x="213" y="141" type="curve"/>
      <point x="250" y="141"/>
      <point x="288" y="141"/>
      <point x="326" y="141" type="curve"/>
      <point x="326" y="228"/>
      <point x="326" y="141"/>
      <point x="326" y="228" type="curve"/>
      <point x="327" y="228"/>
      <point x="324" y="228"/>
      <point x="324" y="228" type="curve"/>
      <point x="213" y="141"/>
      <point x="324" y="228"/>
    </contour>
    <contour>
      <point x="292" y="322" type="curve"/>
      <point x="285" y="330"/>
      <point x="384" y="132"/>
      <point x="377" y="141" type="curve"/>
      <point x="439" y="163"/>
      <point x="438" y="177"/>
      <point x="431" y="228" type="curve"/>
      <point x="388" y="313" type="line"/>
      <point x="249" y="313"/>
      <point x="430" y="322"/>
    </contour>
    <contour>
      <point x="310" y="228" type="curve"/>
      <point x="310" y="321"/>
      <point x="310" y="416"/>
      <point x="310" y="509" type="curve"/>
      <point x="199" y="420"/>
      <point x="324" y="509"/>
      <point x="213" y="420" type="curve"/>
      <point x="213" y="327"/>
      <point x="213" y="234"/>
      <point x="213" y="141" type="curve"/>
      <point x="324" y="228"/>
      <point x="199" y="141"/>
    </contour>
    <contour>
      <point x="270" y="269" type="curve"/>
      <point x="282" y="269"/>
      <point x="294" y="269"/>
      <point x="305" y="269" type="curve"/>
      <point x="386" y="269"/>
      <point x="436" y="310"/>
      <point x="436" y="392" type="curve"/>
      <point x="436" y="462"/>
      <point x="394" y="509"/>
      <point x="326" y="509" type="curve"/>
      <point x="326" y="509"/>
      <point x="325" y="509"/>
      <point x="324" y="509" type="curve"/>
      <point x="213" y="420"/>
      <point x="324" y="509"/>
      <point x="213" y="420" type="curve"/>
      <point x="243" y="420"/>
      <point x="275" y="420"/>
      <point x="306" y="420" type="curve"/>
      <point x="326" y="420"/>
      <point x="341" y="409"/>
      <point x="341" y="388" type="curve"/>
      <point x="341" y="372"/>
      <point x="336" y="357"/>
      <point x="321" y="357" type="curve"/>
      <point x="304" y="357"/>
      <point x="286" y="357"/>
      <point x="270" y="357" type="curve"/>
      <point x="270" y="269"/>
      <point x="270" y="357"/>
    </contour>
  </outline>
</glyph>
<glyph name="macron" format="1">
  <advance width="218"/>
  <unicode hex="00AF"/>
  <outline>
    <contour>
      <point x="106" y="580" type="move" name="_top"/>
    </contour>
    <contour>
      <point x="181" y="689" type="curve"/>
      <point x="132" y="689"/>
      <point x="81" y="689"/>
      <point x="31" y="689" type="curve"/>
      <point x="31" y="580"/>
      <point x="31" y="689"/>
      <point x="31" y="580" type="curve"/>
      <point x="81" y="580"/>
      <point x="132" y="580"/>
      <point x="181" y="580" type="curve"/>
      <point x="181" y="689"/>
      <point x="181" y="580"/>
    </contour>
  </outline>
</glyph>
<glyph name="paragraph" format="1">
  <advance width="682"/>
  <unicode hex="00B6"/>
  <outline>
    <contour>
      <point x="345" y="613" type="curve"/>
      <point x="473" y="613"/>
      <point x="345" y="613"/>
      <point x="473" y="613" type="curve"/>
      <point x="473" y="722"/>
      <point x="473" y="613"/>
      <point x="473" y="722" type="curve"/>
      <point x="430" y="722"/>
      <point x="387" y="722"/>
      <point x="345" y="722" type="curve"/>
      <point x="345" y="613"/>
      <point x="345" y="722"/>
    </contour>
    <contour>
      <point x="345" y="0" type="curve"/>
      <point x="387" y="0"/>
      <point x="430" y="0"/>
      <point x="473" y="0" type="curve"/>
      <point x="473" y="109"/>
      <point x="473" y="0"/>
      <point x="473" y="109" type="curve"/>
      <point x="345" y="109"/>
      <point x="473" y="109"/>
      <point x="345" y="109" type="curve"/>
      <point x="345" y="0"/>
      <point x="345" y="109"/>
    </contour>
    <contour>
      <point x="345" y="109" type="curve"/>
      <point x="215" y="109"/>
      <point x="345" y="109"/>
      <point x="215" y="109" type="curve"/>
      <point x="215" y="0"/>
      <point x="215" y="109"/>
      <point x="215" y="0" type="curve"/>
      <point x="345" y="0"/>
      <point x="301" y="0"/>
      <point x="345" y="0" type="curve"/>
      <point x="345" y="109"/>
      <point x="345" y="0"/>
    </contour>
    <contour>
      <point x="321" y="389" type="curve"/>
      <point x="292" y="369"/>
      <point x="269" y="357"/>
      <point x="234" y="357" type="curve"/>
      <point x="184" y="357"/>
      <point x="173" y="412"/>
      <point x="173" y="474" type="curve"/>
      <point x="173" y="548"/>
      <point x="202" y="613"/>
      <point x="267" y="613" type="curve"/>
      <point x="293" y="613"/>
      <point x="317" y="613"/>
      <point x="342" y="613" type="curve"/>
      <point x="342" y="722"/>
      <point x="342" y="613"/>
      <point x="342" y="722" type="curve"/>
      <point x="312" y="722"/>
      <point x="280" y="722"/>
      <point x="249" y="722" type="curve"/>
      <point x="113" y="722"/>
      <point x="33" y="619"/>
      <point x="33" y="479" type="curve"/>
      <point x="33" y="344"/>
      <point x="113" y="255"/>
      <point x="246" y="254" type="curve"/>
      <point x="292" y="254"/>
      <point x="328" y="275"/>
      <point x="365" y="300" type="curve"/>
      <point x="321" y="389"/>
      <point x="364" y="303"/>
    </contour>
    <contour>
      <point x="415" y="0" type="curve"/>
      <point x="415" y="241"/>
      <point x="415" y="481"/>
      <point x="415" y="722" type="curve"/>
      <point x="275" y="722"/>
      <point x="415" y="722"/>
      <point x="275" y="722" type="curve"/>
      <point x="275" y="481"/>
      <point x="275" y="241"/>
      <point x="275" y="0" type="curve"/>
      <point x="415" y="0"/>
      <point x="275" y="0"/>
    </contour>
    <contour>
      <point x="610" y="0" type="curve"/>
      <point x="610" y="241"/>
      <point x="610" y="481"/>
      <point x="610" y="722" type="curve"/>
      <point x="470" y="722"/>
      <point x="610" y="722"/>
      <point x="470" y="722" type="curve"/>
      <point x="470" y="481"/>
      <point x="470" y="241"/>
      <point x="470" y="0" type="curve"/>
      <point x="610" y="0"/>
      <point x="470" y="0"/>
    </contour>
  </outline>
</glyph>
<glyph name="periodcentered" format="1">
  <advance width="239"/>
  <unicode hex="00B7"/>
  <outline>
    <contour>
      <point x="190" y="440" type="curve"/>
      <point x="190" y="487"/>
      <point x="160" y="511"/>
      <point x="118" y="511" type="curve"/>
      <point x="76" y="511"/>
      <point x="48" y="486"/>
      <point x="48" y="440" type="curve"/>
      <point x="190" y="440"/>
      <point x="48" y="440"/>
      <point x="190" y="440" type="curve"/>
      <point x="190" y="392"/>
      <point x="162" y="370"/>
      <point x="118" y="370" type="curve"/>
      <point x="76" y="370"/>
      <point x="48" y="393"/>
      <point x="48" y="440" type="curve"/>
      <point x="190" y="440"/>
      <point x="48" y="440"/>
    </contour>
  </outline>
</glyph>
<glyph name="Atilde" format="1">
  <advance width="627"/>
  <unicode hex="00C3"/>
  <outline>
    <contour>
      <point x="124" y="109" type="curve"/>
      <point x="-14" y="109"/>
      <point x="136" y="109"/>
      <point x="-3" y="109" type="curve"/>
      <point x="-3" y="0"/>
      <point x="-3" y="109"/>
      <point x="-3" y="0" type="curve"/>
      <point x="43" y="0"/>
      <point x="78" y="0"/>
      <point x="123" y="0" type="curve"/>
      <point x="124" y="109"/>
      <point x="123" y="0"/>
    </contour>
    <contour>
      <point x="124" y="0" type="curve"/>
      <point x="179" y="0"/>
      <point x="124" y="0"/>
      <point x="288" y="0" type="curve"/>
      <point x="288" y="109"/>
      <point x="288" y="0"/>
      <point x="288" y="109" type="curve"/>
      <point x="124" y="109"/>
      <point x="288" y="109"/>
      <point x="124" y="109" type="curve"/>
      <point x="124" y="0"/>
      <point x="124" y="109"/>
    </contour>
    <contour>
      <point x="489" y="0" type="curve"/>
      <point x="534" y="0"/>
      <point x="569" y="0"/>
      <point x="615" y="0" type="curve"/>
      <point x="615" y="109"/>
      <point x="615" y="0"/>
      <point x="615" y="109" type="curve"/>
      <point x="478" y="109"/>
      <point x="627" y="109"/>
      <point x="489" y="109" type="curve"/>
      <point x="489" y="0"/>
      <point x="489" y="109"/>
    </contour>
    <contour>
      <point x="489" y="109" type="curve"/>
      <point x="324" y="109"/>
      <point x="489" y="109"/>
      <point x="324" y="109" type="curve"/>
      <point x="324" y="0"/>
      <point x="324" y="109"/>
      <point x="324" y="0" type="curve"/>
      <point x="379" y="0"/>
      <point x="433" y="0"/>
      <point x="489" y="0" type="curve"/>
      <point x="489" y="109"/>
      <point x="489" y="0"/>
    </contour>
    <contour>
      <point x="409" y="291" type="curve"/>
      <point x="346" y="291"/>
      <point x="283" y="291"/>
      <point x="220" y="291" type="curve"/>
      <point x="162" y="174"/>
      <point x="220" y="291"/>
      <point x="162" y="174" type="curve"/>
      <point x="259" y="174"/>
      <point x="357" y="174"/>
      <point x="454" y="174" type="curve"/>
      <point x="409" y="291"/>
      <point x="454" y="174"/>
    </contour>
    <contour>
      <point x="570" y="0" type="curve"/>
      <point x="509" y="241"/>
      <point x="442" y="481"/>
      <point x="381" y="722" type="curve"/>
      <point x="253" y="722"/>
      <point x="381" y="722"/>
      <point x="253" y="722" type="curve"/>
      <point x="312" y="482"/>
      <point x="364" y="240"/>
      <point x="424" y="0" type="curve"/>
      <point x="570" y="0"/>
      <point x="424" y="0"/>
    </contour>
    <contour>
      <point x="193" y="0" type="curve"/>
      <point x="259" y="240"/>
      <point x="313" y="482"/>
      <point x="380" y="722" type="curve"/>
      <point x="253" y="722"/>
      <point x="380" y="722"/>
      <point x="253" y="722" type="curve"/>
      <point x="185" y="480"/>
      <point x="106" y="242"/>
      <point x="40" y="0" type="curve"/>
      <point x="193" y="0"/>
      <point x="40" y="0"/>
    </contour>
    <contour>
      <point x="397" y="974" type="curve"/>
      <point x="378" y="939"/>
      <point x="367" y="938"/>
      <point x="356" y="938" type="curve"/>
      <point x="333" y="938"/>
      <point x="322" y="943"/>
      <point x="306" y="956" type="curve" smooth="yes"/>
      <point x="283" y="974"/>
      <point x="273" y="981"/>
      <point x="248" y="981" type="curve"/>
      <point x="183" y="981"/>
      <point x="150" y="908"/>
      <point x="131" y="849" type="curve"/>
      <point x="234" y="787"/>
      <point x="131" y="850"/>
      <point x="234" y="787" type="curve"/>
      <point x="254" y="826"/>
      <point x="270" y="829"/>
      <point x="286" y="829" type="curve"/>
      <point x="304" y="829"/>
      <point x="312" y="824"/>
      <point x="324" y="813" type="curve" smooth="yes"/>
      <point x="351" y="791"/>
      <point x="365" y="780"/>
      <point x="396" y="780" type="curve"/>
      <point x="461" y="780"/>
      <point x="482" y="847"/>
      <point x="508" y="914" type="curve"/>
      <point x="397" y="974"/>
      <point x="508" y="913"/>
    </contour>
  </outline>
</glyph>
<glyph name="Aring" format="1">
  <advance width="627"/>
  <unicode hex="00C5"/>
  <outline>
    <contour>
      <point x="124" y="109" type="curve"/>
      <point x="-14" y="109"/>
      <point x="136" y="109"/>
      <point x="-3" y="109" type="curve"/>
      <point x="-3" y="0"/>
      <point x="-3" y="109"/>
      <point x="-3" y="0" type="curve"/>
      <point x="43" y="0"/>
      <point x="78" y="0"/>
      <point x="123" y="0" type="curve"/>
      <point x="124" y="109"/>
      <point x="123" y="0"/>
    </contour>
    <contour>
      <point x="124" y="0" type="curve"/>
      <point x="179" y="0"/>
      <point x="124" y="0"/>
      <point x="288" y="0" type="curve"/>
      <point x="288" y="109"/>
      <point x="288" y="0"/>
      <point x="288" y="109" type="curve"/>
      <point x="124" y="109"/>
      <point x="288" y="109"/>
      <point x="124" y="109" type="curve"/>
      <point x="124" y="0"/>
      <point x="124" y="109"/>
    </contour>
    <contour>
      <point x="489" y="0" type="curve"/>
      <point x="534" y="0"/>
      <point x="569" y="0"/>
      <point x="615" y="0" type="curve"/>
      <point x="615" y="109"/>
      <point x="615" y="0"/>
      <point x="615" y="109" type="curve"/>
      <point x="478" y="109"/>
      <point x="627" y="109"/>
      <point x="489" y="109" type="curve"/>
      <point x="489" y="0"/>
      <point x="489" y="109"/>
    </contour>
    <contour>
      <point x="489" y="109" type="curve"/>
      <point x="324" y="109"/>
      <point x="489" y="109"/>
      <point x="324" y="109" type="curve"/>
      <point x="324" y="0"/>
      <point x="324" y="109"/>
      <point x="324" y="0" type="curve"/>
      <point x="379" y="0"/>
      <point x="433" y="0"/>
      <point x="489" y="0" type="curve"/>
      <point x="489" y="109"/>
      <point x="489" y="0"/>
    </contour>
    <contour>
      <point x="409" y="291" type="curve"/>
      <point x="346" y="291"/>
      <point x="283" y="291"/>
      <point x="220" y="291" type="curve"/>
      <point x="162" y="174"/>
      <point x="220" y="291"/>
      <point x="162" y="174" type="curve"/>
      <point x="259" y="174"/>
      <point x="357" y="174"/>
      <point x="454" y="174" type="curve"/>
      <point x="409" y="291"/>
      <point x="454" y="174"/>
    </contour>
    <contour>
      <point x="570" y="0" type="curve"/>
      <point x="509" y="241"/>
      <point x="442" y="481"/>
      <point x="381" y="722" type="curve"/>
      <point x="253" y="722"/>
      <point x="381" y="722"/>
      <point x="253" y="722" type="curve"/>
      <point x="312" y="482"/>
      <point x="364" y="240"/>
      <point x="424" y="0" type="curve"/>
      <point x="570" y="0"/>
      <point x="424" y="0"/>
    </contour>
    <contour>
      <point x="193" y="0" type="curve"/>
      <point x="259" y="240"/>
      <point x="313" y="482"/>
      <point x="380" y="722" type="curve"/>
      <point x="253" y="722"/>
      <point x="380" y="722"/>
      <point x="253" y="722" type="curve"/>
      <point x="185" y="480"/>
      <point x="106" y="242"/>
      <point x="40" y="0" type="curve"/>
      <point x="193" y="0"/>
      <point x="40" y="0"/>
    </contour>
    <contour>
      <point x="176" y="926" type="curve"/>
      <point x="176" y="838"/>
      <point x="227" y="778"/>
      <point x="312" y="778" type="curve"/>
      <point x="397" y="778"/>
      <point x="447" y="837"/>
      <point x="447" y="926" type="curve"/>
      <point x="447" y="1013"/>
      <point x="396" y="1073"/>
      <point x="310" y="1073" type="curve"/>
      <point x="225" y="1073"/>
      <point x="176" y="1012"/>
      <point x="176" y="926" type="curve"/>
      <point x="301" y="926"/>
      <point x="163" y="926"/>
      <point x="288" y="926" type="curve"/>
      <point x="288" y="945"/>
      <point x="283" y="972"/>
      <point x="310" y="972" type="curve"/>
      <point x="333" y="972"/>
      <point x="330" y="945"/>
      <point x="330" y="926" type="curve"/>
      <point x="330" y="906"/>
      <point x="335" y="880"/>
      <point x="312" y="880" type="curve"/>
      <point x="286" y="880"/>
      <point x="288" y="906"/>
      <point x="288" y="926" type="curve"/>
      <point x="163" y="926"/>
      <point x="301" y="926"/>
    </contour>
  </outline>
</glyph>
<glyph name="AE" format="1">
  <advance width="761"/>
  <unicode hex="00C6"/>
  <outline>
    <contour>
      <point x="109" y="109" type="curve"/>
      <point x="2" y="109"/>
      <point x="109" y="109"/>
      <point x="2" y="109" type="curve"/>
      <point x="2" y="0"/>
      <point x="2" y="109"/>
      <point x="2" y="0" type="curve"/>
      <point x="38" y="0"/>
      <point x="72" y="0"/>
      <point x="108" y="0" type="curve"/>
      <point x="109" y="109"/>
      <point x="108" y="0"/>
    </contour>
    <contour>
      <point x="109" y="0" type="curve"/>
      <point x="159" y="0"/>
      <point x="109" y="0"/>
      <point x="262" y="0" type="curve"/>
      <point x="262" y="109"/>
      <point x="262" y="0"/>
      <point x="262" y="109" type="curve"/>
      <point x="109" y="109"/>
      <point x="262" y="109"/>
      <point x="109" y="109" type="curve"/>
      <point x="109" y="0"/>
      <point x="109" y="109"/>
    </contour>
    <contour>
      <point x="406" y="274" type="curve"/>
      <point x="343" y="274"/>
      <point x="268" y="274"/>
      <point x="205" y="274" type="curve"/>
      <point x="147" y="158"/>
      <point x="205" y="274"/>
      <point x="147" y="158" type="curve"/>
      <point x="244" y="158"/>
      <point x="354" y="158"/>
      <point x="451" y="158" type="curve"/>
      <point x="406" y="274"/>
      <point x="451" y="158"/>
    </contour>
    <contour>
      <point x="178" y="0" type="curve"/>
      <point x="520" y="722" type="line"/>
      <point x="392" y="722"/>
      <point x="520" y="722"/>
      <point x="392" y="722" type="curve"/>
      <point x="25" y="0" type="line"/>
      <point x="178" y="0"/>
      <point x="25" y="0"/>
    </contour>
    <contour>
      <point x="727" y="55" type="curve"/>
      <point x="727" y="175"/>
      <point x="727" y="55"/>
      <point x="727" y="175" type="curve"/>
      <point x="617" y="175"/>
      <point x="727" y="175"/>
      <point x="617" y="175" type="curve"/>
      <point x="617" y="55"/>
      <point x="617" y="175"/>
      <point x="617" y="55" type="curve"/>
      <point x="727" y="55"/>
      <point x="617" y="55"/>
    </contour>
    <contour>
      <point x="594" y="667" type="curve"/>
      <point x="594" y="547"/>
      <point x="594" y="667"/>
      <point x="594" y="547" type="curve"/>
      <point x="705" y="547"/>
      <point x="594" y="547"/>
      <point x="705" y="547" type="curve"/>
      <point x="705" y="667"/>
      <point x="705" y="547"/>
      <point x="705" y="667" type="curve"/>
      <point x="594" y="667"/>
      <point x="705" y="667"/>
    </contour>
    <contour>
      <point x="441" y="109" type="curve"/>
      <point x="308" y="109"/>
      <point x="441" y="109"/>
      <point x="308" y="109" type="curve"/>
      <point x="308" y="0"/>
      <point x="308" y="109"/>
      <point x="308" y="0" type="curve"/>
      <point x="353" y="0"/>
      <point x="398" y="0"/>
      <point x="441" y="0" type="curve"/>
      <point x="441" y="109"/>
      <point x="441" y="0"/>
    </contour>
    <contour>
      <point x="441" y="722" type="curve"/>
      <point x="398" y="722"/>
      <point x="353" y="722"/>
      <point x="308" y="722" type="curve"/>
      <point x="308" y="613"/>
      <point x="308" y="722"/>
      <point x="308" y="613" type="curve"/>
      <point x="441" y="613"/>
      <point x="308" y="613"/>
      <point x="441" y="613" type="curve"/>
      <point x="441" y="722"/>
      <point x="441" y="613"/>
    </contour>
    <contour>
      <point x="444" y="317" type="curve"/>
      <point x="516" y="317"/>
      <point x="590" y="317"/>
      <point x="663" y="317" type="curve"/>
      <point x="663" y="428"/>
      <point x="663" y="317"/>
      <point x="663" y="428" type="curve"/>
      <point x="590" y="428"/>
      <point x="516" y="428"/>
      <point x="444" y="428" type="curve"/>
      <point x="444" y="317"/>
      <point x="444" y="428"/>
    </contour>
    <contour>
      <point x="433" y="613" type="curve"/>
      <point x="524" y="613"/>
      <point x="614" y="613"/>
      <point x="705" y="613" type="curve"/>
      <point x="705" y="722"/>
      <point x="705" y="613"/>
      <point x="705" y="722" type="curve"/>
      <point x="614" y="722"/>
      <point x="524" y="722"/>
      <point x="433" y="722" type="curve"/>
      <point x="433" y="613"/>
      <point x="433" y="722"/>
    </contour>
    <contour>
      <point x="511" y="0" type="curve"/>
      <point x="511" y="722" type="line"/>
      <point x="371" y="722"/>
      <point x="511" y="722"/>
      <point x="371" y="722" type="curve"/>
      <point x="371" y="481"/>
      <point x="371" y="241"/>
      <point x="371" y="0" type="curve"/>
      <point x="511" y="0"/>
      <point x="371" y="0"/>
    </contour>
    <contour>
      <point x="433" y="0" type="curve"/>
      <point x="531" y="0"/>
      <point x="629" y="0"/>
      <point x="727" y="0" type="curve"/>
      <point x="727" y="109"/>
      <point x="727" y="0"/>
      <point x="727" y="109" type="curve"/>
      <point x="629" y="109"/>
      <point x="531" y="109"/>
      <point x="433" y="109" type="curve"/>
      <point x="433" y="0"/>
      <point x="433" y="109"/>
    </contour>
  </outline>
</glyph>
<glyph name="Edieresis" format="1">
  <advance width="515"/>
  <unicode hex="00CB"/>
  <outline>
    <contour>
      <point x="479" y="55" type="curve"/>
      <point x="479" y="175"/>
      <point x="479" y="55"/>
      <point x="479" y="175" type="curve"/>
      <point x="369" y="175"/>
      <point x="479" y="175"/>
      <point x="369" y="175" type="curve"/>
      <point x="369" y="55"/>
      <point x="369" y="175"/>
      <point x="369" y="55" type="curve"/>
      <point x="479" y="55"/>
      <point x="369" y="55"/>
    </contour>
    <contour>
      <point x="347" y="667" type="curve"/>
      <point x="347" y="547"/>
      <point x="347" y="667"/>
      <point x="347" y="547" type="curve"/>
      <point x="457" y="547"/>
      <point x="347" y="547"/>
      <point x="457" y="547" type="curve"/>
      <point x="457" y="667"/>
      <point x="457" y="547"/>
      <point x="457" y="667" type="curve"/>
      <point x="347" y="667"/>
      <point x="457" y="667"/>
    </contour>
    <contour>
      <point x="194" y="109" type="curve"/>
      <point x="61" y="109"/>
      <point x="194" y="109"/>
      <point x="61" y="109" type="curve"/>
      <point x="61" y="0"/>
      <point x="61" y="109"/>
      <point x="61" y="0" type="curve"/>
      <point x="105" y="0"/>
      <point x="150" y="0"/>
      <point x="194" y="0" type="curve"/>
      <point x="194" y="109"/>
      <point x="194" y="0"/>
    </contour>
    <contour>
      <point x="194" y="722" type="curve"/>
      <point x="150" y="722"/>
      <point x="105" y="722"/>
      <point x="61" y="722" type="curve"/>
      <point x="61" y="613"/>
      <point x="61" y="722"/>
      <point x="61" y="613" type="curve"/>
      <point x="194" y="613"/>
      <point x="61" y="613"/>
      <point x="194" y="613" type="curve"/>
      <point x="194" y="722"/>
      <point x="194" y="613"/>
    </contour>
    <contour>
      <point x="196" y="317" type="curve"/>
      <point x="268" y="317"/>
      <point x="342" y="317"/>
      <point x="415" y="317" type="curve"/>
      <point x="415" y="428"/>
      <point x="415" y="317"/>
      <point x="415" y="428" type="curve"/>
      <point x="342" y="428"/>
      <point x="268" y="428"/>
      <point x="196" y="428" type="curve"/>
      <point x="196" y="317"/>
      <point x="196" y="428"/>
    </contour>
    <contour>
      <point x="186" y="613" type="curve"/>
      <point x="277" y="613"/>
      <point x="366" y="613"/>
      <point x="457" y="613" type="curve"/>
      <point x="457" y="722"/>
      <point x="457" y="613"/>
      <point x="457" y="722" type="curve"/>
      <point x="366" y="722"/>
      <point x="277" y="722"/>
      <point x="186" y="722" type="curve"/>
      <point x="186" y="613"/>
      <point x="186" y="722"/>
    </contour>
    <contour>
      <point x="263" y="0" type="curve"/>
      <point x="263" y="722" type="line"/>
      <point x="123" y="722"/>
      <point x="263" y="722"/>
      <point x="123" y="722" type="curve"/>
      <point x="123" y="481"/>
      <point x="123" y="241"/>
      <point x="123" y="0" type="curve"/>
      <point x="263" y="0"/>
      <point x="123" y="0"/>
    </contour>
    <contour>
      <point x="186" y="0" type="curve"/>
      <point x="283" y="0"/>
      <point x="381" y="0"/>
      <point x="479" y="0" type="curve"/>
      <point x="479" y="109"/>
      <point x="479" y="0"/>
      <point x="479" y="109" type="curve"/>
      <point x="381" y="109"/>
      <point x="283" y="109"/>
      <point x="186" y="109" type="curve"/>
      <point x="186" y="0"/>
      <point x="186" y="109"/>
    </contour>
    <contour>
      <point x="259" y="844" type="curve"/>
      <point x="259" y="891"/>
      <point x="228" y="915"/>
      <point x="187" y="915" type="curve"/>
      <point x="145" y="915"/>
      <point x="117" y="890"/>
      <point x="117" y="844" type="curve"/>
      <point x="259" y="844"/>
      <point x="117" y="844"/>
      <point x="259" y="844" type="curve"/>
      <point x="259" y="796"/>
      <point x="230" y="774"/>
      <point x="187" y="774" type="curve"/>
      <point x="144" y="774"/>
      <point x="117" y="797"/>
      <point x="117" y="844" type="curve"/>
      <point x="259" y="844"/>
      <point x="117" y="844"/>
    </contour>
    <contour>
      <point x="453" y="844" type="curve"/>
      <point x="453" y="891"/>
      <point x="422" y="915"/>
      <point x="381" y="915" type="curve"/>
      <point x="339" y="915"/>
      <point x="311" y="890"/>
      <point x="311" y="844" type="curve"/>
      <point x="453" y="844"/>
      <point x="311" y="844"/>
      <point x="453" y="844" type="curve"/>
      <point x="453" y="796"/>
      <point x="423" y="774"/>
      <point x="381" y="774" type="curve"/>
      <point x="338" y="774"/>
      <point x="311" y="797"/>
      <point x="311" y="844" type="curve"/>
      <point x="453" y="844"/>
      <point x="311" y="844"/>
    </contour>
  </outline>
</glyph>
<glyph name="Eth" format="1">
  <advance width="647"/>
  <unicode hex="00D0"/>
  <outline>
    <contour>
      <point x="195" y="109" type="curve"/>
      <point x="62" y="109"/>
      <point x="195" y="109"/>
      <point x="62" y="109" type="curve"/>
      <point x="62" y="0"/>
      <point x="62" y="109"/>
      <point x="62" y="0" type="curve"/>
      <point x="106" y="0"/>
      <point x="151" y="0"/>
      <point x="195" y="0" type="curve"/>
      <point x="195" y="109"/>
      <point x="195" y="0"/>
    </contour>
    <contour>
      <point x="195" y="722" type="curve"/>
      <point x="151" y="722"/>
      <point x="106" y="722"/>
      <point x="62" y="722" type="curve"/>
      <point x="62" y="613"/>
      <point x="62" y="722"/>
      <point x="62" y="613" type="curve"/>
      <point x="195" y="613"/>
      <point x="62" y="613"/>
      <point x="195" y="613" type="curve"/>
      <point x="195" y="722"/>
      <point x="195" y="613"/>
    </contour>
    <contour>
      <point x="123" y="722" type="curve"/>
      <point x="123" y="481"/>
      <point x="123" y="241"/>
      <point x="123" y="0" type="curve"/>
      <point x="264" y="0"/>
      <point x="123" y="0"/>
      <point x="264" y="0" type="curve"/>
      <point x="264" y="241"/>
      <point x="264" y="481"/>
      <point x="264" y="722" type="curve"/>
      <point x="123" y="722"/>
      <point x="264" y="722"/>
    </contour>
    <contour>
      <point x="195" y="0" type="curve"/>
      <point x="237" y="0"/>
      <point x="280" y="0"/>
      <point x="323" y="0" type="curve"/>
      <point x="520" y="0"/>
      <point x="601" y="140"/>
      <point x="601" y="354" type="curve"/>
      <point x="601" y="575"/>
      <point x="524" y="722"/>
      <point x="322" y="722" type="curve"/>
      <point x="280" y="722"/>
      <point x="237" y="722"/>
      <point x="195" y="722" type="curve"/>
      <point x="195" y="613"/>
      <point x="195" y="722"/>
      <point x="195" y="613" type="curve"/>
      <point x="236" y="613"/>
      <point x="275" y="613"/>
      <point x="316" y="613" type="curve"/>
      <point x="442" y="613"/>
      <point x="460" y="499"/>
      <point x="460" y="352" type="curve"/>
      <point x="460" y="217"/>
      <point x="448" y="109"/>
      <point x="336" y="109" type="curve"/>
      <point x="289" y="109"/>
      <point x="242" y="109"/>
      <point x="195" y="109" type="curve"/>
      <point x="195" y="0"/>
      <point x="195" y="109"/>
    </contour>
    <contour>
      <point x="90" y="290" type="curve"/>
      <point x="176" y="290"/>
      <point x="263" y="290"/>
      <point x="349" y="290" type="curve"/>
      <point x="349" y="410"/>
      <point x="349" y="290"/>
      <point x="349" y="410" type="curve"/>
      <point x="263" y="410"/>
      <point x="176" y="410"/>
      <point x="90" y="410" type="curve"/>
      <point x="90" y="290"/>
      <point x="90" y="410"/>
    </contour>
  </outline>
</glyph>
<glyph name="Ograve" format="1">
  <advance width="619"/>
  <unicode hex="00D2"/>
  <outline>
    <contour>
      <point x="186" y="360" type="curve"/>
      <point x="186" y="492"/>
      <point x="194" y="613"/>
      <point x="307" y="613" type="curve"/>
      <point x="413" y="613"/>
      <point x="433" y="494"/>
      <point x="433" y="363" type="curve"/>
      <point x="433" y="230"/>
      <point x="423" y="110"/>
      <point x="311" y="110" type="curve"/>
      <point x="203" y="110"/>
      <point x="186" y="228"/>
      <point x="186" y="360" type="curve"/>
      <point x="45" y="360"/>
      <point x="186" y="360"/>
      <point x="45" y="360" type="curve"/>
      <point x="45" y="156"/>
      <point x="125" y="-5"/>
      <point x="307" y="-5" type="curve"/>
      <point x="491" y="-5"/>
      <point x="574" y="157"/>
      <point x="574" y="363" type="curve"/>
      <point x="574" y="565"/>
      <point x="495" y="727"/>
      <point x="312" y="727" type="curve"/>
      <point x="129" y="727"/>
      <point x="45" y="565"/>
      <point x="45" y="360" type="curve"/>
      <point x="186" y="360"/>
      <point x="45" y="360"/>
    </contour>
    <contour>
      <point x="374" y="781" type="line"/>
      <point x="299" y="947" type="line"/>
      <point x="130" y="947" type="line"/>
      <point x="243" y="781" type="line"/>
    </contour>
  </outline>
</glyph>
<glyph name="Odieresis" format="1">
  <advance width="619"/>
  <unicode hex="00D6"/>
  <outline>
    <contour>
      <point x="186" y="360" type="curve"/>
      <point x="186" y="492"/>
      <point x="194" y="613"/>
      <point x="307" y="613" type="curve"/>
      <point x="413" y="613"/>
      <point x="433" y="494"/>
      <point x="433" y="363" type="curve"/>
      <point x="433" y="230"/>
      <point x="423" y="110"/>
      <point x="311" y="110" type="curve"/>
      <point x="203" y="110"/>
      <point x="186" y="228"/>
      <point x="186" y="360" type="curve"/>
      <point x="45" y="360"/>
      <point x="186" y="360"/>
      <point x="45" y="360" type="curve"/>
      <point x="45" y="156"/>
      <point x="125" y="-5"/>
      <point x="307" y="-5" type="curve"/>
      <point x="491" y="-5"/>
      <point x="574" y="157"/>
      <point x="574" y="363" type="curve"/>
      <point x="574" y="565"/>
      <point x="495" y="727"/>
      <point x="312" y="727" type="curve"/>
      <point x="129" y="727"/>
      <point x="45" y="565"/>
      <point x="45" y="360" type="curve"/>
      <point x="186" y="360"/>
      <point x="45" y="360"/>
    </contour>
    <contour>
      <point x="285" y="844" type="curve"/>
      <point x="285" y="891"/>
      <point x="254" y="915"/>
      <point x="213" y="915" type="curve"/>
      <point x="171" y="915"/>
      <point x="143" y="890"/>
      <point x="143" y="844" type="curve"/>
      <point x="285" y="844"/>
      <point x="143" y="844"/>
      <point x="285" y="844" type="curve"/>
      <point x="285" y="796"/>
      <point x="255" y="774"/>
      <point x="213" y="774" type="curve"/>
      <point x="170" y="774"/>
      <point x="143" y="797"/>
      <point x="143" y="844" type="curve"/>
      <point x="285" y="844"/>
      <point x="143" y="844"/>
    </contour>
    <contour>
      <point x="479" y="844" type="curve"/>
      <point x="479" y="891"/>
      <point x="448" y="915"/>
      <point x="407" y="915" type="curve"/>
      <point x="365" y="915"/>
      <point x="337" y="890"/>
      <point x="337" y="844" type="curve"/>
      <point x="479" y="844"/>
      <point x="337" y="844"/>
      <point x="479" y="844" type="curve"/>
      <point x="479" y="796"/>
      <point x="449" y="774"/>
      <point x="407" y="774" type="curve"/>
      <point x="364" y="774"/>
      <point x="337" y="797"/>
      <point x="337" y="844" type="curve"/>
      <point x="479" y="844"/>
      <point x="337" y="844"/>
    </contour>
  </outline>
</glyph>
<glyph name="aacute" format="1">
  <advance width="495"/>
  <unicode hex="00E1"/>
  <outline>
    <contour>
      <point x="68" y="461" type="curve"/>
      <point x="68" y="350"/>
      <point x="68" y="462"/>
      <point x="68" y="351" type="curve"/>
      <point x="178" y="351"/>
      <point x="68" y="351"/>
      <point x="178" y="351" type="curve"/>
      <point x="178" y="462"/>
      <point x="178" y="350"/>
      <point x="178" y="461" type="curve"/>
      <point x="68" y="461"/>
      <point x="178" y="461"/>
    </contour>
    <contour>
      <point x="416" y="0" type="curve"/>
      <point x="416" y="123"/>
      <point x="416" y="248"/>
      <point x="416" y="371" type="curve"/>
      <point x="416" y="485"/>
      <point x="345" y="538"/>
      <point x="236" y="538" type="curve"/>
      <point x="159" y="538"/>
      <point x="105" y="505"/>
      <point x="68" y="461" type="curve"/>
      <point x="119" y="369"/>
      <point x="66" y="462"/>
      <point x="118" y="370" type="curve"/>
      <point x="140" y="395"/>
      <point x="170" y="423"/>
      <point x="217" y="423" type="curve"/>
      <point x="258" y="423"/>
      <point x="275" y="394"/>
      <point x="275" y="355" type="curve"/>
      <point x="275" y="237"/>
      <point x="275" y="118"/>
      <point x="275" y="0" type="curve"/>
      <point x="416" y="0"/>
      <point x="275" y="0"/>
    </contour>
    <contour>
      <point x="347" y="0" type="curve"/>
      <point x="387" y="0"/>
      <point x="428" y="0"/>
      <point x="468" y="0" type="curve"/>
      <point x="468" y="109"/>
      <point x="468" y="0"/>
      <point x="468" y="109" type="curve"/>
      <point x="347" y="109"/>
      <point x="468" y="109"/>
      <point x="347" y="109" type="curve"/>
      <point x="347" y="0"/>
      <point x="347" y="109"/>
    </contour>
    <contour>
      <point x="342" y="351" type="curve"/>
      <point x="291" y="342"/>
      <point x="260" y="341"/>
      <point x="209" y="332" type="curve"/>
      <point x="105" y="314"/>
      <point x="40" y="266"/>
      <point x="40" y="166" type="curve"/>
      <point x="40" y="61"/>
      <point x="90" y="-5"/>
      <point x="192" y="-5" type="curve"/>
      <point x="291" y="-5"/>
      <point x="322" y="88"/>
      <point x="381" y="153" type="curve"/>
      <point x="310" y="214"/>
      <point x="381" y="153"/>
      <point x="310" y="214" type="curve"/>
      <point x="287" y="155"/>
      <point x="279" y="104"/>
      <point x="227" y="104" type="curve"/>
      <point x="186" y="104"/>
      <point x="175" y="130"/>
      <point x="175" y="173" type="curve"/>
      <point x="175" y="202"/>
      <point x="193" y="230"/>
      <point x="215" y="234" type="curve"/>
      <point x="271" y="244"/>
      <point x="292" y="248"/>
      <point x="348" y="258" type="curve"/>
      <point x="342" y="351"/>
      <point x="348" y="258"/>
    </contour>
    <contour>
      <point x="305" y="609" type="line"/>
      <point x="419" y="775" type="line"/>
      <point x="249" y="775" type="line"/>
      <point x="174" y="609" type="line"/>
    </contour>
  </outline>
</glyph>
<glyph name="ae" format="1">
  <advance width="694"/>
  <unicode hex="00E6"/>
  <outline>
    <contour>
      <point x="63" y="461" type="curve"/>
      <point x="63" y="350"/>
      <point x="63" y="462"/>
      <point x="63" y="351" type="curve"/>
      <point x="173" y="351"/>
      <point x="63" y="351"/>
      <point x="173" y="351" type="curve"/>
      <point x="173" y="462"/>
      <point x="173" y="350"/>
      <point x="173" y="461" type="curve"/>
      <point x="63" y="461"/>
      <point x="173" y="461"/>
    </contour>
    <contour>
      <point x="411" y="286" type="curve"/>
      <point x="411" y="301"/>
      <point x="411" y="356"/>
      <point x="411" y="371" type="curve"/>
      <point x="411" y="485"/>
      <point x="340" y="532"/>
      <point x="232" y="532" type="curve"/>
      <point x="154" y="532"/>
      <point x="100" y="505"/>
      <point x="63" y="461" type="curve"/>
      <point x="115" y="369"/>
      <point x="61" y="462"/>
      <point x="113" y="370" type="curve"/>
      <point x="135" y="395"/>
      <point x="165" y="423"/>
      <point x="212" y="423" type="curve"/>
      <point x="253" y="423"/>
      <point x="271" y="389"/>
      <point x="271" y="337" type="curve"/>
      <point x="271" y="334"/>
      <point x="271" y="291"/>
      <point x="271" y="286" type="curve"/>
      <point x="411" y="286"/>
      <point x="271" y="286"/>
    </contour>
    <contour>
      <point x="336" y="331" type="curve"/>
      <point x="285" y="330"/>
      <point x="256" y="330"/>
      <point x="201" y="319" type="curve"/>
      <point x="98" y="302"/>
      <point x="37" y="255"/>
      <point x="37" y="165" type="curve"/>
      <point x="37" y="61"/>
      <point x="87" y="-5"/>
      <point x="187" y="-5" type="curve"/>
      <point x="286" y="-5"/>
      <point x="329" y="66"/>
      <point x="375" y="149" type="curve"/>
      <point x="303" y="210"/>
      <point x="377" y="146"/>
      <point x="305" y="208" type="curve"/>
      <point x="276" y="157"/>
      <point x="270" y="104"/>
      <point x="213" y="104" type="curve"/>
      <point x="180" y="104"/>
      <point x="172" y="127"/>
      <point x="172" y="163" type="curve"/>
      <point x="172" y="189"/>
      <point x="189" y="215"/>
      <point x="210" y="219" type="curve"/>
      <point x="258" y="228"/>
      <point x="296" y="228"/>
      <point x="342" y="228" type="curve"/>
      <point x="336" y="321"/>
      <point x="342" y="238"/>
    </contour>
    <contour>
      <point x="339" y="227" type="curve"/>
      <point x="426" y="227"/>
      <point x="513" y="227"/>
      <point x="601" y="227" type="curve"/>
      <point x="661" y="227"/>
      <point x="601" y="227"/>
      <point x="661" y="227" type="curve"/>
      <point x="661" y="276"/>
      <point x="661" y="227"/>
      <point x="661" y="276" type="curve"/>
      <point x="661" y="282"/>
      <point x="661" y="289"/>
      <point x="661" y="295" type="curve"/>
      <point x="661" y="439"/>
      <point x="604" y="538"/>
      <point x="473" y="538" type="curve"/>
      <point x="333" y="538"/>
      <point x="268" y="434"/>
      <point x="268" y="278" type="curve"/>
      <point x="268" y="111"/>
      <point x="336" y="-5"/>
      <point x="487" y="-5" type="curve"/>
      <point x="552" y="-5"/>
      <point x="592" y="23"/>
      <point x="641" y="75" type="curve"/>
      <point x="553" y="150"/>
      <point x="641" y="75"/>
      <point x="553" y="150" type="curve"/>
      <point x="534" y="125"/>
      <point x="518" y="111"/>
      <point x="488" y="111" type="curve"/>
      <point x="412" y="111"/>
      <point x="408" y="187"/>
      <point x="408" y="278" type="curve"/>
      <point x="408" y="355"/>
      <point x="404" y="423"/>
      <point x="467" y="423" type="curve"/>
      <point x="520" y="423"/>
      <point x="528" y="369"/>
      <point x="528" y="303" type="curve"/>
      <point x="528" y="293"/>
      <point x="528" y="284"/>
      <point x="528" y="274" type="curve"/>
      <point x="539" y="286"/>
      <point x="551" y="295"/>
      <point x="563" y="308" type="curve"/>
      <point x="573" y="319"/>
      <point x="590" y="318"/>
      <point x="601" y="330" type="curve"/>
      <point x="513" y="330"/>
      <point x="426" y="330"/>
      <point x="339" y="330" type="curve"/>
      <point x="339" y="221"/>
      <point x="339" y="336"/>
    </contour>
  </outline>
</glyph>
<glyph name="eacute" format="1">
  <advance width="461"/>
  <unicode hex="00E9"/>
  <outline>
    <contour>
      <point x="107" y="227" type="curve"/>
      <point x="195" y="227"/>
      <point x="282" y="227"/>
      <point x="369" y="227" type="curve"/>
      <point x="429" y="227"/>
      <point x="369" y="227"/>
      <point x="429" y="227" type="curve"/>
      <point x="429" y="276"/>
      <point x="429" y="227"/>
      <point x="429" y="276" type="curve"/>
      <point x="429" y="282"/>
      <point x="429" y="289"/>
      <point x="429" y="295" type="curve"/>
      <point x="429" y="439"/>
      <point x="372" y="538"/>
      <point x="241" y="538" type="curve"/>
      <point x="101" y="538"/>
      <point x="37" y="434"/>
      <point x="37" y="278" type="curve"/>
      <point x="37" y="111"/>
      <point x="105" y="-5"/>
      <point x="255" y="-5" type="curve"/>
      <point x="320" y="-5"/>
      <point x="360" y="23"/>
      <point x="410" y="75" type="curve"/>
      <point x="321" y="150"/>
      <point x="410" y="75"/>
      <point x="321" y="150" type="curve"/>
      <point x="302" y="125"/>
      <point x="286" y="111"/>
      <point x="256" y="111" type="curve"/>
      <point x="179" y="111"/>
      <point x="176" y="187"/>
      <point x="176" y="278" type="curve"/>
      <point x="176" y="355"/>
      <point x="171" y="423"/>
      <point x="235" y="423" type="curve"/>
      <point x="288" y="423"/>
      <point x="296" y="369"/>
      <point x="296" y="303" type="curve"/>
      <point x="296" y="293"/>
      <point x="296" y="284"/>
      <point x="296" y="274" type="curve"/>
      <point x="307" y="286"/>
      <point x="319" y="295"/>
      <point x="331" y="308" type="curve"/>
      <point x="341" y="319"/>
      <point x="359" y="318"/>
      <point x="369" y="330" type="curve"/>
      <point x="282" y="330"/>
      <point x="195" y="330"/>
      <point x="107" y="330" type="curve"/>
      <point x="107" y="221"/>
      <point x="107" y="336"/>
    </contour>
    <contour>
      <point x="310" y="609" type="line"/>
      <point x="424" y="775" type="line"/>
      <point x="254" y="775" type="line"/>
      <point x="179" y="609" type="line"/>
    </contour>
  </outline>
</glyph>
<glyph name="edieresis" format="1">
  <advance width="461"/>
  <unicode hex="00EB"/>
  <outline>
    <contour>
      <point x="107" y="227" type="curve"/>
      <point x="195" y="227"/>
      <point x="282" y="227"/>
      <point x="369" y="227" type="curve"/>
      <point x="429" y="227"/>
      <point x="369" y="227"/>
      <point x="429" y="227" type="curve"/>
      <point x="429" y="276"/>
      <point x="429" y="227"/>
      <point x="429" y="276" type="curve"/>
      <point x="429" y="282"/>
      <point x="429" y="289"/>
      <point x="429" y="295" type="curve"/>
      <point x="429" y="439"/>
      <point x="372" y="538"/>
      <point x="241" y="538" type="curve"/>
      <point x="101" y="538"/>
      <point x="37" y="434"/>
      <point x="37" y="278" type="curve"/>
      <point x="37" y="111"/>
      <point x="105" y="-5"/>
      <point x="255" y="-5" type="curve"/>
      <point x="320" y="-5"/>
      <point x="360" y="23"/>
      <point x="410" y="75" type="curve"/>
      <point x="321" y="150"/>
      <point x="410" y="75"/>
      <point x="321" y="150" type="curve"/>
      <point x="302" y="125"/>
      <point x="286" y="111"/>
      <point x="256" y="111" type="curve"/>
      <point x="179" y="111"/>
      <point x="176" y="187"/>
      <point x="176" y="278" type="curve"/>
      <point x="176" y="355"/>
      <point x="171" y="423"/>
      <point x="235" y="423" type="curve"/>
      <point x="288" y="423"/>
      <point x="296" y="369"/>
      <point x="296" y="303" type="curve"/>
      <point x="296" y="293"/>
      <point x="296" y="284"/>
      <point x="296" y="274" type="curve"/>
      <point x="307" y="286"/>
      <point x="319" y="295"/>
      <point x="331" y="308" type="curve"/>
      <point x="341" y="319"/>
      <point x="359" y="318"/>
      <point x="369" y="330" type="curve"/>
      <point x="282" y="330"/>
      <point x="195" y="330"/>
      <point x="107" y="330" type="curve"/>
      <point x="107" y="221"/>
      <point x="107" y="336"/>
    </contour>
    <contour>
      <point x="221" y="674" type="curve"/>
      <point x="221" y="721"/>
      <point x="191" y="745"/>
      <point x="150" y="745" type="curve"/>
      <point x="107" y="745"/>
      <point x="80" y="720"/>
      <point x="80" y="674" type="curve"/>
      <point x="221" y="674"/>
      <point x="80" y="674"/>
      <point x="221" y="674" type="curve"/>
      <point x="221" y="626"/>
      <point x="192" y="604"/>
      <point x="150" y="604" type="curve"/>
      <point x="106" y="604"/>
      <point x="80" y="627"/>
      <point x="80" y="674" type="curve"/>
      <point x="221" y="674"/>
      <point x="80" y="674"/>
    </contour>
    <contour>
      <point x="415" y="674" type="curve"/>
      <point x="415" y="721"/>
      <point x="385" y="745"/>
      <point x="343" y="745" type="curve"/>
      <point x="301" y="745"/>
      <point x="273" y="720"/>
      <point x="273" y="674" type="curve"/>
      <point x="415" y="674"/>
      <point x="273" y="674"/>
      <point x="415" y="674" type="curve"/>
      <point x="415" y="626"/>
      <point x="386" y="604"/>
      <point x="344" y="604" type="curve"/>
      <point x="300" y="604"/>
      <point x="273" y="627"/>
      <point x="273" y="674" type="curve"/>
      <point x="415" y="674"/>
      <point x="273" y="674"/>
    </contour>
  </outline>
</glyph>
<glyph name="iacute" format="1">
  <advance width="309"/>
  <unicode hex="00ED"/>
  <outline>
    <contour>
      <point x="160" y="109" type="curve"/>
      <point x="27" y="109"/>
      <point x="160" y="109"/>
      <point x="27" y="109" type="curve"/>
      <point x="26" y="0"/>
      <point x="27" y="109"/>
      <point x="26" y="0" type="curve"/>
      <point x="71" y="0"/>
      <point x="115" y="0"/>
      <point x="160" y="0" type="curve"/>
      <point x="160" y="109"/>
      <point x="160" y="0"/>
    </contour>
    <contour>
      <point x="160" y="0" type="curve"/>
      <point x="201" y="0"/>
      <point x="243" y="0"/>
      <point x="285" y="0" type="curve"/>
      <point x="285" y="109"/>
      <point x="285" y="0"/>
      <point x="285" y="109" type="curve"/>
      <point x="160" y="109"/>
      <point x="285" y="109"/>
      <point x="160" y="109" type="curve"/>
      <point x="160" y="0"/>
      <point x="160" y="109"/>
    </contour>
    <contour>
      <point x="160" y="533" type="curve"/>
      <point x="115" y="533"/>
      <point x="71" y="533"/>
      <point x="27" y="533" type="curve"/>
      <point x="26" y="424"/>
      <point x="27" y="533"/>
      <point x="26" y="424" type="curve"/>
      <point x="160" y="424"/>
      <point x="26" y="424"/>
      <point x="160" y="424" type="curve"/>
      <point x="160" y="533"/>
      <point x="160" y="424"/>
    </contour>
    <contour>
      <point x="233" y="0" type="curve"/>
      <point x="233" y="178"/>
      <point x="233" y="355"/>
      <point x="233" y="533" type="curve"/>
      <point x="86" y="533"/>
      <point x="233" y="533"/>
      <point x="86" y="533" type="curve"/>
      <point x="86" y="355"/>
      <point x="86" y="178"/>
      <point x="86" y="0" type="curve"/>
      <point x="233" y="0"/>
      <point x="86" y="0"/>
    </contour>
    <contour>
      <point x="227" y="609" type="line"/>
      <point x="341" y="775" type="line"/>
      <point x="171" y="775" type="line"/>
      <point x="96" y="609" type="line"/>
    </contour>
  </outline>
</glyph>
<glyph name="ntilde" format="1">
  <advance width="543"/>
  <unicode hex="00F1"/>
  <outline>
    <contour>
      <point x="201" y="266" type="curve"/>
      <point x="212" y="342"/>
      <point x="237" y="424"/>
      <point x="286" y="424" type="curve"/>
      <point x="338" y="424"/>
      <point x="336" y="371"/>
      <point x="336" y="308" type="curve"/>
      <point x="336" y="207"/>
      <point x="336" y="102"/>
      <point x="336" y="0" type="curve"/>
      <point x="492" y="0"/>
      <point x="321" y="0"/>
      <point x="476" y="0" type="curve"/>
      <point x="476" y="105"/>
      <point x="476" y="215"/>
      <point x="476" y="319" type="curve"/>
      <point x="476" y="442"/>
      <point x="457" y="538"/>
      <point x="341" y="538" type="curve"/>
      <point x="256" y="538"/>
      <point x="188" y="462"/>
      <point x="168" y="331" type="curve"/>
      <point x="210" y="262"/>
      <point x="158" y="334"/>
    </contour>
    <contour>
      <point x="406" y="0" type="curve"/>
      <point x="448" y="0"/>
      <point x="495" y="0"/>
      <point x="539" y="0" type="curve"/>
      <point x="539" y="109"/>
      <point x="539" y="0"/>
      <point x="539" y="109" type="curve"/>
      <point x="410" y="109"/>
      <point x="534" y="109"/>
      <point x="406" y="109" type="curve"/>
      <point x="406" y="0"/>
      <point x="406" y="109"/>
    </contour>
    <contour>
      <point x="158" y="109" type="curve"/>
      <point x="29" y="109"/>
      <point x="154" y="109"/>
      <point x="24" y="109" type="curve"/>
      <point x="24" y="0"/>
      <point x="24" y="109"/>
      <point x="24" y="0" type="curve"/>
      <point x="67" y="0"/>
      <point x="115" y="0"/>
      <point x="158" y="0" type="curve"/>
      <point x="158" y="109"/>
      <point x="158" y="0"/>
    </contour>
    <contour>
      <point x="158" y="0" type="curve"/>
      <point x="199" y="0"/>
      <point x="163" y="0"/>
      <point x="284" y="0" type="curve"/>
      <point x="284" y="109"/>
      <point x="284" y="0"/>
      <point x="284" y="109" type="curve"/>
      <point x="163" y="109"/>
      <point x="280" y="109"/>
      <point x="158" y="109" type="curve"/>
      <point x="158" y="0"/>
      <point x="158" y="109"/>
    </contour>
    <contour>
      <point x="228" y="0" type="curve"/>
      <point x="228" y="178"/>
      <point x="228" y="355"/>
      <point x="228" y="533" type="curve"/>
      <point x="88" y="533"/>
      <point x="228" y="533"/>
      <point x="88" y="533" type="curve"/>
      <point x="88" y="355"/>
      <point x="88" y="178"/>
      <point x="88" y="0" type="curve"/>
      <point x="228" y="0"/>
      <point x="88" y="0"/>
    </contour>
    <contour>
      <point x="158" y="533" type="curve"/>
      <point x="115" y="533"/>
      <point x="67" y="533"/>
      <point x="24" y="533" type="curve"/>
      <point x="24" y="424"/>
      <point x="24" y="533"/>
      <point x="24" y="424" type="curve"/>
      <point x="154" y="424"/>
      <point x="29" y="424"/>
      <point x="158" y="424" type="curve"/>
      <point x="158" y="533"/>
      <point x="158" y="424"/>
    </contour>
    <contour>
      <point x="359" y="804" type="curve"/>
      <point x="340" y="769"/>
      <point x="329" y="768"/>
      <point x="318" y="768" type="curve"/>
      <point x="295" y="768"/>
      <point x="284" y="773"/>
      <point x="268" y="786" type="curve" smooth="yes"/>
      <point x="245" y="804"/>
      <point x="235" y="811"/>
      <point x="210" y="811" type="curve"/>
      <point x="145" y="811"/>
      <point x="112" y="738"/>
      <point x="93" y="679" type="curve"/>
      <point x="196" y="617"/>
      <point x="93" y="680"/>
      <point x="196" y="617" type="curve"/>
      <point x="216" y="656"/>
      <point x="232" y="659"/>
      <point x="248" y="659" type="curve"/>
      <point x="266" y="659"/>
      <point x="274" y="654"/>
      <point x="286" y="643" type="curve" smooth="yes"/>
      <point x="313" y="621"/>
      <point x="326" y="610"/>
      <point x="358" y="610" type="curve"/>
      <point x="423" y="610"/>
      <point x="444" y="677"/>
      <point x="470" y="744" type="curve"/>
      <point x="359" y="804"/>
      <point x="470" y="743"/>
    </contour>
  </outline>
</glyph>
<glyph name="ograve" format="1">
  <advance width="502"/>
  <unicode hex="00F2"/>
  <outline>
    <contour>
      <point x="164" y="265" type="curve"/>
      <point x="164" y="342"/>
      <point x="174" y="423"/>
      <point x="245" y="423" type="curve"/>
      <point x="315" y="423"/>
      <point x="326" y="344"/>
      <point x="326" y="265" type="curve"/>
      <point x="326" y="183"/>
      <point x="319" y="110"/>
      <point x="254" y="110" type="curve"/>
      <point x="173" y="111"/>
      <point x="164" y="182"/>
      <point x="164" y="265" type="curve"/>
      <point x="189" y="265"/>
      <point x="12" y="265"/>
      <point x="36" y="265" type="curve"/>
      <point x="36" y="109"/>
      <point x="103" y="-5"/>
      <point x="248" y="-5" type="curve"/>
      <point x="395" y="-5"/>
      <point x="466" y="107"/>
      <point x="466" y="265" type="curve"/>
      <point x="466" y="424"/>
      <point x="397" y="538"/>
      <point x="252" y="538" type="curve"/>
      <point x="105" y="538"/>
      <point x="36" y="424"/>
      <point x="36" y="265" type="curve"/>
      <point x="12" y="265"/>
      <point x="189" y="265"/>
    </contour>
    <contour>
      <point x="314" y="611" type="line"/>
      <point x="240" y="777" type="line"/>
      <point x="70" y="777" type="line"/>
      <point x="183" y="611" type="line"/>
    </contour>
  </outline>
</glyph>
<glyph name="odieresis" format="1">
  <advance width="502"/>
  <unicode hex="00F6"/>
  <outline>
    <contour>
      <point x="164" y="265" type="curve"/>
      <point x="164" y="342"/>
      <point x="174" y="423"/>
      <point x="245" y="423" type="curve"/>
      <point x="315" y="423"/>
      <point x="326" y="344"/>
      <point x="326" y="265" type="curve"/>
      <point x="326" y="183"/>
      <point x="319" y="110"/>
      <point x="254" y="110" type="curve"/>
      <point x="173" y="111"/>
      <point x="164" y="182"/>
      <point x="164" y="265" type="curve"/>
      <point x="189" y="265"/>
      <point x="12" y="265"/>
      <point x="36" y="265" type="curve"/>
      <point x="36" y="109"/>
      <point x="103" y="-5"/>
      <point x="248" y="-5" type="curve"/>
      <point x="395" y="-5"/>
      <point x="466" y="107"/>
      <point x="466" y="265" type="curve"/>
      <point x="466" y="424"/>
      <point x="397" y="538"/>
      <point x="252" y="538" type="curve"/>
      <point x="105" y="538"/>
      <point x="36" y="424"/>
      <point x="36" y="265" type="curve"/>
      <point x="12" y="265"/>
      <point x="189" y="265"/>
    </contour>
    <contour>
      <point x="225" y="674" type="curve"/>
      <point x="225" y="721"/>
      <point x="194" y="745"/>
      <point x="153" y="745" type="curve"/>
      <point x="111" y="745"/>
      <point x="83" y="720"/>
      <point x="83" y="674" type="curve"/>
      <point x="225" y="674"/>
      <point x="83" y="674"/>
      <point x="225" y="674" type="curve"/>
      <point x="225" y="626"/>
      <point x="196" y="604"/>
      <point x="153" y="604" type="curve"/>
      <point x="110" y="604"/>
      <point x="83" y="627"/>
      <point x="83" y="674" type="curve"/>
      <point x="225" y="674"/>
      <point x="83" y="674"/>
    </contour>
    <contour>
      <point x="419" y="674" type="curve"/>
      <point x="419" y="721"/>
      <point x="388" y="745"/>
      <point x="347" y="745" type="curve"/>
      <point x="305" y="745"/>
      <point x="277" y="720"/>
      <point x="277" y="674" type="curve"/>
      <point x="419" y="674"/>
      <point x="277" y="674"/>
      <point x="419" y="674" type="curve"/>
      <point x="419" y="626"/>
      <point x="389" y="604"/>
      <point x="347" y="604" type="curve"/>
      <point x="304" y="604"/>
      <point x="277" y="627"/>
      <point x="277" y="674" type="curve"/>
      <point x="419" y="674"/>
      <point x="277" y="674"/>
    </contour>
  </outline>
</glyph>
<glyph name="oslash" format="1">
  <advance width="502"/>
  <unicode hex="00F8"/>
  <outline>
    <contour>
      <point x="177" y="-60" type="line"/>
      <point x="412" y="556" type="line"/>
      <point x="324" y="590" type="line"/>
      <point x="87" y="-24" type="line"/>
    </contour>
    <contour>
      <point x="164" y="265" type="curve"/>
      <point x="164" y="342"/>
      <point x="174" y="423"/>
      <point x="245" y="423" type="curve"/>
      <point x="315" y="423"/>
      <point x="326" y="344"/>
      <point x="326" y="265" type="curve"/>
      <point x="326" y="183"/>
      <point x="319" y="110"/>
      <point x="254" y="110" type="curve"/>
      <point x="173" y="111"/>
      <point x="164" y="182"/>
      <point x="164" y="265" type="curve"/>
      <point x="189" y="265"/>
      <point x="12" y="265"/>
      <point x="36" y="265" type="curve"/>
      <point x="36" y="109"/>
      <point x="103" y="-5"/>
      <point x="248" y="-5" type="curve"/>
      <point x="395" y="-5"/>
      <point x="466" y="107"/>
      <point x="466" y="265" type="curve"/>
      <point x="466" y="424"/>
      <point x="397" y="538"/>
      <point x="252" y="538" type="curve"/>
      <point x="105" y="538"/>
      <point x="36" y="424"/>
      <point x="36" y="265" type="curve"/>
      <point x="12" y="265"/>
      <point x="189" y="265"/>
    </contour>
  </outline>
</glyph>
<glyph name="thorn" format="1">
  <advance width="527"/>
  <unicode hex="00FE"/>
  <outline>
    <contour>
      <point x="140" y="-190" type="curve"/>
      <point x="7" y="-190"/>
      <point x="140" y="-190"/>
      <point x="7" y="-190" type="curve"/>
      <point x="7" y="-300"/>
      <point x="7" y="-190"/>
      <point x="7" y="-300" type="curve"/>
      <point x="51" y="-300"/>
      <point x="95" y="-300"/>
      <point x="140" y="-300" type="curve"/>
      <point x="140" y="-190"/>
      <point x="140" y="-300"/>
    </contour>
    <contour>
      <point x="140" y="-300" type="curve"/>
      <point x="183" y="-300"/>
      <point x="225" y="-300"/>
      <point x="267" y="-300" type="curve"/>
      <point x="267" y="-190"/>
      <point x="267" y="-300"/>
      <point x="267" y="-190" type="curve"/>
      <point x="140" y="-190"/>
      <point x="267" y="-190"/>
      <point x="140" y="-190" type="curve"/>
      <point x="140" y="-300"/>
      <point x="140" y="-190"/>
    </contour>
    <contour>
      <point x="141" y="743" type="curve"/>
      <point x="96" y="743"/>
      <point x="52" y="743"/>
      <point x="8" y="743" type="curve"/>
      <point x="8" y="634"/>
      <point x="8" y="743"/>
      <point x="8" y="634" type="curve"/>
      <point x="141" y="634"/>
      <point x="8" y="634"/>
      <point x="141" y="634" type="curve"/>
      <point x="141" y="743"/>
      <point x="141" y="634"/>
    </contour>
    <contour>
      <point x="175" y="347" type="curve"/>
      <point x="193" y="379"/>
      <point x="226" y="424"/>
      <point x="275" y="424" type="curve"/>
      <point x="349" y="424"/>
      <point x="352" y="344"/>
      <point x="352" y="261" type="curve"/>
      <point x="353" y="183"/>
      <point x="349" y="104"/>
      <point x="278" y="104" type="curve"/>
      <point x="236" y="104"/>
      <point x="205" y="126"/>
      <point x="185" y="161" type="curve"/>
      <point x="144" y="102"/>
      <point x="185" y="161"/>
      <point x="144" y="102" type="curve"/>
      <point x="185" y="37"/>
      <point x="233" y="-5"/>
      <point x="306" y="-5" type="curve"/>
      <point x="452" y="-5"/>
      <point x="492" y="125"/>
      <point x="492" y="267" type="curve"/>
      <point x="492" y="409"/>
      <point x="451" y="539"/>
      <point x="305" y="539" type="curve"/>
      <point x="234" y="539"/>
      <point x="184" y="480"/>
      <point x="153" y="423" type="curve"/>
      <point x="175" y="347"/>
      <point x="153" y="423"/>
    </contour>
    <contour>
      <point x="210" y="-300" type="curve"/>
      <point x="210" y="-22"/>
      <point x="210" y="465"/>
      <point x="210" y="743" type="curve"/>
      <point x="70" y="743"/>
      <point x="210" y="743"/>
      <point x="70" y="743" type="curve"/>
      <point x="70" y="465"/>
      <point x="70" y="-22"/>
      <point x="70" y="-300" type="curve"/>
      <point x="210" y="-300"/>
      <point x="70" y="-300"/>
    </contour>
  </outline>
</glyph>
<glyph name="Aogonek" format="1">
  <advance width="620"/>
  <unicode hex="0104"/>
  <outline>
    <contour>
      <point x="124" y="109" type="curve"/>
      <point x="-14" y="109"/>
      <point x="136" y="109"/>
      <point x="-3" y="109" type="curve"/>
      <point x="-3" y="0"/>
      <point x="-3" y="109"/>
      <point x="-3" y="0" type="curve"/>
      <point x="43" y="0"/>
      <point x="78" y="0"/>
      <point x="123" y="0" type="curve"/>
      <point x="124" y="109"/>
      <point x="123" y="0"/>
    </contour>
    <contour>
      <point x="124" y="0" type="curve"/>
      <point x="179" y="0"/>
      <point x="124" y="0"/>
      <point x="288" y="0" type="curve"/>
      <point x="288" y="109"/>
      <point x="288" y="0"/>
      <point x="288" y="109" type="curve"/>
      <point x="124" y="109"/>
      <point x="288" y="109"/>
      <point x="124" y="109" type="curve"/>
      <point x="124" y="0"/>
      <point x="124" y="109"/>
    </contour>
    <contour>
      <point x="489" y="0" type="curve"/>
      <point x="534" y="0"/>
      <point x="569" y="0"/>
      <point x="615" y="0" type="curve"/>
      <point x="615" y="109"/>
      <point x="615" y="0"/>
      <point x="615" y="109" type="curve"/>
      <point x="478" y="109"/>
      <point x="627" y="109"/>
      <point x="489" y="109" type="curve"/>
      <point x="489" y="0"/>
      <point x="489" y="109"/>
    </contour>
    <contour>
      <point x="489" y="109" type="curve"/>
      <point x="324" y="109"/>
      <point x="489" y="109"/>
      <point x="324" y="109" type="curve"/>
      <point x="324" y="0"/>
      <point x="324" y="109"/>
      <point x="324" y="0" type="curve"/>
      <point x="379" y="0"/>
      <point x="433" y="0"/>
      <point x="489" y="0" type="curve"/>
      <point x="489" y="109"/>
      <point x="489" y="0"/>
    </contour>
    <contour>
      <point x="409" y="291" type="curve"/>
      <point x="346" y="291"/>
      <point x="283" y="291"/>
      <point x="220" y="291" type="curve"/>
      <point x="162" y="174"/>
      <point x="220" y="291"/>
      <point x="162" y="174" type="curve"/>
      <point x="259" y="174"/>
      <point x="357" y="174"/>
      <point x="454" y="174" type="curve"/>
      <point x="409" y="291"/>
      <point x="454" y="174"/>
    </contour>
    <contour>
      <point x="570" y="0" type="curve"/>
      <point x="509" y="241"/>
      <point x="442" y="481"/>
      <point x="381" y="722" type="curve"/>
      <point x="253" y="722"/>
      <point x="381" y="722"/>
      <point x="253" y="722" type="curve"/>
      <point x="312" y="482"/>
      <point x="364" y="240"/>
      <point x="424" y="0" type="curve"/>
      <point x="570" y="0"/>
      <point x="424" y="0"/>
    </contour>
    <contour>
      <point x="193" y="0" type="curve"/>
      <point x="259" y="240"/>
      <point x="313" y="482"/>
      <point x="380" y="722" type="curve"/>
      <point x="253" y="722"/>
      <point x="380" y="722"/>
      <point x="253" y="722" type="curve"/>
      <point x="185" y="480"/>
      <point x="106" y="242"/>
      <point x="40" y="0" type="curve"/>
      <point x="193" y="0"/>
      <point x="40" y="0"/>
    </contour>
    <contour>
      <point x="525" y="80" type="curve"/>
      <point x="467" y="44"/>
      <point x="417" y="16"/>
      <point x="417" y="-51" type="curve"/>
      <point x="417" y="-126"/>
      <point x="457" y="-179"/>
      <point x="530" y="-179" type="curve"/>
      <point x="564" y="-179"/>
      <point x="588" y="-168"/>
      <point x="615" y="-146" type="curve"/>
      <point x="551" y="-59"/>
      <point x="615" y="-146"/>
      <point x="551" y="-59" type="curve"/>
      <point x="547" y="-62"/>
      <point x="541" y="-69"/>
      <point x="535" y="-69" type="curve"/>
      <point x="528" y="-69"/>
      <point x="523" y="-61"/>
      <point x="523" y="-52" type="curve"/>
      <point x="523" y="-25"/>
      <point x="554" y="-12"/>
      <point x="576" y="4" type="curve"/>
      <point x="525" y="80"/>
      <point x="576" y="4"/>
    </contour>
  </outline>
</glyph>
<glyph name="Cacute" format="1">
  <advance width="563"/>
  <unicode hex="0106"/>
  <outline>
    <contour>
      <point x="396" y="654" type="curve"/>
      <point x="396" y="534"/>
      <point x="396" y="662"/>
      <point x="396" y="542" type="curve"/>
      <point x="506" y="542"/>
      <point x="396" y="542"/>
      <point x="506" y="542" type="curve"/>
      <point x="506" y="662"/>
      <point x="506" y="534"/>
      <point x="506" y="654" type="curve"/>
      <point x="396" y="654"/>
      <point x="506" y="654"/>
    </contour>
    <contour>
      <point x="506" y="654" type="curve"/>
      <point x="455" y="697"/>
      <point x="390" y="727"/>
      <point x="316" y="727" type="curve"/>
      <point x="125" y="727"/>
      <point x="45" y="565"/>
      <point x="45" y="345" type="curve"/>
      <point x="45" y="144"/>
      <point x="124" y="-5"/>
      <point x="305" y="-5" type="curve"/>
      <point x="400" y="-5"/>
      <point x="467" y="30"/>
      <point x="520" y="101" type="curve"/>
      <point x="434" y="180"/>
      <point x="520" y="101"/>
      <point x="434" y="180" type="curve"/>
      <point x="399" y="138"/>
      <point x="367" y="109"/>
      <point x="312" y="109" type="curve"/>
      <point x="204" y="109"/>
      <point x="186" y="220"/>
      <point x="186" y="350" type="curve"/>
      <point x="186" y="492"/>
      <point x="199" y="613"/>
      <point x="311" y="613" type="curve"/>
      <point x="358" y="613"/>
      <point x="399" y="594"/>
      <point x="430" y="567" type="curve"/>
      <point x="506" y="654"/>
      <point x="430" y="567"/>
    </contour>
    <contour>
      <point x="373" y="779" type="line"/>
      <point x="487" y="945" type="line"/>
      <point x="317" y="945" type="line"/>
      <point x="242" y="779" type="line"/>
    </contour>
  </outline>
</glyph>
<glyph name="dcaron" format="1">
  <advance width="578"/>
  <unicode hex="010F"/>
  <outline>
    <contour>
      <point x="393" y="800" type="curve"/>
      <point x="349" y="800"/>
      <point x="306" y="800"/>
      <point x="262" y="800" type="curve"/>
      <point x="262" y="691"/>
      <point x="262" y="800"/>
      <point x="262" y="691" type="curve"/>
      <point x="395" y="691"/>
      <point x="262" y="691"/>
      <point x="395" y="691" type="curve"/>
      <point x="395" y="800"/>
      <point x="393" y="691"/>
    </contour>
    <contour>
      <point x="396" y="0" type="curve"/>
      <point x="440" y="0"/>
      <point x="484" y="0"/>
      <point x="529" y="0" type="curve"/>
      <point x="529" y="109"/>
      <point x="529" y="0"/>
      <point x="529" y="109" type="curve"/>
      <point x="396" y="109"/>
      <point x="529" y="109"/>
      <point x="396" y="109" type="curve"/>
      <point x="396" y="-1"/>
      <point x="396" y="110"/>
    </contour>
    <contour>
      <point x="394" y="460" type="curve"/>
      <point x="354" y="510"/>
      <point x="306" y="532"/>
      <point x="238" y="532" type="curve"/>
      <point x="96" y="532"/>
      <point x="37" y="407"/>
      <point x="37" y="262" type="curve"/>
      <point x="37" y="121"/>
      <point x="101" y="1"/>
      <point x="233" y="1" type="curve"/>
      <point x="308" y="1"/>
      <point x="361" y="35"/>
      <point x="394" y="105" type="curve"/>
      <point x="349" y="184"/>
      <point x="395" y="105"/>
      <point x="350" y="184" type="curve"/>
      <point x="332" y="144"/>
      <point x="309" y="110"/>
      <point x="264" y="110" type="curve"/>
      <point x="192" y="110"/>
      <point x="177" y="187"/>
      <point x="177" y="268" type="curve"/>
      <point x="177" y="348"/>
      <point x="197" y="423"/>
      <point x="269" y="423" type="curve"/>
      <point x="306" y="423"/>
      <point x="327" y="405"/>
      <point x="349" y="376" type="curve"/>
      <point x="393" y="461"/>
      <point x="350" y="374"/>
    </contour>
    <contour>
      <point x="468" y="0" type="curve"/>
      <point x="468" y="267"/>
      <point x="468" y="533"/>
      <point x="468" y="800" type="curve"/>
      <point x="322" y="800"/>
      <point x="468" y="800"/>
      <point x="322" y="800" type="curve"/>
      <point x="322" y="533"/>
      <point x="322" y="267"/>
      <point x="322" y="0" type="curve"/>
      <point x="468" y="0"/>
      <point x="322" y="0"/>
    </contour>
    <contour>
      <point x="602" y="561" type="line"/>
      <point x="695" y="561"/>
      <point x="756" y="630"/>
      <point x="756" y="737" type="curve"/>
      <point x="756" y="827"/>
      <point x="723" y="870"/>
      <point x="679" y="870" type="curve"/>
      <point x="638" y="870"/>
      <point x="609" y="845"/>
      <point x="609" y="799" type="curve"/>
      <point x="609" y="763"/>
      <point x="628" y="732"/>
      <point x="663" y="732" type="curve"/>
      <point x="664" y="708"/>
      <point x="664" y="651"/>
      <point x="602" y="638" type="curve"/>
    </contour>
  </outline>
</glyph>
<glyph name="Idotaccent" format="1">
  <advance width="341"/>
  <unicode hex="0130"/>
  <outline>
    <contour>
      <point x="172" y="722" type="curve"/>
      <point x="128" y="722"/>
      <point x="81" y="722"/>
      <point x="38" y="722" type="curve"/>
      <point x="38" y="613"/>
      <point x="38" y="722"/>
      <point x="38" y="613" type="curve"/>
      <point x="167" y="613"/>
      <point x="42" y="613"/>
      <point x="172" y="613" type="curve"/>
      <point x="172" y="722"/>
      <point x="172" y="613"/>
    </contour>
    <contour>
      <point x="172" y="613" type="curve"/>
      <point x="300" y="613"/>
      <point x="176" y="613"/>
      <point x="305" y="613" type="curve"/>
      <point x="305" y="722"/>
      <point x="305" y="613"/>
      <point x="305" y="722" type="curve"/>
      <point x="261" y="722"/>
      <point x="214" y="722"/>
      <point x="172" y="722" type="curve"/>
      <point x="172" y="613"/>
      <point x="172" y="722"/>
    </contour>
    <contour>
      <point x="172" y="0" type="curve"/>
      <point x="214" y="0"/>
      <point x="261" y="0"/>
      <point x="305" y="0" type="curve"/>
      <point x="305" y="109"/>
      <point x="305" y="0"/>
      <point x="305" y="109" type="curve"/>
      <point x="176" y="109"/>
      <point x="300" y="109"/>
      <point x="172" y="109" type="curve"/>
      <point x="172" y="0"/>
      <point x="172" y="109"/>
    </contour>
    <contour>
      <point x="172" y="109" type="curve"/>
      <point x="42" y="109"/>
      <point x="167" y="109"/>
      <point x="38" y="109" type="curve"/>
      <point x="38" y="0"/>
      <point x="38" y="109"/>
      <point x="38" y="0" type="curve"/>
      <point x="81" y="0"/>
      <point x="128" y="0"/>
      <point x="172" y="0" type="curve"/>
      <point x="172" y="109"/>
      <point x="172" y="0"/>
    </contour>
    <contour>
      <point x="240" y="0" type="curve"/>
      <point x="240" y="241"/>
      <point x="240" y="481"/>
      <point x="240" y="722" type="curve"/>
      <point x="100" y="722"/>
      <point x="240" y="722"/>
      <point x="100" y="722" type="curve"/>
      <point x="100" y="481"/>
      <point x="100" y="241"/>
      <point x="100" y="0" type="curve"/>
      <point x="240" y="0"/>
      <point x="100" y="0"/>
    </contour>
    <contour>
      <point x="245" y="842" type="curve"/>
      <point x="245" y="890"/>
      <point x="215" y="914"/>
      <point x="174" y="914" type="curve"/>
      <point x="131" y="914"/>
      <point x="104" y="888"/>
      <point x="104" y="842" type="curve"/>
      <point x="245" y="842"/>
      <point x="104" y="842"/>
      <point x="245" y="842" type="curve"/>
      <point x="245" y="794"/>
      <point x="216" y="772"/>
      <point x="174" y="772" type="curve"/>
      <point x="130" y="772"/>
      <point x="104" y="796"/>
      <point x="104" y="842" type="curve"/>
      <point x="245" y="842"/>
      <point x="104" y="842"/>
    </contour>
  </outline>
</glyph>
<glyph name="lacute" format="1">
  <advance width="294"/>
  <unicode hex="013A"/>
  <outline>
    <contour>
      <point x="147" y="109" type="curve"/>
      <point x="18" y="109"/>
      <point x="147" y="109"/>
      <point x="18" y="109" type="curve"/>
      <point x="18" y="0"/>
      <point x="18" y="109"/>
      <point x="18" y="0" type="curve"/>
      <point x="61" y="0"/>
      <point x="104" y="0"/>
      <point x="147" y="0" type="curve"/>
      <point x="147" y="110"/>
      <point x="147" y="-1"/>
    </contour>
    <contour>
      <point x="149" y="800" type="curve"/>
      <point x="105" y="800"/>
      <point x="62" y="800"/>
      <point x="20" y="800" type="curve"/>
      <point x="19" y="691"/>
      <point x="20" y="800"/>
      <point x="19" y="691" type="curve"/>
      <point x="149" y="690"/>
      <point x="19" y="691"/>
      <point x="149" y="690" type="curve"/>
      <point x="149" y="799"/>
      <point x="149" y="691"/>
    </contour>
    <contour>
      <point x="147" y="0" type="curve"/>
      <point x="190" y="0"/>
      <point x="233" y="0"/>
      <point x="276" y="0" type="curve"/>
      <point x="276" y="109"/>
      <point x="276" y="0"/>
      <point x="276" y="109" type="curve"/>
      <point x="147" y="109"/>
      <point x="276" y="109"/>
      <point x="147" y="109" type="curve"/>
      <point x="147" y="-1"/>
      <point x="147" y="110"/>
    </contour>
    <contour>
      <point x="217" y="0" type="curve"/>
      <point x="217" y="267"/>
      <point x="217" y="533"/>
      <point x="217" y="800" type="curve"/>
      <point x="76" y="800"/>
      <point x="217" y="800"/>
      <point x="76" y="800" type="curve"/>
      <point x="76" y="533"/>
      <point x="76" y="267"/>
      <point x="76" y="0" type="curve"/>
      <point x="217" y="0"/>
      <point x="76" y="0"/>
    </contour>
    <contour>
      <point x="214" y="882" type="line"/>
      <point x="328" y="1048" type="line"/>
      <point x="158" y="1048" type="line"/>
      <point x="83" y="882" type="line"/>
    </contour>
  </outline>
</glyph>
<glyph name="Lcommaaccent" format="1">
  <advance width="467"/>
  <unicode hex="013B"/>
  <outline>
    <contour>
      <point x="452" y="55" type="curve"/>
      <point x="452" y="175"/>
      <point x="452" y="55"/>
      <point x="452" y="175" type="curve"/>
      <point x="341" y="175"/>
      <point x="452" y="175"/>
      <point x="341" y="175" type="curve"/>
      <point x="341" y="55"/>
      <point x="341" y="175"/>
      <point x="341" y="55" type="curve"/>
      <point x="452" y="55"/>
      <point x="341" y="55"/>
    </contour>
    <contour>
      <point x="171" y="109" type="curve"/>
      <point x="42" y="109"/>
      <point x="166" y="109"/>
      <point x="38" y="109" type="curve"/>
      <point x="37" y="0"/>
      <point x="38" y="109"/>
      <point x="37" y="0" type="curve"/>
      <point x="80" y="0"/>
      <point x="128" y="0"/>
      <point x="171" y="0" type="curve"/>
      <point x="171" y="109"/>
      <point x="171" y="0"/>
    </contour>
    <contour>
      <point x="171" y="722" type="curve"/>
      <point x="128" y="722"/>
      <point x="80" y="722"/>
      <point x="38" y="722" type="curve"/>
      <point x="37" y="613"/>
      <point x="38" y="722"/>
      <point x="37" y="613" type="curve"/>
      <point x="166" y="613"/>
      <point x="41" y="613"/>
      <point x="171" y="613" type="curve"/>
      <point x="171" y="722"/>
      <point x="171" y="613"/>
    </contour>
    <contour>
      <point x="171" y="613" type="curve"/>
      <point x="299" y="613"/>
      <point x="175" y="613"/>
      <point x="304" y="613" type="curve"/>
      <point x="304" y="722"/>
      <point x="304" y="613"/>
      <point x="304" y="722" type="curve"/>
      <point x="261" y="722"/>
      <point x="213" y="722"/>
      <point x="171" y="722" type="curve"/>
      <point x="171" y="613"/>
      <point x="171" y="722"/>
    </contour>
    <contour>
      <point x="241" y="0" type="curve"/>
      <point x="241" y="241"/>
      <point x="241" y="481"/>
      <point x="241" y="722" type="curve"/>
      <point x="101" y="722"/>
      <point x="241" y="722"/>
      <point x="101" y="722" type="curve"/>
      <point x="101" y="481"/>
      <point x="101" y="241"/>
      <point x="101" y="0" type="curve"/>
      <point x="241" y="0"/>
      <point x="101" y="0"/>
    </contour>
    <contour>
      <point x="171" y="0" type="curve"/>
      <point x="264" y="0"/>
      <point x="359" y="0"/>
      <point x="452" y="0" type="curve"/>
      <point x="452" y="109"/>
      <point x="452" y="0"/>
      <point x="452" y="109" type="curve"/>
      <point x="359" y="109"/>
      <point x="264" y="109"/>
      <point x="171" y="109" type="curve"/>
      <point x="171" y="0"/>
      <point x="171" y="109"/>
    </contour>
    <contour>
      <point x="169" y="-389" type="line"/>
      <point x="263" y="-389"/>
      <point x="323" y="-320"/>
      <point x="323" y="-213" type="curve"/>
      <point x="323" y="-123"/>
      <point x="291" y="-80"/>
      <point x="247" y="-80" type="curve"/>
      <point x="204" y="-80"/>
      <point x="177" y="-104"/>
      <point x="177" y="-151" type="curve"/>
      <point x="177" y="-187"/>
      <point x="195" y="-218"/>
      <point x="231" y="-218" type="curve"/>
      <point x="231" y="-241"/>
      <point x="232" y="-299"/>
      <point x="169" y="-311" type="curve"/>
    </contour>
  </outline>
</glyph>
<glyph name="Ncommaaccent" format="1">
  <advance width="687"/>
  <unicode hex="0145"/>
  <outline>
    <contour>
      <point x="167" y="722" type="curve"/>
      <point x="125" y="722"/>
      <point x="79" y="722"/>
      <point x="38" y="722" type="curve"/>
      <point x="38" y="613"/>
      <point x="38" y="722"/>
      <point x="38" y="613" type="curve"/>
      <point x="163" y="613"/>
      <point x="42" y="613"/>
      <point x="167" y="613" type="curve"/>
      <point x="167" y="722"/>
      <point x="167" y="613"/>
    </contour>
    <contour>
      <point x="529" y="613" type="curve"/>
      <point x="652" y="613"/>
      <point x="534" y="613"/>
      <point x="656" y="613" type="curve"/>
      <point x="656" y="722"/>
      <point x="656" y="613"/>
      <point x="656" y="722" type="curve"/>
      <point x="614" y="722"/>
      <point x="569" y="722"/>
      <point x="529" y="722" type="curve"/>
      <point x="529" y="613"/>
      <point x="529" y="722"/>
    </contour>
    <contour>
      <point x="526" y="722" type="curve"/>
      <point x="486" y="722"/>
      <point x="442" y="722"/>
      <point x="404" y="722" type="curve"/>
      <point x="404" y="613"/>
      <point x="404" y="722"/>
      <point x="404" y="613" type="curve"/>
      <point x="522" y="613"/>
      <point x="408" y="613"/>
      <point x="526" y="613" type="curve"/>
      <point x="526" y="722"/>
      <point x="526" y="613"/>
    </contour>
    <contour>
      <point x="166" y="109" type="curve"/>
      <point x="42" y="109"/>
      <point x="162" y="109"/>
      <point x="38" y="109" type="curve"/>
      <point x="37" y="0"/>
      <point x="38" y="109"/>
      <point x="37" y="0" type="curve"/>
      <point x="78" y="0"/>
      <point x="124" y="0"/>
      <point x="166" y="0" type="curve"/>
      <point x="166" y="109"/>
      <point x="166" y="0"/>
    </contour>
    <contour>
      <point x="166" y="0" type="curve"/>
      <point x="204" y="0"/>
      <point x="171" y="0"/>
      <point x="288" y="0" type="curve"/>
      <point x="288" y="109"/>
      <point x="288" y="0"/>
      <point x="288" y="109" type="curve"/>
      <point x="171" y="109"/>
      <point x="283" y="109"/>
      <point x="166" y="109" type="curve"/>
      <point x="166" y="0"/>
      <point x="166" y="109"/>
    </contour>
    <contour>
      <point x="597" y="0" type="curve"/>
      <point x="477" y="241"/>
      <point x="357" y="481"/>
      <point x="238" y="722" type="curve"/>
      <point x="98" y="722"/>
      <point x="238" y="722"/>
      <point x="98" y="722" type="curve"/>
      <point x="216" y="481"/>
      <point x="336" y="241"/>
      <point x="456" y="0" type="curve"/>
      <point x="597" y="0"/>
      <point x="456" y="0"/>
    </contour>
    <contour>
      <point x="454" y="722" type="curve"/>
      <point x="454" y="481"/>
      <point x="454" y="241"/>
      <point x="454" y="0" type="curve"/>
      <point x="595" y="0"/>
      <point x="454" y="0"/>
      <point x="595" y="0" type="curve"/>
      <point x="595" y="241"/>
      <point x="595" y="481"/>
      <point x="595" y="722" type="curve"/>
      <point x="454" y="722"/>
      <point x="595" y="722"/>
    </contour>
    <contour>
      <point x="236" y="0" type="curve"/>
      <point x="236" y="241"/>
      <point x="236" y="481"/>
      <point x="236" y="722" type="curve"/>
      <point x="95" y="722"/>
      <point x="236" y="722"/>
      <point x="95" y="722" type="curve"/>
      <point x="95" y="481"/>
      <point x="95" y="241"/>
      <point x="95" y="0" type="curve"/>
      <point x="236" y="0"/>
      <point x="95" y="0"/>
    </contour>
    <contour>
      <point x="277" y="-389" type="line"/>
      <point x="370" y="-389"/>
      <point x="431" y="-320"/>
      <point x="431" y="-213" type="curve"/>
      <point x="431" y="-123"/>
      <point x="399" y="-80"/>
      <point x="355" y="-80" type="curve"/>
      <point x="312" y="-80"/>
      <point x="285" y="-105"/>
      <point x="285" y="-151" type="curve"/>
      <point x="285" y="-187"/>
      <point x="303" y="-218"/>
      <point x="339" y="-218" type="curve"/>
      <point x="339" y="-242"/>
      <point x="340" y="-299"/>
      <point x="277" y="-312" type="curve"/>
    </contour>
  </outline>
</glyph>
<glyph name="ncommaaccent" format="1">
  <advance width="543"/>
  <unicode hex="0146"/>
  <outline>
    <contour>
      <point x="201" y="266" type="curve"/>
      <point x="212" y="342"/>
      <point x="237" y="424"/>
      <point x="286" y="424" type="curve"/>
      <point x="338" y="424"/>
      <point x="336" y="371"/>
      <point x="336" y="308" type="curve"/>
      <point x="336" y="207"/>
      <point x="336" y="102"/>
      <point x="336" y="0" type="curve"/>
      <point x="492" y="0"/>
      <point x="321" y="0"/>
      <point x="476" y="0" type="curve"/>
      <point x="476" y="105"/>
      <point x="476" y="215"/>
      <point x="476" y="319" type="curve"/>
      <point x="476" y="442"/>
      <point x="457" y="538"/>
      <point x="341" y="538" type="curve"/>
      <point x="256" y="538"/>
      <point x="188" y="462"/>
      <point x="168" y="331" type="curve"/>
      <point x="210" y="262"/>
      <point x="158" y="334"/>
    </contour>
    <contour>
      <point x="406" y="0" type="curve"/>
      <point x="448" y="0"/>
      <point x="495" y="0"/>
      <point x="539" y="0" type="curve"/>
      <point x="539" y="109"/>
      <point x="539" y="0"/>
      <point x="539" y="109" type="curve"/>
      <point x="410" y="109"/>
      <point x="534" y="109"/>
      <point x="406" y="109" type="curve"/>
      <point x="406" y="0"/>
      <point x="406" y="109"/>
    </contour>
    <contour>
      <point x="158" y="109" type="curve"/>
      <point x="29" y="109"/>
      <point x="154" y="109"/>
      <point x="24" y="109" type="curve"/>
      <point x="24" y="0"/>
      <point x="24" y="109"/>
      <point x="24" y="0" type="curve"/>
      <point x="67" y="0"/>
      <point x="115" y="0"/>
      <point x="158" y="0" type="curve"/>
      <point x="158" y="109"/>
      <point x="158" y="0"/>
    </contour>
    <contour>
      <point x="158" y="0" type="curve"/>
      <point x="199" y="0"/>
      <point x="163" y="0"/>
      <point x="284" y="0" type="curve"/>
      <point x="284" y="109"/>
      <point x="284" y="0"/>
      <point x="284" y="109" type="curve"/>
      <point x="163" y="109"/>
      <point x="280" y="109"/>
      <point x="158" y="109" type="curve"/>
      <point x="158" y="0"/>
      <point x="158" y="109"/>
    </contour>
    <contour>
      <point x="228" y="0" type="curve"/>
      <point x="228" y="178"/>
      <point x="228" y="355"/>
      <point x="228" y="533" type="curve"/>
      <point x="88" y="533"/>
      <point x="228" y="533"/>
      <point x="88" y="533" type="curve"/>
      <point x="88" y="355"/>
      <point x="88" y="178"/>
      <point x="88" y="0" type="curve"/>
      <point x="228" y="0"/>
      <point x="88" y="0"/>
    </contour>
    <contour>
      <point x="158" y="533" type="curve"/>
      <point x="115" y="533"/>
      <point x="67" y="533"/>
      <point x="24" y="533" type="curve"/>
      <point x="24" y="424"/>
      <point x="24" y="533"/>
      <point x="24" y="424" type="curve"/>
      <point x="154" y="424"/>
      <point x="29" y="424"/>
      <point x="158" y="424" type="curve"/>
      <point x="158" y="533"/>
      <point x="158" y="424"/>
    </contour>
    <contour>
      <point x="201" y="-391" type="line"/>
      <point x="294" y="-391"/>
      <point x="355" y="-321"/>
      <point x="355" y="-215" type="curve"/>
      <point x="355" y="-125"/>
      <point x="322" y="-81"/>
      <point x="279" y="-81" type="curve"/>
      <point x="236" y="-81"/>
      <point x="209" y="-106"/>
      <point x="209" y="-153" type="curve"/>
      <point x="209" y="-189"/>
      <point x="226" y="-219"/>
      <point x="263" y="-219" type="curve"/>
      <point x="263" y="-243"/>
      <point x="264" y="-301"/>
      <point x="201" y="-313" type="curve"/>
    </contour>
  </outline>
</glyph>
<glyph name="Ncaron" format="1">
  <advance width="687"/>
  <unicode hex="0147"/>
  <outline>
    <contour>
      <point x="167" y="722" type="curve"/>
      <point x="125" y="722"/>
      <point x="79" y="722"/>
      <point x="38" y="722" type="curve"/>
      <point x="38" y="613"/>
      <point x="38" y="722"/>
      <point x="38" y="613" type="curve"/>
      <point x="163" y="613"/>
      <point x="42" y="613"/>
      <point x="167" y="613" type="curve"/>
      <point x="167" y="722"/>
      <point x="167" y="613"/>
    </contour>
    <contour>
      <point x="529" y="613" type="curve"/>
      <point x="652" y="613"/>
      <point x="534" y="613"/>
      <point x="656" y="613" type="curve"/>
      <point x="656" y="722"/>
      <point x="656" y="613"/>
      <point x="656" y="722" type="curve"/>
      <point x="614" y="722"/>
      <point x="569" y="722"/>
      <point x="529" y="722" type="curve"/>
      <point x="529" y="613"/>
      <point x="529" y="722"/>
    </contour>
    <contour>
      <point x="526" y="722" type="curve"/>
      <point x="486" y="722"/>
      <point x="442" y="722"/>
      <point x="404" y="722" type="curve"/>
      <point x="404" y="613"/>
      <point x="404" y="722"/>
      <point x="404" y="613" type="curve"/>
      <point x="522" y="613"/>
      <point x="408" y="613"/>
      <point x="526" y="613" type="curve"/>
      <point x="526" y="722"/>
      <point x="526" y="613"/>
    </contour>
    <contour>
      <point x="166" y="109" type="curve"/>
      <point x="42" y="109"/>
      <point x="162" y="109"/>
      <point x="38" y="109" type="curve"/>
      <point x="37" y="0"/>
      <point x="38" y="109"/>
      <point x="37" y="0" type="curve"/>
      <point x="78" y="0"/>
      <point x="124" y="0"/>
      <point x="166" y="0" type="curve"/>
      <point x="166" y="109"/>
      <point x="166" y="0"/>
    </contour>
    <contour>
      <point x="166" y="0" type="curve"/>
      <point x="204" y="0"/>
      <point x="171" y="0"/>
      <point x="288" y="0" type="curve"/>
      <point x="288" y="109"/>
      <point x="288" y="0"/>
      <point x="288" y="109" type="curve"/>
      <point x="171" y="109"/>
      <point x="283" y="109"/>
      <point x="166" y="109" type="curve"/>
      <point x="166" y="0"/>
      <point x="166" y="109"/>
    </contour>
    <contour>
      <point x="597" y="0" type="curve"/>
      <point x="477" y="241"/>
      <point x="357" y="481"/>
      <point x="238" y="722" type="curve"/>
      <point x="98" y="722"/>
      <point x="238" y="722"/>
      <point x="98" y="722" type="curve"/>
      <point x="216" y="481"/>
      <point x="336" y="241"/>
      <point x="456" y="0" type="curve"/>
      <point x="597" y="0"/>
      <point x="456" y="0"/>
    </contour>
    <contour>
      <point x="454" y="722" type="curve"/>
      <point x="454" y="481"/>
      <point x="454" y="241"/>
      <point x="454" y="0" type="curve"/>
      <point x="595" y="0"/>
      <point x="454" y="0"/>
      <point x="595" y="0" type="curve"/>
      <point x="595" y="241"/>
      <point x="595" y="481"/>
      <point x="595" y="722" type="curve"/>
      <point x="454" y="722"/>
      <point x="595" y="722"/>
    </contour>
    <contour>
      <point x="236" y="0" type="curve"/>
      <point x="236" y="241"/>
      <point x="236" y="481"/>
      <point x="236" y="722" type="curve"/>
      <point x="95" y="722"/>
      <point x="236" y="722"/>
      <point x="95" y="722" type="curve"/>
      <point x="95" y="481"/>
      <point x="95" y="241"/>
      <point x="95" y="0" type="curve"/>
      <point x="236" y="0"/>
      <point x="95" y="0"/>
    </contour>
    <contour>
      <point x="400" y="947" type="line"/>
      <point x="287" y="781" type="line"/>
      <point x="457" y="781" type="line"/>
      <point x="532" y="947" type="line"/>
    </contour>
    <contour>
      <point x="160" y="947" type="line"/>
      <point x="235" y="781" type="line"/>
      <point x="405" y="781" type="line"/>
      <point x="291" y="947" type="line"/>
    </contour>
  </outline>
</glyph>
<glyph name="Racute" format="1">
  <advance width="594"/>
  <unicode hex="0154"/>
  <outline>
    <contour>
      <point x="502" y="0" type="curve"/>
      <point x="528" y="0"/>
      <point x="555" y="0"/>
      <point x="583" y="0" type="curve"/>
      <point x="583" y="109"/>
      <point x="583" y="0"/>
      <point x="583" y="109" type="curve"/>
      <point x="502" y="109"/>
      <point x="583" y="109"/>
      <point x="502" y="109" type="curve"/>
      <point x="502" y="0"/>
      <point x="502" y="109"/>
    </contour>
    <contour>
      <point x="190" y="722" type="curve"/>
      <point x="146" y="722"/>
      <point x="102" y="722"/>
      <point x="60" y="722" type="curve"/>
      <point x="60" y="613"/>
      <point x="60" y="722"/>
      <point x="60" y="613" type="curve"/>
      <point x="190" y="613"/>
      <point x="60" y="613"/>
      <point x="190" y="613" type="curve"/>
      <point x="190" y="722"/>
      <point x="190" y="613"/>
    </contour>
    <contour>
      <point x="190" y="109" type="curve"/>
      <point x="60" y="109"/>
      <point x="190" y="109"/>
      <point x="60" y="109" type="curve"/>
      <point x="60" y="0"/>
      <point x="60" y="109"/>
      <point x="60" y="0" type="curve"/>
      <point x="102" y="0"/>
      <point x="146" y="0"/>
      <point x="190" y="0" type="curve"/>
      <point x="190" y="109"/>
      <point x="190" y="0"/>
    </contour>
    <contour>
      <point x="190" y="0" type="curve"/>
      <point x="233" y="0"/>
      <point x="190" y="0"/>
      <point x="318" y="0" type="curve"/>
      <point x="318" y="109"/>
      <point x="318" y="0"/>
      <point x="318" y="109" type="curve"/>
      <point x="190" y="109"/>
      <point x="318" y="109"/>
      <point x="190" y="109" type="curve"/>
      <point x="190" y="0"/>
      <point x="190" y="109"/>
    </contour>
    <contour>
      <point x="259" y="354" type="curve"/>
      <point x="316" y="236"/>
      <point x="373" y="118"/>
      <point x="430" y="0" type="curve"/>
      <point x="576" y="0"/>
      <point x="430" y="-5"/>
      <point x="576" y="-5" type="curve"/>
      <point x="517" y="115"/>
      <point x="458" y="234"/>
      <point x="400" y="354" type="curve"/>
      <point x="259" y="354"/>
      <point x="400" y="354"/>
    </contour>
    <contour>
      <point x="261" y="0" type="curve"/>
      <point x="261" y="241"/>
      <point x="261" y="481"/>
      <point x="261" y="722" type="curve"/>
      <point x="121" y="722"/>
      <point x="261" y="722"/>
      <point x="121" y="722" type="curve"/>
      <point x="121" y="481"/>
      <point x="121" y="241"/>
      <point x="121" y="0" type="curve"/>
      <point x="261" y="0"/>
      <point x="121" y="0"/>
    </contour>
    <contour>
      <point x="192" y="297" type="curve"/>
      <point x="236" y="297"/>
      <point x="279" y="297"/>
      <point x="321" y="297" type="curve"/>
      <point x="444" y="297"/>
      <point x="515" y="382"/>
      <point x="515" y="519" type="curve"/>
      <point x="515" y="643"/>
      <point x="444" y="722"/>
      <point x="322" y="722" type="curve"/>
      <point x="279" y="722"/>
      <point x="236" y="722"/>
      <point x="192" y="722" type="curve"/>
      <point x="192" y="613"/>
      <point x="192" y="722"/>
      <point x="192" y="613" type="curve"/>
      <point x="227" y="613"/>
      <point x="263" y="613"/>
      <point x="297" y="613" type="curve"/>
      <point x="351" y="613"/>
      <point x="375" y="566"/>
      <point x="375" y="508" type="curve"/>
      <point x="375" y="454"/>
      <point x="361" y="408"/>
      <point x="312" y="408" type="curve"/>
      <point x="272" y="408"/>
      <point x="231" y="408"/>
      <point x="192" y="408" type="curve"/>
      <point x="192" y="297"/>
      <point x="192" y="408"/>
    </contour>
    <contour>
      <point x="343" y="779" type="line"/>
      <point x="456" y="945" type="line"/>
      <point x="286" y="945" type="line"/>
      <point x="211" y="779" type="line"/>
    </contour>
  </outline>
</glyph>
<glyph name="racute" format="1">
  <advance width="361"/>
  <unicode hex="0155"/>
  <outline>
    <contour>
      <point x="179" y="0" type="curve"/>
      <point x="219" y="0"/>
      <point x="263" y="0"/>
      <point x="305" y="0" type="curve"/>
      <point x="305" y="120"/>
      <point x="305" y="-11"/>
      <point x="305" y="109" type="curve"/>
      <point x="164" y="109"/>
      <point x="319" y="109"/>
      <point x="179" y="109" type="curve"/>
      <point x="179" y="-11"/>
      <point x="179" y="120"/>
    </contour>
    <contour>
      <point x="179" y="109" type="curve"/>
      <point x="31" y="109"/>
      <point x="194" y="109"/>
      <point x="46" y="109" type="curve"/>
      <point x="45" y="-11"/>
      <point x="46" y="120"/>
      <point x="45" y="0" type="curve"/>
      <point x="88" y="0"/>
      <point x="136" y="0"/>
      <point x="179" y="0" type="curve"/>
      <point x="179" y="120"/>
      <point x="179" y="-11"/>
    </contour>
    <contour>
      <point x="178" y="533" type="curve"/>
      <point x="135" y="533"/>
      <point x="88" y="533"/>
      <point x="45" y="533" type="curve"/>
      <point x="45" y="413"/>
      <point x="45" y="544"/>
      <point x="45" y="424" type="curve"/>
      <point x="193" y="424"/>
      <point x="30" y="424"/>
      <point x="178" y="424" type="curve"/>
      <point x="178" y="544"/>
      <point x="178" y="413"/>
    </contour>
    <contour>
      <point x="249" y="0" type="curve"/>
      <point x="249" y="174"/>
      <point x="249" y="359"/>
      <point x="249" y="533" type="curve"/>
      <point x="94" y="533"/>
      <point x="264" y="533"/>
      <point x="108" y="533" type="curve"/>
      <point x="108" y="359"/>
      <point x="108" y="174"/>
      <point x="108" y="0" type="curve"/>
      <point x="264" y="0"/>
      <point x="94" y="0"/>
    </contour>
    <contour>
      <point x="221" y="288" type="curve"/>
      <point x="246" y="404"/>
      <point x="293" y="427"/>
      <point x="346" y="427" type="curve"/>
      <point x="346" y="551"/>
      <point x="346" y="414"/>
      <point x="346" y="538" type="curve"/>
      <point x="261" y="538"/>
      <point x="198" y="443"/>
      <point x="169" y="335" type="curve"/>
      <point x="223" y="278"/>
      <point x="169" y="345"/>
    </contour>
    <contour>
      <point x="244" y="609" type="line"/>
      <point x="357" y="775" type="line"/>
      <point x="187" y="775" type="line"/>
      <point x="112" y="609" type="line"/>
    </contour>
  </outline>
</glyph>
<glyph name="rcaron" format="1">
  <advance width="370"/>
  <unicode hex="0159"/>
  <outline>
    <contour>
      <point x="178" y="0" type="curve"/>
      <point x="218" y="0"/>
      <point x="262" y="0"/>
      <point x="304" y="0" type="curve"/>
      <point x="304" y="120"/>
      <point x="304" y="-11"/>
      <point x="304" y="109" type="curve"/>
      <point x="163" y="109"/>
      <point x="318" y="109"/>
      <point x="178" y="109" type="curve"/>
      <point x="178" y="-11"/>
      <point x="178" y="120"/>
    </contour>
    <contour>
      <point x="178" y="109" type="curve"/>
      <point x="30" y="109"/>
      <point x="193" y="109"/>
      <point x="45" y="109" type="curve"/>
      <point x="44" y="-11"/>
      <point x="45" y="120"/>
      <point x="44" y="0" type="curve"/>
      <point x="87" y="0"/>
      <point x="134" y="0"/>
      <point x="178" y="0" type="curve"/>
      <point x="178" y="120"/>
      <point x="178" y="-11"/>
    </contour>
    <contour>
      <point x="177" y="533" type="curve"/>
      <point x="133" y="533"/>
      <point x="86" y="533"/>
      <point x="44" y="533" type="curve"/>
      <point x="44" y="413"/>
      <point x="44" y="544"/>
      <point x="44" y="424" type="curve"/>
      <point x="192" y="424"/>
      <point x="29" y="424"/>
      <point x="177" y="424" type="curve"/>
      <point x="177" y="544"/>
      <point x="177" y="413"/>
    </contour>
    <contour>
      <point x="248" y="0" type="curve"/>
      <point x="248" y="174"/>
      <point x="248" y="359"/>
      <point x="248" y="533" type="curve"/>
      <point x="92" y="533"/>
      <point x="262" y="533"/>
      <point x="107" y="533" type="curve"/>
      <point x="107" y="359"/>
      <point x="107" y="174"/>
      <point x="107" y="0" type="curve"/>
      <point x="262" y="0"/>
      <point x="92" y="0"/>
    </contour>
    <contour>
      <point x="219" y="288" type="curve"/>
      <point x="245" y="404"/>
      <point x="292" y="427"/>
      <point x="344" y="427" type="curve"/>
      <point x="344" y="551"/>
      <point x="344" y="414"/>
      <point x="344" y="538" type="curve"/>
      <point x="260" y="538"/>
      <point x="197" y="443"/>
      <point x="168" y="335" type="curve"/>
      <point x="220" y="278"/>
      <point x="167" y="345"/>
    </contour>
    <contour>
      <point x="232" y="777" type="line"/>
      <point x="118" y="611" type="line"/>
      <point x="288" y="611" type="line"/>
      <point x="363" y="777" type="line"/>
    </contour>
    <contour>
      <point x="-8" y="777" type="line"/>
      <point x="66" y="611" type="line"/>
      <point x="236" y="611" type="line"/>
      <point x="123" y="777" type="line"/>
    </contour>
  </outline>
</glyph>
<glyph name="sacute" format="1">
  <advance width="413"/>
  <unicode hex="015B"/>
  <outline>
    <contour>
      <point x="46" y="47" type="curve"/>
      <point x="95" y="15"/>
      <point x="146" y="-5"/>
      <point x="199" y="-5" type="curve"/>
      <point x="306" y="-5"/>
      <point x="374" y="55"/>
      <point x="374" y="162" type="curve"/>
      <point x="372" y="254"/>
      <point x="311" y="292"/>
      <point x="224" y="327" type="curve"/>
      <point x="195" y="338"/>
      <point x="176" y="358"/>
      <point x="176" y="388" type="curve"/>
      <point x="176" y="407"/>
      <point x="183" y="423"/>
      <point x="203" y="423" type="curve"/>
      <point x="227" y="423"/>
      <point x="254" y="407"/>
      <point x="270" y="394" type="curve"/>
      <point x="333" y="493"/>
      <point x="270" y="394"/>
      <point x="333" y="493" type="curve"/>
      <point x="306" y="516"/>
      <point x="251" y="538"/>
      <point x="206" y="538" type="curve"/>
      <point x="108" y="538"/>
      <point x="49" y="484"/>
      <point x="49" y="388" type="curve"/>
      <point x="49" y="301"/>
      <point x="97" y="255"/>
      <point x="179" y="223" type="curve"/>
      <point x="213" y="210"/>
      <point x="239" y="190"/>
      <point x="239" y="152" type="curve"/>
      <point x="239" y="128"/>
      <point x="225" y="114"/>
      <point x="206" y="114" type="curve"/>
      <point x="173" y="114"/>
      <point x="144" y="126"/>
      <point x="116" y="145" type="curve"/>
      <point x="46" y="47"/>
      <point x="116" y="145"/>
    </contour>
    <contour>
      <point x="223" y="493" type="curve"/>
      <point x="223" y="359"/>
      <point x="223" y="496"/>
      <point x="223" y="362" type="curve"/>
      <point x="333" y="362"/>
      <point x="223" y="362"/>
      <point x="333" y="362" type="curve"/>
      <point x="333" y="496"/>
      <point x="333" y="359"/>
      <point x="333" y="493" type="curve"/>
      <point x="223" y="493"/>
      <point x="333" y="493"/>
    </contour>
    <contour>
      <point x="157" y="47" type="curve"/>
      <point x="157" y="186"/>
      <point x="157" y="43"/>
      <point x="157" y="182" type="curve"/>
      <point x="46" y="182"/>
      <point x="157" y="182"/>
      <point x="46" y="182" type="curve"/>
      <point x="46" y="43"/>
      <point x="46" y="186"/>
      <point x="46" y="47" type="curve"/>
      <point x="157" y="47"/>
      <point x="46" y="47"/>
    </contour>
    <contour>
      <point x="271" y="609" type="line"/>
      <point x="385" y="775" type="line"/>
      <point x="215" y="775" type="line"/>
      <point x="140" y="609" type="line"/>
    </contour>
  </outline>
</glyph>
<glyph name="scaron" format="1">
  <advance width="393"/>
  <unicode hex="0161"/>
  <outline>
    <contour>
      <point x="40" y="47" type="curve"/>
      <point x="89" y="15"/>
      <point x="140" y="-5"/>
      <point x="194" y="-5" type="curve"/>
      <point x="301" y="-5"/>
      <point x="368" y="55"/>
      <point x="368" y="162" type="curve"/>
      <point x="367" y="254"/>
      <point x="305" y="292"/>
      <point x="218" y="327" type="curve"/>
      <point x="189" y="338"/>
      <point x="171" y="358"/>
      <point x="171" y="388" type="curve"/>
      <point x="171" y="407"/>
      <point x="178" y="423"/>
      <point x="197" y="423" type="curve"/>
      <point x="221" y="423"/>
      <point x="249" y="407"/>
      <point x="264" y="394" type="curve"/>
      <point x="328" y="493"/>
      <point x="264" y="394"/>
      <point x="328" y="493" type="curve"/>
      <point x="300" y="516"/>
      <point x="246" y="538"/>
      <point x="200" y="538" type="curve"/>
      <point x="103" y="538"/>
      <point x="43" y="484"/>
      <point x="43" y="388" type="curve"/>
      <point x="43" y="301"/>
      <point x="91" y="255"/>
      <point x="173" y="223" type="curve"/>
      <point x="208" y="210"/>
      <point x="233" y="190"/>
      <point x="233" y="152" type="curve"/>
      <point x="233" y="128"/>
      <point x="219" y="114"/>
      <point x="201" y="114" type="curve"/>
      <point x="167" y="114"/>
      <point x="139" y="126"/>
      <point x="111" y="145" type="curve"/>
      <point x="40" y="47"/>
      <point x="111" y="145"/>
    </contour>
    <contour>
      <point x="217" y="493" type="curve"/>
      <point x="217" y="359"/>
      <point x="217" y="496"/>
      <point x="217" y="362" type="curve"/>
      <point x="328" y="362"/>
      <point x="217" y="362"/>
      <point x="328" y="362" type="curve"/>
      <point x="328" y="496"/>
      <point x="328" y="359"/>
      <point x="328" y="493" type="curve"/>
      <point x="217" y="493"/>
      <point x="328" y="493"/>
    </contour>
    <contour>
      <point x="151" y="47" type="curve"/>
      <point x="151" y="186"/>
      <point x="151" y="43"/>
      <point x="151" y="182" type="curve"/>
      <point x="40" y="182"/>
      <point x="151" y="182"/>
      <point x="40" y="182" type="curve"/>
      <point x="40" y="43"/>
      <point x="40" y="186"/>
      <point x="40" y="47" type="curve"/>
      <point x="151" y="47"/>
      <point x="40" y="47"/>
    </contour>
    <contour>
      <point x="255" y="777" type="line"/>
      <point x="142" y="611" type="line"/>
      <point x="312" y="611" type="line"/>
      <point x="387" y="777" type="line"/>
    </contour>
    <contour>
      <point x="15" y="777" type="line"/>
      <point x="89" y="611" type="line"/>
      <point x="259" y="611" type="line"/>
      <point x="146" y="777" type="line"/>
    </contour>
  </outline>
</glyph>
<glyph name="Tcommaaccent" format="1">
  <advance width="454"/>
  <unicode hex="0162"/>
  <outline>
    <contour>
      <point x="20" y="666" type="curve"/>
      <point x="20" y="546"/>
      <point x="20" y="666"/>
      <point x="20" y="546" type="curve"/>
      <point x="130" y="546"/>
      <point x="20" y="546"/>
      <point x="130" y="546" type="curve"/>
      <point x="130" y="666"/>
      <point x="130" y="546"/>
      <point x="130" y="666" type="curve"/>
      <point x="20" y="666"/>
      <point x="130" y="666"/>
    </contour>
    <contour>
      <point x="324" y="666" type="curve"/>
      <point x="324" y="546"/>
      <point x="324" y="666"/>
      <point x="324" y="546" type="curve"/>
      <point x="434" y="546"/>
      <point x="324" y="546"/>
      <point x="434" y="546" type="curve"/>
      <point x="434" y="666"/>
      <point x="434" y="546"/>
      <point x="434" y="666" type="curve"/>
      <point x="324" y="666"/>
      <point x="434" y="666"/>
    </contour>
    <contour>
      <point x="226" y="0" type="curve"/>
      <point x="270" y="0"/>
      <point x="315" y="0"/>
      <point x="360" y="0" type="curve"/>
      <point x="360" y="109"/>
      <point x="360" y="0"/>
      <point x="360" y="109" type="curve"/>
      <point x="226" y="109"/>
      <point x="360" y="109"/>
      <point x="226" y="109" type="curve"/>
      <point x="226" y="0"/>
      <point x="226" y="109"/>
    </contour>
    <contour>
      <point x="226" y="109" type="curve"/>
      <point x="93" y="109"/>
      <point x="226" y="109"/>
      <point x="93" y="109" type="curve"/>
      <point x="93" y="0"/>
      <point x="93" y="109"/>
      <point x="93" y="0" type="curve"/>
      <point x="137" y="0"/>
      <point x="182" y="0"/>
      <point x="226" y="0" type="curve"/>
      <point x="226" y="109"/>
      <point x="226" y="0"/>
    </contour>
    <contour>
      <point x="297" y="0" type="curve"/>
      <point x="297" y="237"/>
      <point x="297" y="473"/>
      <point x="297" y="710" type="curve"/>
      <point x="157" y="710"/>
      <point x="297" y="710"/>
      <point x="157" y="710" type="curve"/>
      <point x="156" y="473"/>
      <point x="157" y="237"/>
      <point x="157" y="0" type="curve"/>
      <point x="297" y="0"/>
      <point x="157" y="0"/>
    </contour>
    <contour>
      <point x="20" y="606" type="curve"/>
      <point x="157" y="606"/>
      <point x="296" y="606"/>
      <point x="434" y="606" type="curve"/>
      <point x="434" y="727"/>
      <point x="434" y="601"/>
      <point x="434" y="722" type="curve"/>
      <point x="296" y="722"/>
      <point x="157" y="722"/>
      <point x="20" y="722" type="curve"/>
      <point x="20" y="601"/>
      <point x="20" y="727"/>
    </contour>
    <contour>
      <point x="149" y="-388" type="line"/>
      <point x="242" y="-388"/>
      <point x="303" y="-319"/>
      <point x="303" y="-213" type="curve"/>
      <point x="303" y="-122"/>
      <point x="270" y="-79"/>
      <point x="227" y="-79" type="curve"/>
      <point x="184" y="-79"/>
      <point x="157" y="-104"/>
      <point x="157" y="-151" type="curve"/>
      <point x="157" y="-186"/>
      <point x="174" y="-217"/>
      <point x="211" y="-217" type="curve"/>
      <point x="211" y="-241"/>
      <point x="212" y="-298"/>
      <point x="149" y="-311" type="curve"/>
    </contour>
  </outline>
</glyph>
<glyph name="umacron" format="1">
  <advance width="561"/>
  <unicode hex="016B"/>
  <outline>
    <contour>
      <point x="397" y="533" type="curve"/>
      <point x="353" y="533"/>
      <point x="307" y="533"/>
      <point x="263" y="533" type="curve"/>
      <point x="263" y="413"/>
      <point x="263" y="544"/>
      <point x="263" y="424" type="curve"/>
      <point x="413" y="424"/>
      <point x="248" y="424"/>
      <point x="397" y="424" type="curve"/>
      <point x="397" y="544"/>
      <point x="397" y="413"/>
    </contour>
    <contour>
      <point x="153" y="533" type="curve"/>
      <point x="109" y="533"/>
      <point x="62" y="533"/>
      <point x="19" y="533" type="curve"/>
      <point x="19" y="413"/>
      <point x="19" y="544"/>
      <point x="19" y="424" type="curve"/>
      <point x="169" y="424"/>
      <point x="4" y="424"/>
      <point x="153" y="424" type="curve"/>
      <point x="153" y="544"/>
      <point x="153" y="413"/>
    </contour>
    <contour>
      <point x="397" y="0" type="curve"/>
      <point x="439" y="0"/>
      <point x="482" y="0"/>
      <point x="523" y="0" type="curve"/>
      <point x="523" y="120"/>
      <point x="523" y="-11"/>
      <point x="523" y="109" type="curve"/>
      <point x="383" y="109"/>
      <point x="537" y="109"/>
      <point x="397" y="109" type="curve"/>
      <point x="397" y="-11"/>
      <point x="397" y="120"/>
    </contour>
    <contour>
      <point x="467" y="0" type="curve"/>
      <point x="467" y="176"/>
      <point x="467" y="357"/>
      <point x="467" y="533" type="curve"/>
      <point x="311" y="533"/>
      <point x="482" y="533"/>
      <point x="327" y="533" type="curve"/>
      <point x="327" y="357"/>
      <point x="327" y="176"/>
      <point x="327" y="0" type="curve"/>
      <point x="482" y="0"/>
      <point x="311" y="0"/>
    </contour>
    <contour>
      <point x="351" y="221" type="curve"/>
      <point x="332" y="179"/>
      <point x="314" y="111"/>
      <point x="269" y="111" type="curve"/>
      <point x="220" y="111"/>
      <point x="223" y="161"/>
      <point x="223" y="219" type="curve"/>
      <point x="223" y="322"/>
      <point x="223" y="429"/>
      <point x="223" y="533" type="curve"/>
      <point x="67" y="533"/>
      <point x="238" y="533"/>
      <point x="83" y="533" type="curve"/>
      <point x="83" y="427"/>
      <point x="83" y="318"/>
      <point x="83" y="214" type="curve"/>
      <point x="83" y="85"/>
      <point x="118" y="-5"/>
      <point x="248" y="-5" type="curve"/>
      <point x="326" y="-5"/>
      <point x="371" y="81"/>
      <point x="398" y="177" type="curve"/>
      <point x="344" y="227"/>
      <point x="405" y="170"/>
    </contour>
    <contour>
      <point x="327" y="719" type="curve"/>
      <point x="278" y="719"/>
      <point x="227" y="719"/>
      <point x="177" y="719" type="curve"/>
      <point x="177" y="610"/>
      <point x="177" y="719"/>
      <point x="177" y="610" type="curve"/>
      <point x="227" y="610"/>
      <point x="278" y="610"/>
      <point x="327" y="610" type="curve"/>
      <point x="327" y="719"/>
      <point x="327" y="610"/>
    </contour>
  </outline>
</glyph>
<glyph name="uring" format="1">
  <advance width="561"/>
  <unicode hex="016F"/>
  <outline>
    <contour>
      <point x="397" y="533" type="curve"/>
      <point x="353" y="533"/>
      <point x="307" y="533"/>
      <point x="263" y="533" type="curve"/>
      <point x="263" y="413"/>
      <point x="263" y="544"/>
      <point x="263" y="424" type="curve"/>
      <point x="413" y="424"/>
      <point x="248" y="424"/>
      <point x="397" y="424" type="curve"/>
      <point x="397" y="544"/>
      <point x="397" y="413"/>
    </contour>
    <contour>
      <point x="153" y="533" type="curve"/>
      <point x="109" y="533"/>
      <point x="62" y="533"/>
      <point x="19" y="533" type="curve"/>
      <point x="19" y="413"/>
      <point x="19" y="544"/>
      <point x="19" y="424" type="curve"/>
      <point x="169" y="424"/>
      <point x="4" y="424"/>
      <point x="153" y="424" type="curve"/>
      <point x="153" y="544"/>
      <point x="153" y="413"/>
    </contour>
    <contour>
      <point x="397" y="0" type="curve"/>
      <point x="439" y="0"/>
      <point x="482" y="0"/>
      <point x="523" y="0" type="curve"/>
      <point x="523" y="120"/>
      <point x="523" y="-11"/>
      <point x="523" y="109" type="curve"/>
      <point x="383" y="109"/>
      <point x="537" y="109"/>
      <point x="397" y="109" type="curve"/>
      <point x="397" y="-11"/>
      <point x="397" y="120"/>
    </contour>
    <contour>
      <point x="467" y="0" type="curve"/>
      <point x="467" y="176"/>
      <point x="467" y="357"/>
      <point x="467" y="533" type="curve"/>
      <point x="311" y="533"/>
      <point x="482" y="533"/>
      <point x="327" y="533" type="curve"/>
      <point x="327" y="357"/>
      <point x="327" y="176"/>
      <point x="327" y="0" type="curve"/>
      <point x="482" y="0"/>
      <point x="311" y="0"/>
    </contour>
    <contour>
      <point x="351" y="221" type="curve"/>
      <point x="332" y="179"/>
      <point x="314" y="111"/>
      <point x="269" y="111" type="curve"/>
      <point x="220" y="111"/>
      <point x="223" y="161"/>
      <point x="223" y="219" type="curve"/>
      <point x="223" y="322"/>
      <point x="223" y="429"/>
      <point x="223" y="533" type="curve"/>
      <point x="67" y="533"/>
      <point x="238" y="533"/>
      <point x="83" y="533" type="curve"/>
      <point x="83" y="427"/>
      <point x="83" y="318"/>
      <point x="83" y="214" type="curve"/>
      <point x="83" y="85"/>
      <point x="118" y="-5"/>
      <point x="248" y="-5" type="curve"/>
      <point x="326" y="-5"/>
      <point x="371" y="81"/>
      <point x="398" y="177" type="curve"/>
      <point x="344" y="227"/>
      <point x="405" y="170"/>
    </contour>
    <contour>
      <point x="115" y="756" type="curve"/>
      <point x="115" y="668"/>
      <point x="166" y="608"/>
      <point x="251" y="608" type="curve"/>
      <point x="336" y="608"/>
      <point x="387" y="667"/>
      <point x="387" y="756" type="curve"/>
      <point x="387" y="843"/>
      <point x="335" y="903"/>
      <point x="249" y="903" type="curve"/>
      <point x="164" y="903"/>
      <point x="115" y="842"/>
      <point x="115" y="756" type="curve"/>
      <point x="240" y="756"/>
      <point x="103" y="756"/>
      <point x="228" y="756" type="curve"/>
      <point x="228" y="775"/>
      <point x="223" y="802"/>
      <point x="249" y="802" type="curve"/>
      <point x="272" y="802"/>
      <point x="269" y="775"/>
      <point x="269" y="756" type="curve"/>
      <point x="269" y="736"/>
      <point x="275" y="710"/>
      <point x="251" y="710" type="curve"/>
      <point x="226" y="710"/>
      <point x="228" y="736"/>
      <point x="228" y="756" type="curve"/>
      <point x="103" y="756"/>
      <point x="240" y="756"/>
    </contour>
  </outline>
</glyph>
<glyph name="Uogonek" format="1">
  <advance width="670"/>
  <unicode hex="0172"/>
  <outline>
    <contour>
      <point x="504" y="613" type="curve"/>
      <point x="634" y="613"/>
      <point x="504" y="613"/>
      <point x="634" y="613" type="curve"/>
      <point x="634" y="722"/>
      <point x="634" y="613"/>
      <point x="634" y="722" type="curve"/>
      <point x="591" y="722"/>
      <point x="547" y="722"/>
      <point x="504" y="722" type="curve"/>
      <point x="504" y="613"/>
      <point x="504" y="722"/>
    </contour>
    <contour>
      <point x="504" y="722" type="curve"/>
      <point x="460" y="722"/>
      <point x="417" y="722"/>
      <point x="374" y="722" type="curve"/>
      <point x="374" y="613"/>
      <point x="374" y="722"/>
      <point x="374" y="613" type="curve"/>
      <point x="504" y="613"/>
      <point x="374" y="613"/>
      <point x="504" y="613" type="curve"/>
      <point x="504" y="722"/>
      <point x="504" y="613"/>
    </contour>
    <contour>
      <point x="170" y="722" type="curve"/>
      <point x="126" y="722"/>
      <point x="83" y="722"/>
      <point x="40" y="722" type="curve"/>
      <point x="41" y="613"/>
      <point x="40" y="722"/>
      <point x="41" y="613" type="curve"/>
      <point x="170" y="613"/>
      <point x="41" y="613"/>
      <point x="170" y="613" type="curve"/>
      <point x="170" y="722"/>
      <point x="170" y="613"/>
    </contour>
    <contour>
      <point x="170" y="613" type="curve"/>
      <point x="300" y="613"/>
      <point x="170" y="613"/>
      <point x="300" y="613" type="curve"/>
      <point x="300" y="722"/>
      <point x="300" y="613"/>
      <point x="300" y="722" type="curve"/>
      <point x="257" y="722"/>
      <point x="214" y="722"/>
      <point x="170" y="722" type="curve"/>
      <point x="170" y="613"/>
      <point x="170" y="722"/>
    </contour>
    <contour>
      <point x="105" y="675" type="curve"/>
      <point x="105" y="541"/>
      <point x="104" y="406"/>
      <point x="105" y="272" type="curve"/>
      <point x="105" y="98"/>
      <point x="170" y="-5"/>
      <point x="332" y="-5" type="curve"/>
      <point x="500" y="-5"/>
      <point x="568" y="103"/>
      <point x="568" y="283" type="curve"/>
      <point x="568" y="414"/>
      <point x="568" y="545"/>
      <point x="568" y="675" type="curve"/>
      <point x="440" y="675"/>
      <point x="568" y="675"/>
      <point x="440" y="675" type="curve"/>
      <point x="440" y="538"/>
      <point x="440" y="405"/>
      <point x="440" y="268" type="curve"/>
      <point x="440" y="182"/>
      <point x="416" y="116"/>
      <point x="342" y="116" type="curve"/>
      <point x="250" y="116"/>
      <point x="233" y="189"/>
      <point x="233" y="294" type="curve"/>
      <point x="233" y="421"/>
      <point x="233" y="549"/>
      <point x="233" y="675" type="curve"/>
      <point x="105" y="675"/>
      <point x="233" y="675"/>
    </contour>
    <contour>
      <point x="341" y="91" type="curve"/>
      <point x="283" y="55"/>
      <point x="233" y="26"/>
      <point x="233" y="-41" type="curve"/>
      <point x="233" y="-115"/>
      <point x="273" y="-169"/>
      <point x="346" y="-169" type="curve"/>
      <point x="380" y="-169"/>
      <point x="404" y="-158"/>
      <point x="431" y="-136" type="curve"/>
      <point x="367" y="-48"/>
      <point x="431" y="-136"/>
      <point x="367" y="-48" type="curve"/>
      <point x="363" y="-52"/>
      <point x="357" y="-59"/>
      <point x="352" y="-59" type="curve"/>
      <point x="344" y="-59"/>
      <point x="339" y="-51"/>
      <point x="339" y="-42" type="curve"/>
      <point x="339" y="-14"/>
      <point x="370" y="-2"/>
      <point x="392" y="15" type="curve"/>
      <point x="341" y="91"/>
      <point x="392" y="15"/>
    </contour>
  </outline>
</glyph>
<glyph name="Zcaron" format="1">
  <advance width="551"/>
  <unicode hex="017D"/>
  <outline>
    <contour>
      <point x="52" y="667" type="curve"/>
      <point x="52" y="547"/>
      <point x="52" y="667"/>
      <point x="52" y="547" type="curve"/>
      <point x="162" y="547"/>
      <point x="52" y="547"/>
      <point x="162" y="547" type="curve"/>
      <point x="162" y="667"/>
      <point x="162" y="547"/>
      <point x="162" y="667" type="curve"/>
      <point x="52" y="667"/>
      <point x="162" y="667"/>
    </contour>
    <contour>
      <point x="506" y="55" type="curve"/>
      <point x="506" y="175"/>
      <point x="506" y="55"/>
      <point x="506" y="175" type="curve"/>
      <point x="395" y="175"/>
      <point x="506" y="175"/>
      <point x="395" y="175" type="curve"/>
      <point x="395" y="55"/>
      <point x="395" y="175"/>
      <point x="395" y="55" type="curve"/>
      <point x="506" y="55"/>
      <point x="395" y="55"/>
    </contour>
    <contour>
      <point x="52" y="613" type="curve"/>
      <point x="160" y="613"/>
      <point x="322" y="613"/>
      <point x="431" y="613" type="curve"/>
      <point x="419" y="622"/>
      <point x="400" y="621"/>
      <point x="390" y="632" type="curve"/>
      <point x="378" y="640"/>
      <point x="382" y="659"/>
      <point x="372" y="669" type="curve"/>
      <point x="365" y="658"/>
      <point x="349" y="669"/>
      <point x="344" y="658" type="curve"/>
      <point x="30" y="109" type="line"/>
      <point x="30" y="53"/>
      <point x="30" y="109"/>
      <point x="30" y="53" type="curve"/>
      <point x="30" y="0"/>
      <point x="30" y="53"/>
      <point x="30" y="0" type="curve"/>
      <point x="82" y="0"/>
      <point x="30" y="0"/>
      <point x="82" y="0" type="curve"/>
      <point x="470" y="0"/>
      <point x="376" y="0"/>
      <point x="506" y="0" type="curve"/>
      <point x="506" y="109"/>
      <point x="506" y="0"/>
      <point x="506" y="109" type="curve"/>
      <point x="376" y="109"/>
      <point x="211" y="109"/>
      <point x="82" y="109" type="curve"/>
      <point x="92" y="101"/>
      <point x="108" y="102"/>
      <point x="117" y="94" type="curve"/>
      <point x="129" y="84"/>
      <point x="127" y="64"/>
      <point x="138" y="53" type="curve"/>
      <point x="144" y="63"/>
      <point x="158" y="55"/>
      <point x="164" y="64" type="curve"/>
      <point x="485" y="613" type="line"/>
      <point x="485" y="669"/>
      <point x="485" y="613"/>
      <point x="485" y="669" type="curve"/>
      <point x="485" y="722"/>
      <point x="485" y="669"/>
      <point x="485" y="722" type="curve"/>
      <point x="434" y="722"/>
      <point x="485" y="722"/>
      <point x="434" y="722" type="curve"/>
      <point x="324" y="722"/>
      <point x="161" y="722"/>
      <point x="52" y="722" type="curve"/>
      <point x="52" y="613"/>
      <point x="52" y="722"/>
    </contour>
    <contour>
      <point x="325" y="947" type="line"/>
      <point x="212" y="781" type="line"/>
      <point x="381" y="781" type="line"/>
      <point x="456" y="947" type="line"/>
    </contour>
    <contour>
      <point x="85" y="947" type="line"/>
      <point x="159" y="781" type="line"/>
      <point x="329" y="781" type="line"/>
      <point x="216" y="947" type="line"/>
    </contour>
  </outline>
</glyph>
<glyph name="florin" format="1">
  <advance width="377"/>
  <unicode hex="0192"/>
  <outline>
    <contour>
      <point x="337" y="569" type="curve"/>
      <point x="279" y="569"/>
      <point x="172" y="569"/>
      <point x="115" y="569" type="curve"/>
      <point x="115" y="459"/>
      <point x="115" y="569"/>
      <point x="115" y="459" type="curve"/>
      <point x="172" y="459"/>
      <point x="279" y="459"/>
      <point x="337" y="459" type="curve"/>
      <point x="337" y="569"/>
      <point x="337" y="459"/>
    </contour>
    <contour>
      <point x="376" y="814" type="curve"/>
      <point x="265" y="844"/>
      <point x="189" y="773"/>
      <point x="173" y="667" type="curve"/>
      <point x="145" y="480"/>
      <point x="120" y="293"/>
      <point x="92" y="106" type="curve"/>
      <point x="89" y="81"/>
      <point x="82" y="46"/>
      <point x="58" y="52" type="curve"/>
      <point x="33" y="-57"/>
      <point x="58" y="52"/>
      <point x="33" y="-57" type="curve"/>
      <point x="148" y="-85"/>
      <point x="217" y="-15"/>
      <point x="232" y="89" type="curve"/>
      <point x="261" y="280"/>
      <point x="292" y="471"/>
      <point x="319" y="662" type="curve"/>
      <point x="322" y="683"/>
      <point x="332" y="710"/>
      <point x="351" y="705" type="curve"/>
      <point x="376" y="814"/>
      <point x="351" y="705"/>
    </contour>
  </outline>
</glyph>
<glyph name="Scommaaccent" format="1">
  <advance width="485"/>
  <unicode hex="0218"/>
  <outline>
    <contour>
      <point x="287" y="661" type="curve"/>
      <point x="287" y="541"/>
      <point x="287" y="640"/>
      <point x="287" y="520" type="curve"/>
      <point x="397" y="520"/>
      <point x="287" y="520"/>
      <point x="397" y="520" type="curve"/>
      <point x="397" y="640"/>
      <point x="397" y="541"/>
      <point x="397" y="661" type="curve"/>
      <point x="287" y="661"/>
      <point x="397" y="661"/>
    </contour>
    <contour>
      <point x="181" y="53" type="curve"/>
      <point x="181" y="173"/>
      <point x="181" y="86"/>
      <point x="181" y="206" type="curve"/>
      <point x="70" y="206"/>
      <point x="181" y="206"/>
      <point x="70" y="206" type="curve"/>
      <point x="70" y="86"/>
      <point x="70" y="173"/>
      <point x="70" y="53" type="curve"/>
      <point x="181" y="53"/>
      <point x="70" y="53"/>
    </contour>
    <contour>
      <point x="70" y="53" type="curve"/>
      <point x="119" y="11"/>
      <point x="167" y="-5"/>
      <point x="232" y="-5" type="curve"/>
      <point x="354" y="-5"/>
      <point x="443" y="72"/>
      <point x="443" y="194" type="curve"/>
      <point x="443" y="299"/>
      <point x="377" y="362"/>
      <point x="286" y="419" type="curve" smooth="yes"/>
      <point x="237" y="450"/>
      <point x="198" y="493"/>
      <point x="198" y="538" type="curve"/>
      <point x="195" y="574"/>
      <point x="213" y="612"/>
      <point x="244" y="612" type="curve"/>
      <point x="282" y="612"/>
      <point x="312" y="588"/>
      <point x="333" y="575" type="curve"/>
      <point x="397" y="661"/>
      <point x="334" y="574"/>
      <point x="397" y="661" type="curve"/>
      <point x="350" y="700"/>
      <point x="306" y="716"/>
      <point x="246" y="716" type="curve"/>
      <point x="134" y="716"/>
      <point x="58" y="644"/>
      <point x="58" y="534" type="curve"/>
      <point x="58" y="434"/>
      <point x="117" y="366"/>
      <point x="201" y="314" type="curve" smooth="yes"/>
      <point x="254" y="280"/>
      <point x="302" y="238"/>
      <point x="302" y="195" type="curve"/>
      <point x="302" y="160"/>
      <point x="280" y="110"/>
      <point x="240" y="110" type="curve"/>
      <point x="201" y="110"/>
      <point x="177" y="132"/>
      <point x="147" y="157" type="curve"/>
      <point x="70" y="53"/>
      <point x="146" y="157"/>
    </contour>
    <contour>
      <point x="152" y="-382" type="line"/>
      <point x="245" y="-382"/>
      <point x="305" y="-313"/>
      <point x="305" y="-206" type="curve"/>
      <point x="305" y="-116"/>
      <point x="273" y="-73"/>
      <point x="229" y="-73" type="curve"/>
      <point x="186" y="-73"/>
      <point x="159" y="-98"/>
      <point x="159" y="-144" type="curve"/>
      <point x="159" y="-180"/>
      <point x="177" y="-211"/>
      <point x="213" y="-211" type="curve"/>
      <point x="213" y="-235"/>
      <point x="214" y="-292"/>
      <point x="152" y="-305" type="curve"/>
    </contour>
  </outline>
</glyph>
<glyph name="scommaaccent" format="1">
  <advance width="409"/>
  <unicode hex="0219"/>
  <outline>
    <contour>
      <point x="46" y="47" type="curve"/>
      <point x="95" y="15"/>
      <point x="146" y="-5"/>
      <point x="199" y="-5" type="curve"/>
      <point x="306" y="-5"/>
      <point x="374" y="55"/>
      <point x="374" y="162" type="curve"/>
      <point x="372" y="254"/>
      <point x="311" y="292"/>
      <point x="224" y="327" type="curve"/>
      <point x="195" y="338"/>
      <point x="176" y="358"/>
      <point x="176" y="388" type="curve"/>
      <point x="176" y="407"/>
      <point x="183" y="423"/>
      <point x="203" y="423" type="curve"/>
      <point x="227" y="423"/>
      <point x="254" y="407"/>
      <point x="270" y="394" type="curve"/>
      <point x="333" y="493"/>
      <point x="270" y="394"/>
      <point x="333" y="493" type="curve"/>
      <point x="306" y="516"/>
      <point x="251" y="538"/>
      <point x="206" y="538" type="curve"/>
      <point x="108" y="538"/>
      <point x="49" y="484"/>
      <point x="49" y="388" type="curve"/>
      <point x="49" y="301"/>
      <point x="97" y="255"/>
      <point x="179" y="223" type="curve"/>
      <point x="213" y="210"/>
      <point x="239" y="190"/>
      <point x="239" y="152" type="curve"/>
      <point x="239" y="128"/>
      <point x="225" y="114"/>
      <point x="206" y="114" type="curve"/>
      <point x="173" y="114"/>
      <point x="144" y="126"/>
      <point x="116" y="145" type="curve"/>
      <point x="46" y="47"/>
      <point x="116" y="145"/>
    </contour>
    <contour>
      <point x="223" y="493" type="curve"/>
      <point x="223" y="359"/>
      <point x="223" y="496"/>
      <point x="223" y="362" type="curve"/>
      <point x="333" y="362"/>
      <point x="223" y="362"/>
      <point x="333" y="362" type="curve"/>
      <point x="333" y="496"/>
      <point x="333" y="359"/>
      <point x="333" y="493" type="curve"/>
      <point x="223" y="493"/>
      <point x="333" y="493"/>
    </contour>
    <contour>
      <point x="157" y="47" type="curve"/>
      <point x="157" y="186"/>
      <point x="157" y="43"/>
      <point x="157" y="182" type="curve"/>
      <point x="46" y="182"/>
      <point x="157" y="182"/>
      <point x="46" y="182" type="curve"/>
      <point x="46" y="43"/>
      <point x="46" y="186"/>
      <point x="46" y="47" type="curve"/>
      <point x="157" y="47"/>
      <point x="46" y="47"/>
    </contour>
    <contour>
      <point x="108" y="-387" type="line"/>
      <point x="201" y="-387"/>
      <point x="262" y="-318"/>
      <point x="262" y="-211" type="curve"/>
      <point x="262" y="-121"/>
      <point x="229" y="-78"/>
      <point x="185" y="-78" type="curve"/>
      <point x="143" y="-78"/>
      <point x="115" y="-103"/>
      <point x="115" y="-149" type="curve"/>
      <point x="115" y="-185"/>
      <point x="133" y="-216"/>
      <point x="169" y="-216" type="curve"/>
      <point x="170" y="-240"/>
      <point x="170" y="-297"/>
      <point x="108" y="-310" type="curve"/>
    </contour>
  </outline>
</glyph>
<glyph name="circumflex" format="1">
  <advance width="519"/>
  <unicode hex="02C6"/>
  <outline>
    <contour>
      <point x="316" y="592" type="move" name="_top"/>
    </contour>
    <contour>
      <point x="259" y="592" type="line"/>
      <point x="373" y="758" type="line"/>
      <point x="203" y="758" type="line"/>
      <point x="128" y="592" type="line"/>
    </contour>
    <contour>
      <point x="503" y="592" type="line"/>
      <point x="429" y="758" type="line"/>
      <point x="259" y="758" type="line"/>
      <point x="372" y="592" type="line"/>
    </contour>
  </outline>
</glyph>
<glyph name="hungarumlaut" format="1">
  <advance width="499"/>
  <unicode hex="02DD"/>
  <outline>
    <contour>
      <point x="202" y="621" type="move" name="_top"/>
    </contour>
    <contour>
      <point x="158" y="619" type="line"/>
      <point x="272" y="785" type="line"/>
      <point x="102" y="785" type="line"/>
      <point x="27" y="619" type="line"/>
    </contour>
    <contour>
      <point x="353" y="619" type="line"/>
      <point x="466" y="785" type="line"/>
      <point x="297" y="785" type="line"/>
      <point x="222" y="619" type="line"/>
    </contour>
  </outline>
</glyph>
<glyph name="dvA" format="1">
  <advance width="617"/>
  <unicode hex="0905"/>
  <outline>
    <contour>
      <point x="443" y="475" type="line"/>
      <point x="427" y="439"/>
      <point x="390" y="413"/>
      <point x="342" y="413" type="curve" smooth="yes"/>
      <point x="295" y="413"/>
      <point x="257" y="428"/>
      <point x="214" y="453" type="curve"/>
      <point x="185" y="370" type="line"/>
      <point x="230" y="351"/>
      <point x="284" y="321"/>
      <point x="343" y="321" type="curve" smooth="yes"/>
      <point x="415" y="321"/>
      <point x="479" y="363"/>
      <point x="506" y="412" type="curve"/>
    </contour>
    <component base="dvA_base"/>
    <component base="dvStem" xOffset="279"/>
  </outline>
</glyph>
<glyph name="dvUU" format="1">
  <advance width="643"/>
  <unicode hex="090A"/>
  <outline>
    <contour>
      <point x="426" y="118" type="curve"/>
      <point x="426" y="2" type="line"/>
      <point x="537" y="2"/>
      <point x="610" y="83"/>
      <point x="610" y="194" type="curve"/>
      <point x="610" y="305"/>
      <point x="538" y="386"/>
      <point x="428" y="386" type="curve"/>
      <point x="332" y="386"/>
      <point x="287" y="301"/>
      <point x="254" y="205" type="curve"/>
      <point x="367" y="155" type="line"/>
      <point x="383" y="203"/>
      <point x="395" y="252"/>
      <point x="442" y="252" type="curve"/>
      <point x="469" y="252"/>
      <point x="478" y="222"/>
      <point x="478" y="191" type="curve"/>
      <point x="478" y="152"/>
      <point x="461" y="118"/>
    </contour>
    <component base="dvU"/>
    <component base="dvTopbar" xOffset="184"/>
  </outline>
</glyph>
<glyph name="dvTTA" format="1">
  <advance width="451"/>
  <unicode hex="091F"/>
  <outline>
    <contour>
      <point x="325" y="-13" type="move" name="blwm.virama"/>
    </contour>
    <contour>
      <point x="379" y="722" type="move" name="abvm.e"/>
    </contour>
    <contour>
      <point x="357" y="-99" type="move" name="blwm.u"/>
    </contour>
    <contour>
      <point x="243" y="519" type="curve"/>
      <point x="241" y="519"/>
      <point x="240" y="519"/>
      <point x="239" y="519" type="curve"/>
      <point x="99" y="519"/>
      <point x="58" y="404"/>
      <point x="58" y="280" type="curve"/>
      <point x="58" y="140"/>
      <point x="135" y="39"/>
      <point x="257" y="39" type="curve"/>
      <point x="312" y="39"/>
      <point x="350" y="57"/>
      <point x="398" y="85" type="curve"/>
      <point x="345" y="176" type="line"/>
      <point x="319" y="167"/>
      <point x="304" y="149"/>
      <point x="278" y="149" type="curve"/>
      <point x="219" y="149"/>
      <point x="192" y="209"/>
      <point x="192" y="280" type="curve"/>
      <point x="192" y="348"/>
      <point x="217" y="409"/>
      <point x="276" y="409" type="curve"/>
      <point x="315" y="409"/>
      <point x="344" y="409"/>
      <point x="383" y="409" type="curve"/>
      <point x="348" y="437"/>
      <point x="279" y="490"/>
    </contour>
    <contour>
      <point x="471" y="722" type="curve"/>
      <point x="308" y="722"/>
      <point x="143" y="722"/>
      <point x="-20" y="722" type="curve"/>
      <point x="-20" y="615"/>
      <point x="-20" y="722"/>
      <point x="-20" y="615" type="curve"/>
      <point x="143" y="615"/>
      <point x="308" y="615"/>
      <point x="471" y="615" type="curve"/>
      <point x="471" y="722"/>
      <point x="471" y="615"/>
    </contour>
    <contour>
      <point x="243" y="666" type="curve"/>
      <point x="243" y="617"/>
      <point x="243" y="568"/>
      <point x="243" y="519" type="curve"/>
      <point x="383" y="409"/>
      <point x="243" y="519"/>
      <point x="383" y="409" type="curve"/>
      <point x="383" y="494"/>
      <point x="383" y="581"/>
      <point x="383" y="666" type="curve"/>
      <point x="243" y="666"/>
      <point x="383" y="666"/>
    </contour>
  </outline>
</glyph>
<glyph name="dvTHA" format="1">
  <advance width="543"/>
  <unicode hex="0925"/>
  <outline>
    <contour>
      <point x="33" y="451" type="curve"/>
      <point x="35" y="267"/>
      <point x="74" y="105"/>
      <point x="232" y="105" type="curve"/>
      <point x="353" y="105"/>
      <point x="432" y="179"/>
      <point x="478" y="286" type="curve"/>
      <point x="443" y="300"/>
      <point x="418" y="311"/>
      <point x="383" y="325" type="curve"/>
      <point x="351" y="268"/>
      <point x="326" y="213"/>
      <point x="261" y="213" type="curve"/>
      <point x="200" y="213"/>
      <point x="174" y="270"/>
      <point x="174" y="339" type="curve"/>
      <point x="123" y="381"/>
      <point x="84" y="410"/>
    </contour>
    <contour>
      <point x="152" y="557" type="line"/>
      <point x="150" y="589"/>
      <point x="154" y="618"/>
      <point x="180" y="618" type="curve"/>
      <point x="209" y="618"/>
      <point x="217" y="588"/>
      <point x="217" y="553" type="curve"/>
      <point x="217" y="462"/>
      <point x="131" y="451"/>
      <point x="33" y="451" type="curve"/>
      <point x="84" y="410"/>
      <point x="123" y="381"/>
      <point x="174" y="339" type="curve"/>
      <point x="277" y="363"/>
      <point x="329" y="442"/>
      <point x="329" y="549" type="curve"/>
      <point x="329" y="650"/>
      <point x="278" y="727"/>
      <point x="182" y="727" type="curve"/>
      <point x="96" y="727"/>
      <point x="36" y="666"/>
      <point x="40" y="578" type="curve"/>
    </contour>
    <component base="dvStemright" xOffset="277"/>
  </outline>
</glyph>
<glyph name="dvmII" format="1">
  <advance width="214"/>
  <unicode hex="0940"/>
  <outline>
    <contour>
      <point x="157" y="656" type="line"/>
      <point x="141" y="782" type="line" smooth="yes"/>
      <point x="122" y="937"/>
      <point x="65" y="1015"/>
      <point x="-42" y="1015" type="curve"/>
      <point x="-137" y="1015"/>
      <point x="-177" y="889"/>
      <point x="-188" y="716" type="curve"/>
      <point x="-76" y="662" type="line"/>
      <point x="-67" y="771"/>
      <point x="-67" y="898"/>
      <point x="-31" y="898" type="curve"/>
      <point x="-1" y="898"/>
      <point x="9" y="857"/>
      <point x="20" y="775" type="curve" smooth="yes"/>
      <point x="33" y="679" type="line"/>
    </contour>
    <component base="dvmAA" xOffset="-22"/>
  </outline>
</glyph>
<glyph name="dvmvR" format="1">
  <advance width="0"/>
  <unicode hex="0943"/>
  <outline>
    <contour>
      <point x="-45" y="8" type="move" name="_blwm.u"/>
    </contour>
    <contour>
      <point x="-36" y="-153" type="line"/>
      <point x="-78" y="-153"/>
      <point x="-103" y="-116"/>
      <point x="-103" y="-69" type="curve"/>
      <point x="-103" y="-29"/>
      <point x="-89" y="6"/>
      <point x="-58" y="6" type="curve"/>
      <point x="-58" y="116" type="line"/>
      <point x="-164" y="116"/>
      <point x="-244" y="44"/>
      <point x="-244" y="-64" type="curve"/>
      <point x="-244" y="-184"/>
      <point x="-156" y="-262"/>
      <point x="-36" y="-262" type="curve"/>
    </contour>
  </outline>
</glyph>
<glyph name="dvmEcandra" format="1">
  <advance width="0"/>
  <unicode hex="0945"/>
  <outline>
    <contour>
      <point x="-33" y="740" type="move" name="_abvm.e"/>
    </contour>
    <contour>
      <point x="-61" y="1012" type="curve"/>
      <point x="-61" y="966"/>
      <point x="-66" y="924"/>
      <point x="-104" y="924" type="curve"/>
      <point x="-143" y="924"/>
      <point x="-149" y="965"/>
      <point x="-149" y="1012" type="curve"/>
      <point x="-304" y="1012"/>
      <point x="-133" y="1012"/>
      <point x="-289" y="1012" type="curve"/>
      <point x="-289" y="894"/>
      <point x="-223" y="815"/>
      <point x="-111" y="815" type="curve"/>
      <point x="8" y="815"/>
      <point x="79" y="891"/>
      <point x="79" y="1012" type="curve"/>
      <point x="-76" y="1012"/>
      <point x="94" y="1012"/>
    </contour>
  </outline>
</glyph>
<glyph name="dvDDHxA" format="1">
  <advance width="481"/>
  <unicode hex="095D"/>
  <outline>
    <contour>
      <point x="320" y="-317" type="move" name="blwm.virama"/>
    </contour>
    <contour>
      <point x="363" y="709" type="move" name="abvm.e"/>
    </contour>
    <contour>
      <point x="334" y="-386" type="move" name="blwm.u"/>
    </contour>
    <component base="dvTopbar" xScale="1.04975480796" xOffset="1"/>
    <component base="dvAnusvara" xOffset="365" yOffset="-1101"/>
    <component base="dvDDHA_base"/>
  </outline>
</glyph>
<glyph name="doubledanda" format="1">
  <advance width="416"/>
  <unicode hex="0965"/>
  <outline>
    <contour>
      <point x="260" y="722" type="curve"/>
      <point x="260" y="481"/>
      <point x="260" y="241"/>
      <point x="260" y="0" type="curve"/>
      <point x="400" y="0"/>
      <point x="260" y="0"/>
      <point x="400" y="0" type="curve"/>
      <point x="400" y="241"/>
      <point x="400" y="481"/>
      <point x="400" y="722" type="curve"/>
      <point x="260" y="722"/>
      <point x="400" y="722"/>
    </contour>
    <contour>
      <point x="76" y="722" type="curve"/>
      <point x="76" y="481"/>
      <point x="76" y="241"/>
      <point x="76" y="0" type="curve"/>
      <point x="217" y="0"/>
      <point x="76" y="0"/>
      <point x="217" y="0" type="curve"/>
      <point x="217" y="241"/>
      <point x="217" y="481"/>
      <point x="217" y="722" type="curve"/>
      <point x="76" y="722"/>
      <point x="217" y="722"/>
    </contour>
  </outline>
</glyph>
<glyph name="quoteright" format="1">
  <advance width="243"/>
  <unicode hex="2019"/>
  <outline>
    <contour>
      <point x="53" y="484" type="line"/>
      <point x="146" y="484"/>
      <point x="207" y="553"/>
      <point x="207" y="660" type="curve"/>
      <point x="207" y="750"/>
      <point x="174" y="793"/>
      <point x="130" y="793" type="curve"/>
      <point x="89" y="793"/>
      <point x="60" y="768"/>
      <point x="60" y="722" type="curve"/>
      <point x="60" y="686"/>
      <point x="78" y="655"/>
      <point x="114" y="655" type="curve"/>
      <point x="115" y="632"/>
      <point x="115" y="574"/>
      <point x="53" y="562" type="curve"/>
    </contour>
  </outline>
</glyph>
<glyph name="guilsinglleft" format="1">
  <advance width="244"/>
  <unicode hex="2039"/>
  <outline>
    <contour>
      <point x="181" y="490" type="curve"/>
      <point x="144" y="455"/>
      <point x="79" y="394"/>
      <point x="40" y="359" type="curve"/>
      <point x="40" y="238"/>
      <point x="40" y="336"/>
      <point x="40" y="215" type="curve"/>
      <point x="79" y="250"/>
      <point x="144" y="324"/>
      <point x="181" y="359" type="curve"/>
      <point x="181" y="479"/>
      <point x="181" y="370"/>
    </contour>
    <contour>
      <point x="181" y="218" type="curve"/>
      <point x="144" y="253"/>
      <point x="79" y="324"/>
      <point x="40" y="359" type="curve"/>
      <point x="40" y="238"/>
      <point x="40" y="336"/>
      <point x="40" y="215" type="curve"/>
      <point x="79" y="180"/>
      <point x="144" y="121"/>
      <point x="181" y="87" type="curve"/>
      <point x="181" y="207"/>
      <point x="181" y="98"/>
    </contour>
  </outline>
</glyph>
<glyph name="estimated" format="1">
  <advance width="681"/>
  <unicode hex="212E"/>
  <outline>
    <contour>
      <point x="522" y="177" type="curve"/>
      <point x="481" y="127"/>
      <point x="434" y="111"/>
      <point x="368" y="111" type="curve"/>
      <point x="239" y="111"/>
      <point x="184" y="222"/>
      <point x="184" y="370" type="curve"/>
      <point x="184" y="507"/>
      <point x="229" y="613"/>
      <point x="347" y="613" type="curve"/>
      <point x="459" y="613"/>
      <point x="510" y="521"/>
      <point x="510" y="395" type="curve"/>
      <point x="510" y="384"/>
      <point x="510" y="377"/>
      <point x="510" y="366" type="curve"/>
      <point x="523" y="379"/>
      <point x="532" y="387"/>
      <point x="545" y="400" type="curve"/>
      <point x="556" y="412"/>
      <point x="571" y="409"/>
      <point x="582" y="422" type="curve"/>
      <point x="408" y="422"/>
      <point x="290" y="422"/>
      <point x="116" y="422" type="curve"/>
      <point x="116" y="383"/>
      <point x="116" y="357"/>
      <point x="116" y="318" type="curve"/>
      <point x="290" y="318"/>
      <point x="408" y="318"/>
      <point x="582" y="318" type="curve"/>
      <point x="604" y="318"/>
      <point x="619" y="318"/>
      <point x="641" y="318" type="curve"/>
      <point x="641" y="336"/>
      <point x="641" y="348"/>
      <point x="641" y="366" type="curve"/>
      <point x="641" y="373"/>
      <point x="641" y="377"/>
      <point x="641" y="384" type="curve"/>
      <point x="641" y="589"/>
      <point x="540" y="728"/>
      <point x="352" y="728" type="curve"/>
      <point x="155" y="728"/>
      <point x="47" y="584"/>
      <point x="47" y="370" type="curve"/>
      <point x="47" y="146"/>
      <point x="161" y="-5"/>
      <point x="368" y="-5" type="curve"/>
      <point x="468" y="-5"/>
      <point x="535" y="26"/>
      <point x="608" y="100" type="curve"/>
      <point x="578" y="128"/>
      <point x="553" y="148"/>
    </contour>
    <contour>
      <point x="265" y="121" type="line"/>
      <point x="265" y="606" type="line"/>
      <point x="142" y="559" type="line"/>
      <point x="87" y="368" type="line"/>
      <point x="121" y="159" type="line"/>
    </contour>
    <contour>
      <point x="525" y="390" type="line"/>
      <point x="510" y="524" type="line"/>
      <point x="431" y="595" type="line"/>
      <point x="431" y="399" type="line"/>
    </contour>
  </outline>
</glyph>
<glyph name="partialdiff" format="1">
  <advance width="461"/>
  <unicode hex="2202"/>
  <outline>
    <contour>
      <point x="342" y="233" type="curve"/>
      <point x="337" y="295"/>
      <point x="306" y="354"/>
      <point x="226" y="354" type="curve"/>
      <point x="176" y="354"/>
      <point x="158" y="297"/>
      <point x="158" y="236" type="curve"/>
      <point x="158" y="171"/>
      <point x="161" y="104"/>
      <point x="227" y="105" type="curve"/>
      <point x="294" y="105"/>
      <point x="303" y="264"/>
      <point x="303" y="412" type="curve"/>
      <point x="303" y="513"/>
      <point x="309" y="618"/>
      <point x="228" y="618" type="curve"/>
      <point x="207" y="618"/>
      <point x="190" y="603"/>
      <point x="178" y="586" type="curve"/>
      <point x="104" y="658"/>
      <point x="178" y="586"/>
      <point x="104" y="658" type="curve"/>
      <point x="147" y="712"/>
      <point x="185" y="728"/>
      <point x="235" y="728" type="curve"/>
      <point x="381" y="728"/>
      <point x="423" y="581"/>
      <point x="423" y="412" type="curve"/>
      <point x="423" y="194"/>
      <point x="400" y="-5"/>
      <point x="217" y="-5" type="curve"/>
      <point x="96" y="-5"/>
      <point x="29" y="91"/>
      <point x="29" y="220" type="curve"/>
      <point x="29" y="354"/>
      <point x="94" y="459"/>
      <point x="219" y="459" type="curve"/>
      <point x="330" y="459"/>
      <point x="393" y="366"/>
      <point x="394" y="248" type="curve"/>
      <point x="335" y="230"/>
      <point x="401" y="250"/>
    </contour>
  </outline>
</glyph>
<glyph name="summation" format="1">
  <advance width="458"/>
  <unicode hex="2211"/>
  <outline>
    <contour>
      <point x="271" y="613" type="line"/>
      <point x="271" y="531" type="line"/>
      <point x="398" y="531" type="line"/>
      <point x="398" y="722" type="line"/>
    </contour>
    <contour>
      <point x="398" y="0" type="line"/>
      <point x="398" y="188" type="line"/>
      <point x="271" y="188" type="line"/>
      <point x="271" y="110" type="line"/>
    </contour>
    <contour>
      <point x="398" y="722" type="line"/>
      <point x="41" y="722" type="line"/>
      <point x="41" y="613" type="line"/>
      <point x="271" y="613" type="line"/>
    </contour>
    <contour>
      <point x="42" y="0" type="line"/>
      <point x="398" y="0" type="line"/>
      <point x="271" y="110" type="line"/>
      <point x="42" y="110" type="line"/>
    </contour>
    <contour>
      <point x="208" y="360" type="line"/>
      <point x="42" y="110" type="line"/>
      <point x="130" y="19" type="line"/>
      <point x="346" y="363" type="line"/>
    </contour>
    <contour>
      <point x="346" y="363" type="line"/>
      <point x="133" y="702" type="line"/>
      <point x="41" y="613" type="line"/>
      <point x="209" y="360" type="line"/>
    </contour>
  </outline>
</glyph>
<glyph name="minus" format="1">
  <advance width="631"/>
  <unicode hex="2212"/>
  <outline>
    <contour>
      <point x="64" y="256" type="line"/>
      <point x="567" y="256" type="line"/>
      <point x="567" y="376" type="line"/>
      <point x="64" y="376" type="line"/>
    </contour>
  </outline>
</glyph>
<glyph name="divisionslash" format="1">
  <advance width="407"/>
  <unicode hex="2215"/>
  <outline>
    <contour>
      <point x="99" y="-36" type="line"/>
      <point x="384" y="708" type="line"/>
      <point x="256" y="708" type="line"/>
      <point x="-29" y="-36" type="line"/>
    </contour>
  </outline>
</glyph>
<glyph name="infinity" format="1">
  <advance width="670"/>
  <unicode hex="221E"/>
  <outline>
    <contour>
      <point x="214" y="205" type="curve"/>
      <point x="296" y="205"/>
      <point x="343" y="284"/>
      <point x="374" y="364" type="curve"/>
      <point x="391" y="412"/>
      <point x="405" y="478"/>
      <point x="455" y="478" type="curve"/>
      <point x="487" y="478"/>
      <point x="494" y="438"/>
      <point x="494" y="400" type="curve"/>
      <point x="494" y="361"/>
      <point x="488" y="315"/>
      <point x="455" y="315" type="curve"/>
      <point x="400" y="315"/>
      <point x="403" y="391"/>
      <point x="383" y="444" type="curve"/>
      <point x="354" y="521"/>
      <point x="295" y="589"/>
      <point x="215" y="589" type="curve"/>
      <point x="115" y="589"/>
      <point x="47" y="502"/>
      <point x="47" y="399" type="curve"/>
      <point x="47" y="295"/>
      <point x="112" y="205"/>
      <point x="214" y="205" type="curve"/>
      <point x="214" y="325"/>
      <point x="214" y="194"/>
      <point x="214" y="314" type="curve"/>
      <point x="181" y="314"/>
      <point x="178" y="362"/>
      <point x="178" y="400" type="curve"/>
      <point x="178" y="437"/>
      <point x="184" y="479"/>
      <point x="215" y="479" type="curve"/>
      <point x="265" y="479"/>
      <point x="264" y="410"/>
      <point x="281" y="361" type="curve"/>
      <point x="312" y="281"/>
      <point x="372" y="206"/>
      <point x="455" y="206" type="curve"/>
      <point x="558" y="206"/>
      <point x="623" y="294"/>
      <point x="623" y="398" type="curve"/>
      <point x="623" y="501"/>
      <point x="557" y="588"/>
      <point x="455" y="588" type="curve"/>
      <point x="374" y="588"/>
      <point x="321" y="517"/>
      <point x="292" y="439" type="curve"/>
      <point x="272" y="388"/>
      <point x="269" y="314"/>
      <point x="214" y="314" type="curve"/>
      <point x="214" y="194"/>
      <point x="214" y="325"/>
    </contour>
  </outline>
</glyph>
